<?xml version="1.0" standalone="no"?>
<!DOCTYPE svg PUBLIC "-//W3C//DTD SVG 1.1//EN" "http://www.w3.org/Graphics/SVG/1.1/DTD/svg11.dtd" >
<svg xmlns="http://www.w3.org/2000/svg" xmlns:xlink="http://www.w3.org/1999/xlink" version="1.1">
<metadata>
Created by FontForge 20150804 at Thu Jan 21 15:59:51 2016
 By cloudconvert
Futura was designed for Bauer company in 1927 by Paul Renner. This is a sans serif face based on geometrical shapes, representative of the aesthetics of the Bauhaus school of the 1920s-30s. Issued by the Bauer Foundry in a wide range of weights and widths, Futura became a very popular choice for text and display setting. Originally Cyrillic version of eight styles was developed at ParaType (ParaGraph) in 1995 by Vladimir Yefimov. Additional Cyrillic styles were developed in 2007-2009 by Isabella Chaeva. Simultaneously the old eight styles were partly revised to match the whole family. Now the new Futura is an uniform type system consisted of seven weights with corresponding obliques plus eight condensed styles. All these fonts are coordinated in letterforms, metrics, and weights to better working together.
</metadata>
<defs>
<font id="FuturaPT-BookObl" horiz-adv-x="500" >
  <font-face 
    font-family="Futura PT Book"
    font-weight="400"
    font-style="italic"
    font-stretch="normal"
    units-per-em="1000"
    panose-1="2 11 5 2 2 2 4 9 3 3"
    ascent="763"
    descent="-237"
    x-height="415"
    cap-height="667"
    bbox="-305 -250 1091 926"
    underline-thickness="50"
    underline-position="-100"
    slope="-7"
    stemh="72"
    stemv="72"
    unicode-range="U+0020-FB02"
  />
<missing-glyph horiz-adv-x="233" 
 />
    <glyph glyph-name="afii10017.var.accented" unicode="&#x410;`" horiz-adv-x="622" 
d="M534 0l-55 188h-284l-103 -188h-84l393 699l213 -699h-80zM233 258h226l-80 267zM501 882l65 -45l-168 -117l-39 32z" />
    <glyph glyph-name="afii10022.var.accented" unicode="&#x415;`" horiz-adv-x="482" 
d="M514 667l-9 -70h-272l-24 -198h264l-9 -70h-264l-31 -259h272l-9 -70h-346l82 667h346zM431 882l65 -45l-168 -117l-39 32z" />
    <glyph glyph-name="afii10026.var.accented" unicode="&#x418;`" horiz-adv-x="710" 
d="M550 0l62 509l-530 -539l86 697h74l-63 -511l530 539l-85 -695h-74zM545 882l65 -45l-168 -117l-39 32z" />
    <glyph glyph-name="afii10032.var.accented" unicode="&#x41e;`" horiz-adv-x="800" 
d="M399 -12c-73 0 -156 19 -222 87c-41 42 -86 114 -86 221c0 137 60 226 114 277c73 70 163 105 274 105c73 0 155 -16 224 -84c43 -42 88 -112 88 -218c0 -103 -37 -210 -112 -283c-58 -56 -153 -105 -280 -105zM471 608c-85 0 -159 -31 -211 -79
c-47 -44 -92 -117 -92 -219c0 -82 30 -144 69 -184c35 -36 89 -68 170 -68c90 0 167 32 216 80c59 57 91 145 91 224c0 75 -29 137 -70 178c-33 33 -88 68 -173 68zM590 882l65 -45l-168 -117l-39 32z" />
    <glyph glyph-name="afii10037.var.accented" unicode="&#x423;`" horiz-adv-x="568" 
d="M90 667h85l160 -393l222 393h85l-383 -667h-80l108 186zM474 882l65 -45l-168 -117l-39 32z" />
    <glyph glyph-name="afii10045.var.accented" unicode="&#x42b;`" horiz-adv-x="710" 
d="M632 667h74l-82 -667h-74zM86 0l81 667h75l-34 -277h74c69 0 136 -11 180 -56c34 -34 45 -75 45 -119c0 -80 -33 -131 -61 -157c-59 -55 -144 -58 -194 -58h-166zM199 320l-30 -250h86c35 0 98 4 133 34c24 20 42 57 42 102c0 57 -29 83 -45 93c-10 7 -38 21 -110 21h-76
zM545 882l65 -45l-168 -117l-39 32z" />
    <glyph glyph-name="afii10047.var.accented" unicode="&#x42d;`" horiz-adv-x="649" 
d="M114 520l11 92c22 13 61 33 90 44c32 12 73 22 124 22c95 0 168 -32 214 -75c52 -48 87 -120 87 -224c0 -77 -16 -208 -112 -300c-70 -67 -151 -91 -248 -91c-50 0 -96 7 -140 23c-29 10 -56 24 -83 44l11 90c24 -26 52 -45 84 -60c41 -19 82 -27 133 -27
c56 0 130 11 189 69c71 69 81 167 83 183h-389l9 70h386c0 74 -31 135 -67 170c-51 50 -116 58 -161 58c-48 0 -89 -8 -137 -31c-30 -15 -58 -33 -84 -57zM444 882l65 -45l-168 -117l-39 32z" />
    <glyph glyph-name="afii10048.var.accented" unicode="&#x42e;`" horiz-adv-x="993" 
d="M208 389h100c18 81 58 140 94 179c60 64 147 110 265 110c97 0 178 -34 232 -88c40 -40 85 -111 85 -225c0 -125 -51 -219 -112 -279c-70 -68 -152 -98 -255 -98c-84 0 -167 22 -234 93c-56 59 -86 137 -85 238h-99l-39 -319h-74l82 667h74zM659 608
c-79 0 -149 -33 -195 -77c-52 -50 -90 -133 -90 -221c0 -71 29 -138 70 -181c40 -42 103 -71 180 -71c74 0 144 26 193 72c52 48 90 132 90 228c0 65 -22 128 -61 172c-40 45 -108 78 -187 78zM686 882l65 -45l-168 -117l-39 32z" />
    <glyph glyph-name="afii10049.var.accented" unicode="&#x42f;`" horiz-adv-x="510" 
d="M30 0l232 297c-41 5 -82 24 -109 50c-34 33 -42 72 -42 114c0 74 28 119 54 146c49 50 118 60 205 60h136l-82 -667h-74l36 292h-38l-226 -292h-92zM423 597h-72c-45 0 -97 -5 -130 -39c-27 -28 -32 -63 -32 -88c0 -34 7 -67 45 -90c26 -16 63 -22 96 -22h64zM445 882
l65 -45l-168 -117l-39 32z" />
    <glyph glyph-name="afii10023.var.accented" unicode="&#x401;`" horiz-adv-x="482" 
d="M514 667l-9 -70h-272l-24 -198h264l-9 -70h-264l-31 -259h272l-9 -70h-346l82 667h346zM382 882l54 -37l-142 -119l-33 26zM158 781c0 9 3 23 14 36s24 18 40 18c11 0 22 -4 30 -11c6 -5 13 -15 13 -30c0 -14 -6 -29 -15 -39c-7 -8 -20 -17 -38 -17c-15 0 -26 6 -33 13
s-11 20 -11 30zM417 781c0 12 4 25 14 36c8 9 21 18 40 18c11 0 24 -4 31 -11c8 -7 12 -19 12 -30c0 -14 -6 -29 -15 -39c-7 -8 -19 -17 -38 -17c-14 0 -24 4 -32 13c-7 7 -12 17 -12 30z" />
    <glyph glyph-name="afii10065.var.accented" unicode="&#x430;`" horiz-adv-x="528" 
d="M432 356l7 59h72l-51 -415h-72l7 58c-13 -18 -31 -37 -52 -49c-30 -17 -61 -21 -86 -21c-50 0 -96 10 -135 51c-31 33 -54 80 -54 148c0 85 33 147 72 184s87 54 149 54c28 0 58 -4 88 -20c25 -13 42 -29 55 -49zM295 361c-46 0 -79 -19 -100 -39
c-31 -29 -53 -79 -53 -130c0 -41 15 -83 43 -109c25 -24 55 -31 84 -31c45 0 79 15 103 41c30 31 47 84 47 135c0 56 -25 87 -39 100c-17 16 -44 33 -85 33zM408 666l70 -34l-151 -135l-42 24z" />
    <glyph glyph-name="afii10070.var.accented" unicode="&#x435;`" horiz-adv-x="483" 
d="M395 139l61 -33c-19 -32 -49 -67 -77 -86c-41 -27 -85 -32 -120 -32c-49 0 -96 9 -137 52c-25 26 -55 72 -55 149c0 71 27 134 71 178c43 43 90 58 145 58c70 0 111 -25 135 -49c30 -31 58 -88 47 -183h-323c-1 -59 19 -92 37 -110c24 -24 52 -31 82 -31c24 0 53 4 80 23
c21 15 42 42 54 64zM154 253h242c-1 30 -14 62 -35 82c-23 22 -53 26 -76 26c-37 0 -66 -10 -91 -35c-18 -18 -33 -44 -40 -73zM385 666l70 -34l-151 -135l-42 24z" />
    <glyph glyph-name="afii10074.var.accented" unicode="&#x438;`" horiz-adv-x="492" 
d="M119 415h72l-34 -276l322 308l-55 -447h-72l34 279l-322 -308zM390 666l70 -34l-151 -135l-42 24z" />
    <glyph glyph-name="afii10080.var.accented" unicode="&#x43e;`" horiz-adv-x="528" 
d="M268 -12c-59 0 -108 15 -148 57c-29 31 -53 78 -53 145c0 60 20 122 75 173c46 42 99 62 166 62c68 0 117 -22 152 -57c42 -42 51 -93 51 -136c0 -90 -37 -148 -70 -180c-53 -52 -117 -64 -173 -64zM307 361c-28 0 -73 -7 -113 -46c-35 -34 -53 -80 -53 -130
c0 -47 20 -77 36 -94c15 -16 45 -39 96 -39c52 0 89 22 113 48c31 33 50 83 50 131c0 42 -16 73 -34 92c-21 22 -54 38 -95 38zM408 666l70 -34l-151 -135l-42 24z" />
    <glyph glyph-name="afii10085.var.accented" unicode="&#x443;`" horiz-adv-x="460" 
d="M39 -230l165 269l-145 376h80l110 -297l172 297h82l-384 -645h-80zM374 666l70 -34l-151 -135l-42 24z" />
    <glyph glyph-name="afii10093.var.accented" unicode="&#x44b;`" horiz-adv-x="562" 
d="M422 0l51 415h72l-51 -415h-72zM68 0l51 415h72l-20 -159h75c28 0 73 -2 108 -32c29 -26 35 -57 35 -85c0 -46 -16 -76 -36 -96c-39 -40 -96 -43 -126 -43h-86h-73zM148 64h75c25 0 52 5 68 17c10 8 24 23 24 51c0 26 -12 40 -22 47c-17 12 -47 13 -61 13h-68zM425 666
l70 -34l-151 -135l-42 24z" />
    <glyph glyph-name="afii10095.var.accented" unicode="&#x44d;`" horiz-adv-x="426" 
d="M82 330l9 70c22 10 62 25 118 25c70 0 116 -23 144 -49c46 -43 56 -101 56 -147c0 -88 -33 -143 -65 -176c-50 -51 -112 -65 -172 -65c-63 0 -104 15 -129 28l9 70c40 -28 79 -34 115 -34c37 0 81 5 118 41c20 19 38 49 44 87h-219l8 64h217c-2 41 -21 67 -39 83
c-31 27 -69 34 -105 34c-27 0 -66 -5 -109 -31zM307 666l70 -34l-151 -135l-42 24z" />
    <glyph glyph-name="afii10096.var.accented" unicode="&#x44e;`" horiz-adv-x="692" 
d="M170 245h74c13 53 41 90 66 115c35 34 89 65 166 65c80 0 124 -34 144 -53c28 -27 55 -73 55 -141c0 -64 -22 -134 -71 -182c-54 -53 -115 -61 -166 -61c-58 0 -111 12 -153 57c-28 29 -51 76 -51 134h-72l-22 -179h-72l51 415h72zM470 361c-40 0 -77 -11 -109 -43
c-35 -35 -52 -86 -52 -132s16 -78 35 -97c24 -25 62 -37 95 -37c43 0 83 17 110 45c30 30 51 80 51 133c0 42 -16 74 -35 94c-16 17 -45 37 -95 37zM490 666l70 -34l-151 -135l-42 24z" />
    <glyph glyph-name="afii10097.var.accented" unicode="&#x44f;`" horiz-adv-x="408" 
d="M20 0l150 171c-5 0 -45 5 -73 32c-23 23 -27 50 -27 71c0 52 21 84 39 101c39 38 91 40 137 40h145l-51 -415h-72l21 167h-40l-139 -167h-90zM296 227l15 124h-74c-18 0 -49 -2 -69 -16c-21 -15 -24 -35 -24 -48c0 -15 2 -33 22 -46c18 -12 47 -14 66 -14h64zM348 666
l70 -34l-151 -135l-42 24z" />
    <glyph glyph-name="afii10071.var.accented" unicode="&#x451;`" horiz-adv-x="483" 
d="M395 139l61 -33c-19 -32 -49 -67 -77 -86c-41 -27 -85 -32 -120 -32c-49 0 -96 9 -137 52c-25 26 -55 72 -55 149c0 71 27 134 71 178c43 43 90 58 145 58c70 0 111 -25 135 -49c30 -31 58 -88 47 -183h-323c-1 -59 19 -92 37 -110c24 -24 52 -31 82 -31c24 0 53 4 80 23
c21 15 42 42 54 64zM154 253h242c-1 30 -14 62 -35 82c-23 22 -53 26 -76 26c-37 0 -66 -10 -91 -35c-18 -18 -33 -44 -40 -73zM364 543c0 15 7 30 17 40c8 8 21 17 40 17c14 0 24 -5 31 -12c9 -8 13 -20 13 -32c0 -13 -7 -29 -18 -40s-25 -16 -38 -16c-11 0 -24 5 -32 12
c-7 7 -13 19 -13 31zM127 543c0 15 7 30 17 40c8 8 21 17 40 17c14 0 24 -5 31 -12c9 -8 13 -20 13 -32c0 -13 -7 -29 -18 -40s-25 -16 -38 -16c-11 0 -24 5 -32 12c-7 7 -13 19 -13 31zM358 666l59 -28l-151 -135l-31 18z" />
    <glyph glyph-name="fi" unicode="fi" horiz-adv-x="459" 
d="M287 349h-102l-43 -349h-72l43 349h-40l8 66h40l19 156c5 40 13 86 48 123c34 36 78 47 121 47c64 0 102 -23 122 -44c17 -18 33 -46 33 -91c0 -16 -3 -45 -4 -52h-72c1 10 3 27 3 38c0 13 -2 38 -22 56c-15 14 -39 20 -62 20c-22 0 -49 -4 -69 -27
c-18 -21 -23 -48 -26 -70l-19 -156h102zM371 415h72l-51 -415h-72z" />
    <glyph glyph-name="fl" unicode="fl" horiz-adv-x="459" 
d="M287 349h-102l-43 -349h-72l43 349h-40l8 66h40l19 156c5 40 13 86 48 123c24 25 63 47 123 47c54 0 95 -18 120 -44c28 -30 33 -66 33 -92c0 -19 -2 -40 -6 -70l-66 -535h-72l65 532c2 17 6 39 6 60c0 18 -4 40 -22 56c-15 13 -38 20 -61 20c-36 0 -58 -13 -70 -27
c-17 -19 -23 -47 -26 -70l-19 -156h102z" />
    <glyph glyph-name=".notdef" horiz-adv-x="233" 
 />
    <glyph glyph-name="space" unicode=" " horiz-adv-x="233" 
 />
    <glyph glyph-name="exclam" unicode="!" horiz-adv-x="281" 
d="M194 135h-72l65 532h72zM95 35c0 21 11 34 16 39c10 11 25 16 39 16s25 -5 33 -13s13 -20 13 -34c0 -10 -3 -26 -19 -40c-11 -9 -23 -13 -36 -13c-17 0 -28 7 -34 13s-12 17 -12 32z" />
    <glyph glyph-name="quotedbl" unicode="&#x22;" horiz-adv-x="330" 
d="M216 667l-46 -268h-54l20 268h80zM358 667l-46 -268h-54l20 268h80z" />
    <glyph glyph-name="numbersign" unicode="#" horiz-adv-x="600" 
d="M394 0h-73l57 207h-136l-57 -207h-73l57 207h-110l19 66h110l36 133h-110l18 66h110l54 195h73l-54 -195h136l54 195h73l-54 -195h110l-18 -66h-110l-36 -133h110l-19 -66h-110zM397 273l36 133h-136l-36 -133h136z" />
    <glyph glyph-name="dollar" unicode="$" horiz-adv-x="568" 
d="M538 574l-63 -39c-5 27 -20 42 -27 48c-9 8 -24 17 -44 20l-27 -221c8 -3 61 -23 98 -65c28 -32 43 -70 43 -118c0 -72 -30 -120 -56 -147c-18 -19 -61 -56 -133 -62l-11 -91h-60l11 90c-56 0 -95 26 -118 49c-28 28 -51 71 -56 122l74 20c3 -32 17 -67 36 -87
c18 -19 46 -31 73 -34l33 271l-25 12c-27 13 -57 29 -79 52c-27 28 -38 61 -38 102c0 54 20 95 52 127c25 25 68 54 133 54l10 86h60l-11 -88c26 -4 52 -14 78 -35c24 -19 38 -41 47 -66zM367 302l-29 -241c36 7 58 26 71 41c19 22 31 54 31 92c0 29 -7 51 -25 72
c-18 22 -41 33 -48 36zM321 409l24 198c-33 -1 -56 -16 -68 -27c-20 -19 -33 -47 -33 -76c0 -25 8 -45 24 -62c13 -14 33 -26 53 -33z" />
    <glyph glyph-name="percent" unicode="%" horiz-adv-x="714" 
d="M144 10l471 670l37 -22l-472 -671zM559 283c44 0 79 -16 103 -40c27 -27 36 -59 36 -93c0 -53 -20 -92 -45 -117c-34 -33 -72 -40 -110 -40c-36 0 -67 6 -98 36c-29 28 -40 62 -40 97c0 40 15 82 44 112c28 28 66 45 110 45zM549 48c24 0 44 8 60 24c17 17 28 44 28 74
c0 31 -13 51 -25 62c-11 11 -30 20 -57 20c-26 0 -48 -9 -65 -28s-25 -44 -25 -69c0 -27 10 -48 24 -61c11 -10 29 -22 60 -22zM252 673c44 0 79 -16 103 -40c27 -27 36 -59 36 -93c0 -53 -20 -92 -45 -117c-34 -33 -72 -40 -110 -40c-36 0 -67 6 -98 36
c-24 24 -40 56 -40 97c0 40 15 82 44 112c28 28 66 45 110 45zM242 438c24 0 44 8 60 24c17 17 28 44 28 74c0 31 -13 51 -25 62c-11 11 -30 20 -57 20c-26 0 -48 -9 -65 -28s-25 -44 -25 -69c0 -27 10 -48 24 -61c11 -10 29 -22 60 -22z" />
    <glyph glyph-name="ampersand" unicode="&#x26;" horiz-adv-x="638" 
d="M582 289l49 -45c-33 -36 -65 -69 -97 -99l94 -145h-92l-61 93c-25 -23 -62 -53 -96 -72c-40 -23 -75 -33 -125 -33c-52 0 -94 10 -133 50c-27 28 -46 65 -46 114c0 67 33 115 65 147c36 36 95 74 136 95l-21 37c-15 26 -28 55 -28 96c0 48 18 85 41 109
c35 36 79 42 114 42c33 0 73 -7 103 -38c21 -21 31 -48 31 -80c0 -42 -14 -71 -27 -89c-5 -7 -21 -27 -60 -55l-50 -36l117 -179c31 28 60 57 86 88zM437 148l-124 191c-42 -22 -92 -57 -120 -85c-26 -27 -43 -54 -43 -96c0 -28 7 -52 28 -73s47 -29 78 -29
c34 0 66 9 101 30c24 14 55 39 80 62zM321 469l21 -35l41 28c11 7 35 26 45 38s17 30 17 49c0 23 -11 40 -23 50s-29 15 -45 15c-23 0 -44 -9 -57 -21c-15 -14 -23 -36 -23 -57c0 -26 13 -49 24 -67z" />
    <glyph glyph-name="quotesingle" unicode="'" horiz-adv-x="188" 
d="M216 667l-46 -268h-54l20 268h80z" />
    <glyph glyph-name="parenleft" unicode="(" horiz-adv-x="298" 
d="M261 740l60 -29c-46 -96 -74 -177 -101 -277c-25 -93 -42 -181 -42 -280c0 -51 6 -176 37 -295l-66 -29c-32 116 -45 230 -45 318c0 109 20 216 47 311c35 123 80 221 110 281z" />
    <glyph glyph-name="parenright" unicode=")" horiz-adv-x="298" 
d="M105 -170l-60 29c45 97 78 189 102 278c28 103 41 186 41 300c0 76 -6 163 -37 274l66 29c37 -137 45 -224 45 -308c0 -122 -12 -196 -44 -309c-27 -97 -56 -184 -113 -293z" />
    <glyph glyph-name="asterisk" unicode="*" horiz-adv-x="568" 
d="M219 648l110 -43l11 124h68l-21 -124l122 43l13 -63l-124 -34l65 -97l-59 -39l-56 103l-82 -103l-49 39l89 97l-116 34z" />
    <glyph glyph-name="plus" unicode="+" 
d="M74 300v66h181v172h72v-172h181v-66h-181v-172h-72v172h-181z" />
    <glyph glyph-name="comma" unicode="," horiz-adv-x="274" 
d="M8 -133l110 231l63 -24l-129 -226z" />
    <glyph glyph-name="hyphen" unicode="-" horiz-adv-x="320" 
d="M72 176l9 74h220l-9 -74h-220z" />
    <glyph glyph-name="period" unicode="." horiz-adv-x="229" 
d="M69 35c0 21 11 34 16 39c10 11 25 16 39 16s25 -5 33 -13s13 -20 13 -34c0 -10 -3 -26 -19 -40c-11 -9 -23 -13 -36 -13c-17 0 -28 7 -34 13s-12 17 -12 32z" />
    <glyph glyph-name="slash" unicode="/" horiz-adv-x="605" 
d="M-19 -170l632 929l60 -30l-631 -927z" />
    <glyph glyph-name="zero" unicode="0" horiz-adv-x="568" 
d="M282 -12c-46 0 -85 9 -126 51c-69 71 -76 170 -76 225c0 136 47 269 124 347c48 49 97 67 156 67c49 0 92 -15 128 -49c41 -39 76 -106 76 -223c0 -131 -35 -273 -122 -357c-50 -48 -97 -61 -160 -61zM355 610c-42 0 -75 -17 -104 -46c-61 -62 -97 -182 -97 -289
c0 -18 2 -129 56 -185c23 -24 50 -34 82 -34c40 0 69 13 96 38c70 64 102 202 102 302c0 59 -14 142 -56 183c-23 23 -49 31 -79 31z" />
    <glyph glyph-name="one" unicode="1" horiz-adv-x="568" 
d="M266 0l73 597h-112l48 70h147l-82 -667h-74z" />
    <glyph glyph-name="two" unicode="2" horiz-adv-x="568" 
d="M481 0h-431l278 279c33 33 79 80 100 109c24 33 40 66 40 109c0 40 -16 66 -33 82c-16 15 -44 31 -89 31c-54 0 -85 -21 -100 -37c-24 -24 -39 -65 -42 -101h-74c7 55 32 112 69 148c38 37 92 58 153 58c59 0 108 -21 139 -50c36 -34 51 -77 51 -123
c0 -62 -21 -109 -60 -159c-33 -42 -76 -81 -116 -121l-159 -157h282z" />
    <glyph glyph-name="three" unicode="3" horiz-adv-x="568" 
d="M225 502h-74c7 48 30 95 58 124c39 40 88 52 135 52c67 0 106 -23 129 -44c26 -24 49 -64 49 -126c0 -34 -7 -67 -28 -98c-14 -20 -37 -46 -77 -60c18 -9 38 -22 55 -49c19 -29 24 -58 24 -89c0 -59 -21 -121 -64 -165c-50 -51 -105 -59 -152 -59c-46 0 -98 8 -139 50
c-30 31 -53 82 -56 135h74c2 -33 16 -68 36 -88c27 -26 64 -29 85 -29c25 0 66 4 98 36c30 30 42 80 42 116c0 41 -18 65 -31 78c-16 15 -44 31 -88 31h-8l8 66h10c42 0 77 10 100 29c32 26 38 65 38 96c0 22 -4 51 -28 74c-20 19 -50 28 -80 28c-35 0 -63 -13 -81 -30
c-20 -20 -32 -50 -35 -78z" />
    <glyph glyph-name="four" unicode="4" horiz-adv-x="568" 
d="M520 704l-62 -510h82l-9 -68h-82l-15 -126h-74l15 126h-342zM176 194h207l36 288z" />
    <glyph glyph-name="five" unicode="5" horiz-adv-x="568" 
d="M561 667l-8 -68h-214l-60 -145c68 11 133 -8 176 -50c35 -34 59 -84 59 -153c0 -96 -40 -158 -73 -192c-54 -55 -115 -71 -183 -71c-49 0 -90 7 -132 35c-33 22 -61 55 -79 85l64 42c4 -8 20 -39 49 -62c32 -25 66 -32 99 -32c66 0 107 24 131 49c32 33 50 86 50 143
c0 32 -9 76 -47 108c-29 25 -71 35 -107 35c-45 0 -89 -15 -125 -41l135 317h265z" />
    <glyph glyph-name="six" unicode="6" horiz-adv-x="568" 
d="M416 683l55 -42l-173 -207c68 11 143 -9 192 -59c41 -42 53 -89 53 -142c0 -75 -23 -131 -67 -175c-55 -55 -121 -70 -188 -70c-50 0 -105 11 -149 53c-35 33 -61 87 -61 150c0 44 12 89 35 129c19 33 46 66 75 99zM297 56c60 0 99 21 122 44c24 24 48 65 48 131
c0 29 -5 67 -39 99c-29 27 -73 39 -110 39c-40 0 -82 -16 -114 -47c-30 -29 -51 -75 -51 -126c0 -37 13 -72 38 -98c30 -32 67 -42 106 -42z" />
    <glyph glyph-name="seven" unicode="7" horiz-adv-x="568" 
d="M51 23l450 576h-361l8 68h490l-530 -683z" />
    <glyph glyph-name="eight" unicode="8" horiz-adv-x="568" 
d="M429 345c32 -15 50 -38 57 -48c19 -28 26 -59 26 -90c0 -80 -31 -130 -61 -160c-49 -49 -105 -60 -161 -60c-46 0 -101 9 -142 52c-33 34 -48 84 -48 132c0 38 12 86 36 118c21 28 54 50 87 61c-20 13 -35 30 -44 46c-16 27 -20 54 -20 79c0 78 32 125 54 148
c43 44 96 55 143 55c39 0 90 -8 129 -48c40 -41 44 -92 44 -122c0 -33 -6 -68 -28 -102c-13 -20 -35 -45 -72 -61zM335 377c32 0 65 11 87 32c20 19 36 50 36 94c0 24 -5 55 -30 79c-24 24 -55 28 -79 28c-33 0 -60 -8 -83 -31c-22 -21 -38 -56 -38 -96c0 -39 16 -62 28 -75
c14 -15 39 -31 79 -31zM294 56c29 0 69 3 102 35c25 24 41 64 41 106c0 53 -26 80 -37 89c-15 13 -42 27 -86 27c-37 0 -71 -9 -99 -39c-22 -24 -39 -59 -39 -101c0 -36 12 -66 31 -85c25 -25 58 -32 87 -32z" />
    <glyph glyph-name="nine" unicode="9" horiz-adv-x="568" 
d="M228 -16l-51 41l175 208c-68 -14 -148 12 -196 60c-39 40 -51 86 -51 132c0 87 34 147 71 184c51 51 113 69 178 69c81 0 133 -32 162 -61c39 -39 53 -85 53 -138c0 -43 -7 -77 -26 -116c-22 -45 -49 -75 -79 -109zM347 610c-42 0 -82 -10 -116 -44
c-29 -28 -51 -74 -51 -135c0 -27 7 -62 34 -91c23 -24 62 -43 111 -43c58 0 97 27 120 51c28 30 49 76 49 124c0 50 -22 83 -44 102c-20 18 -53 36 -103 36z" />
    <glyph glyph-name="colon" unicode=":" horiz-adv-x="229" 
d="M69 33c0 21 11 34 16 39c10 11 25 16 39 16s25 -5 33 -13s13 -20 13 -34c0 -10 -3 -26 -19 -40c-11 -9 -23 -13 -36 -13c-17 0 -28 7 -34 13s-12 17 -12 32zM110 370c0 21 11 34 16 39c10 11 25 16 39 16s25 -5 33 -13s13 -20 13 -34c0 -10 -3 -26 -19 -40
c-11 -9 -23 -13 -36 -13c-17 0 -28 7 -34 13s-12 17 -12 32z" />
    <glyph glyph-name="semicolon" unicode=";" horiz-adv-x="274" 
d="M8 -133l110 231l63 -24l-129 -226zM123 370c0 21 11 34 16 39c10 11 25 16 39 16s25 -5 33 -13s13 -20 13 -34c0 -10 -3 -26 -19 -40c-11 -9 -23 -13 -36 -13c-17 0 -28 7 -34 13s-12 17 -12 32z" />
    <glyph glyph-name="less" unicode="&#x3c;" 
d="M163 330l357 -162v-72l-434 203v62l434 203v-72z" />
    <glyph glyph-name="equal" unicode="=" 
d="M75 384v66h434v-66h-434zM75 230v66h434v-66h-434z" />
    <glyph glyph-name="greater" unicode="&#x3e;" 
d="M418 330l-357 162v72l434 -203v-62l-434 -203v72z" />
    <glyph glyph-name="question" unicode="?" horiz-adv-x="438" 
d="M323 289h72c0 -41 -15 -84 -42 -112c-18 -18 -52 -41 -109 -41c-26 0 -69 4 -103 37c-25 25 -34 55 -34 87c0 47 18 82 40 104c27 28 66 42 104 53l33 10c13 4 42 14 62 36c10 11 24 32 24 66c0 36 -17 54 -26 62c-14 12 -35 19 -59 19c-30 0 -51 -11 -65 -25
c-19 -19 -27 -50 -27 -80c0 -9 1 -17 2 -25h-74c-1 9 -1 17 -1 25c0 68 28 107 49 128c39 38 84 45 122 45c34 0 81 -6 115 -40c18 -18 38 -49 38 -104c0 -44 -12 -81 -43 -113c-23 -24 -57 -43 -87 -52l-44 -14c-26 -8 -50 -15 -69 -34c-9 -10 -21 -27 -21 -53
c0 -24 9 -40 19 -48c12 -11 32 -16 50 -16c27 0 44 10 53 19c15 16 21 44 21 66zM173 30c0 21 11 34 16 39c10 11 25 16 39 16s25 -5 33 -13s13 -20 13 -34c0 -10 -3 -26 -19 -40c-11 -9 -23 -13 -36 -13c-17 0 -28 7 -34 13s-12 17 -12 32z" />
    <glyph glyph-name="at" unicode="@" horiz-adv-x="737" 
d="M534 427l21 64h52l-66 -210c-4 -14 -12 -40 -12 -55c0 -12 1 -21 10 -29c7 -7 15 -9 24 -9c23 0 48 12 67 29c43 40 69 115 69 186c0 77 -30 131 -71 167c-36 31 -93 58 -171 58c-116 0 -192 -51 -237 -97c-67 -69 -95 -159 -95 -239c0 -64 22 -134 67 -181
c46 -47 123 -76 214 -76c40 0 126 6 205 46l9 -46c-26 -13 -103 -48 -231 -48c-96 0 -172 26 -235 91c-51 53 -80 118 -80 206c0 110 44 209 108 276c51 53 142 116 279 116c102 0 171 -38 213 -80c41 -41 73 -100 73 -181c0 -59 -19 -164 -80 -224
c-29 -28 -67 -47 -104 -47c-21 0 -38 5 -54 20c-15 14 -21 29 -21 47c-14 -21 -31 -38 -49 -49c-25 -16 -51 -22 -78 -22c-33 0 -65 9 -91 35c-18 18 -38 51 -38 106c0 60 25 124 69 169c39 39 82 54 126 54c35 0 62 -12 78 -27c14 -13 24 -32 29 -50zM372 194
c30 0 55 10 80 34c35 35 55 91 55 136c0 31 -11 52 -24 65s-35 21 -55 21c-32 0 -66 -14 -90 -40c-30 -32 -47 -83 -47 -123c0 -42 17 -65 28 -75c15 -13 32 -18 53 -18z" />
    <glyph glyph-name="A" unicode="A" horiz-adv-x="622" 
d="M534 0l-55 188h-284l-103 -188h-84l393 699l213 -699h-80zM233 258h226l-80 267z" />
    <glyph glyph-name="B" unicode="B" horiz-adv-x="532" 
d="M168 667h109c90 0 141 -27 166 -53c23 -23 39 -60 39 -106c0 -31 -8 -69 -23 -96c-10 -18 -30 -41 -62 -56c22 -9 48 -24 67 -43c30 -31 41 -67 41 -111c0 -71 -27 -118 -61 -147c-58 -50 -139 -55 -184 -55h-174zM233 597l-27 -223h48c37 0 84 4 118 34
c30 26 36 61 36 89c0 19 -4 55 -37 78c-22 16 -58 22 -89 22h-49zM198 308l-29 -238h90c42 0 95 7 125 29c24 17 46 50 46 99c0 37 -12 69 -49 90c-31 18 -71 20 -108 20h-75z" />
    <glyph glyph-name="C" unicode="C" horiz-adv-x="650" 
d="M675 612l-11 -92c-18 20 -43 43 -78 61c-39 20 -74 27 -113 27c-87 0 -163 -33 -217 -87c-54 -55 -87 -133 -87 -214s33 -141 70 -180c48 -50 104 -69 168 -69c51 0 94 11 127 28c27 14 61 38 84 59l-11 -92c-26 -18 -61 -38 -85 -47c-30 -11 -78 -18 -120 -18
c-98 0 -173 33 -227 88c-61 62 -84 138 -84 223c0 147 68 235 112 278c80 78 172 101 270 101c38 0 88 -5 131 -23c21 -9 49 -26 71 -43z" />
    <glyph glyph-name="D" unicode="D" horiz-adv-x="636" 
d="M86 0l82 667h121c75 0 181 -11 257 -83c41 -40 81 -106 81 -216c0 -77 -18 -185 -97 -266c-82 -84 -188 -102 -315 -102h-129zM233 597l-64 -527h49c109 0 193 18 254 79c67 67 77 161 77 213c0 53 -11 116 -60 166c-62 64 -144 69 -191 69h-65z" />
    <glyph glyph-name="E" unicode="E" horiz-adv-x="482" 
d="M514 667l-9 -70h-272l-24 -198h264l-9 -70h-264l-31 -259h272l-9 -70h-346l82 667h346z" />
    <glyph glyph-name="F" unicode="F" horiz-adv-x="434" 
d="M472 667l-9 -70h-230l-24 -197h222l-8 -70h-222l-41 -330h-74l82 667h304z" />
    <glyph glyph-name="G" unicode="G" horiz-adv-x="760" 
d="M465 265l8 70h278l-2 -16c-8 -62 -26 -155 -98 -232c-68 -73 -152 -99 -244 -99c-84 0 -164 24 -228 88c-49 49 -88 121 -88 223c0 119 49 211 110 272c80 81 172 107 275 107c64 0 120 -11 175 -46c47 -29 76 -66 95 -99l-61 -50c-18 36 -43 65 -81 89
c-39 25 -78 36 -129 36c-109 0 -180 -45 -219 -83c-61 -61 -89 -149 -89 -224c0 -67 26 -131 69 -175c53 -55 118 -68 178 -68c55 0 122 10 178 68c38 38 61 91 71 139h-198z" />
    <glyph glyph-name="H" unicode="H" horiz-adv-x="662" 
d="M242 667l-33 -271h342l33 271h74l-82 -667h-74l40 326h-342l-40 -326h-74l82 667h74z" />
    <glyph glyph-name="I" unicode="I" horiz-adv-x="246" 
d="M168 667h74l-82 -667h-74z" />
    <glyph glyph-name="J" unicode="J" horiz-adv-x="299" 
d="M221 667h74l-59 -482c-8 -66 -20 -121 -55 -156c-14 -14 -49 -41 -116 -41c-24 0 -45 4 -67 15c-16 8 -32 19 -46 34l48 58c9 -11 19 -18 30 -25c14 -8 25 -12 43 -12c20 0 37 5 52 20s29 43 37 107z" />
    <glyph glyph-name="K" unicode="K" horiz-adv-x="568" 
d="M242 667l-35 -286l319 286h100l-354 -312l278 -355h-98l-235 306l-22 -19l-35 -287h-74l82 667h74z" />
    <glyph glyph-name="L" unicode="L" horiz-adv-x="358" 
d="M168 667h74l-73 -597h184l-9 -70h-258z" />
    <glyph glyph-name="M" unicode="M" horiz-adv-x="863" 
d="M140 0h-77l197 704l187 -563l331 564l17 -705h-75l-6 464l-287 -492l-164 492z" />
    <glyph glyph-name="N" unicode="N" horiz-adv-x="766" 
d="M160 0h-74l85 695l453 -547l64 519h74l-86 -697l-453 547z" />
    <glyph glyph-name="O" unicode="O" horiz-adv-x="800" 
d="M399 -12c-73 0 -156 19 -222 87c-41 42 -86 114 -86 221c0 137 60 226 114 277c73 70 163 105 274 105c73 0 155 -16 224 -84c43 -42 88 -112 88 -218c0 -103 -37 -210 -112 -283c-58 -56 -153 -105 -280 -105zM471 608c-85 0 -159 -31 -211 -79
c-47 -44 -92 -117 -92 -219c0 -82 30 -144 69 -184c35 -36 89 -68 170 -68c90 0 167 32 216 80c59 57 91 145 91 224c0 75 -29 137 -70 178c-33 33 -88 68 -173 68z" />
    <glyph glyph-name="P" unicode="P" horiz-adv-x="457" 
d="M168 667h121c68 0 127 -18 161 -51c27 -26 46 -70 46 -126c0 -65 -25 -114 -54 -142c-28 -27 -82 -58 -189 -58h-57l-36 -290h-74zM233 597l-29 -237h63c36 0 85 4 120 36c20 18 36 48 36 92c0 45 -18 71 -37 85c-27 21 -68 24 -98 24h-55z" />
    <glyph glyph-name="Q" unicode="Q" horiz-adv-x="800" 
d="M658 -7l-44 52c-65 -41 -130 -57 -206 -57c-82 0 -166 21 -232 90c-46 48 -85 123 -85 220c0 92 31 195 111 274c52 51 138 106 271 106c83 0 161 -23 226 -85c67 -64 92 -141 92 -225c0 -64 -13 -120 -34 -164c-7 -15 -33 -65 -88 -112l81 -99h-92zM516 268l104 -121
c22 19 45 44 61 71c25 42 33 86 33 131c0 82 -28 142 -67 184c-38 42 -94 75 -175 75c-79 0 -154 -29 -213 -85c-76 -73 -91 -158 -91 -218c0 -74 28 -137 69 -179c48 -50 109 -68 179 -68c58 0 104 14 149 44l-141 166h92z" />
    <glyph glyph-name="R" unicode="R" horiz-adv-x="505" 
d="M168 667h107c55 0 118 -3 167 -49c39 -36 48 -80 48 -119c0 -53 -12 -103 -53 -142c-36 -35 -91 -55 -140 -59l175 -298h-90l-167 292h-19l-36 -292h-74zM233 597l-29 -239h47c31 0 87 2 124 35c20 18 39 51 39 95c0 51 -25 78 -45 90s-64 19 -94 19h-42z" />
    <glyph glyph-name="S" unicode="S" horiz-adv-x="518" 
d="M513 574l-63 -39c-8 23 -22 40 -37 52c-25 19 -52 21 -75 21c-25 0 -57 -4 -84 -28c-20 -18 -35 -48 -35 -79c0 -21 8 -43 28 -61c13 -12 42 -28 56 -35l60 -28c31 -14 61 -32 85 -57c38 -39 45 -74 45 -117c0 -39 -7 -100 -56 -151c-56 -58 -126 -64 -173 -64
c-54 0 -98 10 -138 50c-29 30 -51 74 -56 122l74 20c2 -34 15 -65 36 -87c29 -30 62 -35 95 -35c32 0 73 5 104 37c25 26 36 65 36 97c0 40 -18 69 -36 85c-13 12 -44 30 -65 40l-53 25c-18 8 -57 28 -79 51c-18 19 -38 51 -38 103c0 47 14 89 52 126c42 41 91 56 147 56
c29 0 74 -4 110 -28c26 -17 48 -45 60 -76z" />
    <glyph glyph-name="T" unicode="T" horiz-adv-x="426" 
d="M485 597h-162l-73 -597h-74l73 597h-162l9 70h398z" />
    <glyph glyph-name="U" unicode="U" horiz-adv-x="646" 
d="M242 667l-48 -392c-4 -30 -7 -54 -7 -80c0 -37 12 -73 43 -101c35 -32 73 -36 112 -36c33 0 86 2 126 47c38 43 45 112 50 153l50 409h74l-53 -429c-9 -73 -21 -136 -78 -190s-124 -60 -177 -60c-62 0 -117 12 -163 56c-31 30 -58 74 -58 138c0 21 5 83 7 101l48 384h74z
" />
    <glyph glyph-name="V" unicode="V" horiz-adv-x="556" 
d="M90 667h81l125 -509l251 509h83l-357 -707z" />
    <glyph glyph-name="W" unicode="W" horiz-adv-x="958" 
d="M90 667h81l115 -500l274 534l133 -534l256 500h83l-366 -702l-131 534l-275 -534z" />
    <glyph glyph-name="X" unicode="X" horiz-adv-x="502" 
d="M14 0l239 345l-139 322h82l107 -251l173 251h84l-223 -322l151 -345h-82l-119 274l-189 -274h-84z" />
    <glyph glyph-name="Y" unicode="Y" horiz-adv-x="530" 
d="M227 0l35 287l-172 380h84l133 -298l209 298h88l-268 -380l-35 -287h-74z" />
    <glyph glyph-name="Z" unicode="Z" horiz-adv-x="536" 
d="M594 667l-437 -597h354l-9 -70h-478l437 597h-317l9 70h441z" />
    <glyph glyph-name="bracketleft" unicode="[" horiz-adv-x="289" 
d="M328 663h-96l-94 -767h96l-8 -66h-168l111 899h168z" />
    <glyph glyph-name="backslash" unicode="\" horiz-adv-x="588" 
d="M569 -170l-57 -28l-404 927l58 30z" />
    <glyph glyph-name="bracketright" unicode="]" horiz-adv-x="289" 
d="M28 -104h96l94 767h-96l9 66h168l-111 -899h-168z" />
    <glyph glyph-name="asciicircum" unicode="^" 
d="M295 612l-146 -247h-78l177 302h94l177 -302h-78z" />
    <glyph glyph-name="underscore" unicode="_" 
d="M0 -132v64h500v-64h-500z" />
    <glyph glyph-name="grave" unicode="`" 
d="M310 497l-118 135l78 34l87 -145z" />
    <glyph glyph-name="a" unicode="a" horiz-adv-x="528" 
d="M432 356l7 59h72l-51 -415h-72l7 58c-13 -18 -31 -37 -52 -49c-30 -17 -61 -21 -86 -21c-50 0 -96 10 -135 51c-31 33 -54 80 -54 148c0 85 33 147 72 184s87 54 149 54c28 0 58 -4 88 -20c25 -13 42 -29 55 -49zM295 361c-46 0 -79 -19 -100 -39
c-31 -29 -53 -79 -53 -130c0 -41 15 -83 43 -109c25 -24 55 -31 84 -31c45 0 79 15 103 41c30 31 47 84 47 135c0 56 -25 87 -39 100c-17 16 -44 33 -85 33z" />
    <glyph glyph-name="b" unicode="b" horiz-adv-x="528" 
d="M147 60l-7 -60h-72l90 729h72l-46 -372c14 19 34 37 54 48c25 14 51 20 83 20c48 0 97 -11 136 -49c47 -46 54 -107 54 -141c0 -74 -25 -143 -72 -189s-98 -58 -150 -58c-28 0 -61 4 -92 22c-28 17 -44 40 -50 50zM290 52c44 0 75 19 94 37c36 35 53 91 53 134
s-16 79 -38 101c-22 23 -54 37 -90 37c-27 0 -64 -7 -98 -40c-32 -31 -52 -79 -52 -126c0 -44 16 -82 42 -108c19 -19 48 -35 89 -35z" />
    <glyph glyph-name="c" unicode="c" horiz-adv-x="440" 
d="M442 385l-10 -86c-14 16 -34 34 -52 44c-20 11 -48 18 -75 18c-46 0 -82 -16 -111 -43c-27 -26 -53 -67 -53 -126c0 -52 21 -85 40 -104c28 -28 62 -36 96 -36c29 0 52 5 77 18c27 14 45 32 58 47l-10 -86c-20 -15 -40 -26 -60 -32c-24 -8 -50 -11 -74 -11
c-51 0 -103 11 -146 55c-36 37 -55 88 -55 145c0 63 26 129 72 174c27 27 81 63 168 63c42 0 91 -10 135 -40z" />
    <glyph glyph-name="d" unicode="d" horiz-adv-x="528" 
d="M432 356l46 373h72l-90 -729h-72l7 58c-16 -24 -37 -41 -58 -52c-25 -13 -52 -18 -81 -18c-46 0 -89 11 -127 47c-31 30 -61 81 -61 153c0 67 27 137 72 180c35 34 88 57 148 57c26 0 64 -7 90 -20c19 -10 39 -27 54 -49zM291 361c-35 0 -68 -10 -97 -37
c-28 -26 -52 -71 -52 -129c0 -53 21 -87 39 -106c28 -30 61 -37 92 -37c32 0 67 6 98 36c34 34 48 90 48 131c0 42 -14 80 -38 106c-25 27 -57 36 -90 36z" />
    <glyph glyph-name="e" unicode="e" horiz-adv-x="483" 
d="M395 139l61 -33c-19 -32 -49 -67 -77 -86c-41 -27 -85 -32 -120 -32c-49 0 -96 9 -137 52c-25 26 -55 72 -55 149c0 71 27 134 71 178c43 43 90 58 145 58c70 0 111 -25 135 -49c30 -31 58 -88 47 -183h-323c-1 -59 19 -92 37 -110c24 -24 52 -31 82 -31c24 0 53 4 80 23
c21 15 42 42 54 64zM154 253h242c-1 30 -14 62 -35 82c-23 22 -53 26 -76 26c-37 0 -66 -10 -91 -35c-18 -18 -33 -44 -40 -73z" />
    <glyph glyph-name="f" unicode="f" horiz-adv-x="240" 
d="M287 349h-102l-43 -349h-72l43 349h-40l8 66h40l22 181c4 35 10 78 42 110c27 27 60 34 91 34c20 0 40 -3 58 -9l-9 -70c-14 5 -31 9 -44 9c-24 0 -38 -10 -44 -16c-11 -11 -19 -30 -23 -66l-21 -173h102z" />
    <glyph glyph-name="g" unicode="g" horiz-adv-x="526" 
d="M430 356l7 59h72l-49 -405c-8 -65 -16 -130 -65 -180c-27 -28 -77 -60 -162 -60c-72 0 -115 24 -140 49c-45 46 -47 110 -47 135v6h71v-4c0 -29 3 -65 33 -93c26 -24 59 -29 86 -29c54 0 87 19 105 37c37 36 42 89 46 127l6 60c-9 -14 -27 -36 -59 -52
c-23 -11 -51 -18 -80 -18c-59 0 -104 18 -137 53c-43 44 -52 98 -52 141c0 67 23 137 67 182c29 30 77 61 154 61c21 0 60 -2 92 -20c17 -9 37 -25 52 -49zM294 361c-39 0 -72 -12 -100 -38c-34 -32 -54 -80 -54 -136c0 -44 15 -80 37 -102c24 -24 54 -33 85 -33
c50 0 83 19 102 36c36 33 53 92 53 138c0 34 -12 74 -36 100c-18 19 -45 35 -87 35z" />
    <glyph glyph-name="h" unicode="h" horiz-adv-x="469" 
d="M68 0l90 729h72l-45 -362c2 3 20 25 42 39c26 16 54 19 76 19c30 0 69 -6 100 -36c28 -28 33 -62 33 -93c0 -21 -3 -44 -6 -69l-28 -227h-72l25 207c2 17 6 52 6 71c0 17 -2 43 -21 62c-12 12 -32 21 -58 21c-32 0 -58 -12 -74 -29c-28 -29 -36 -78 -41 -115l-27 -217
h-72z" />
    <glyph glyph-name="i" unicode="i" horiz-adv-x="208" 
d="M119 415h72l-51 -415h-72zM123 566c0 15 6 29 14 38c8 10 23 19 43 19c14 0 24 -4 32 -12c9 -9 13 -20 13 -33c0 -18 -7 -31 -16 -40c-13 -14 -29 -17 -40 -17c-13 0 -24 4 -34 14c-8 8 -12 19 -12 31z" />
    <glyph glyph-name="j" unicode="j" horiz-adv-x="207" 
d="M119 415h72l-80 -645h-72zM122 566c0 15 6 29 14 38c8 10 23 19 43 19c14 0 24 -4 32 -12c9 -9 13 -20 13 -33c0 -18 -7 -31 -16 -40c-13 -14 -29 -17 -40 -17c-13 0 -24 4 -34 14c-8 8 -12 19 -12 31z" />
    <glyph glyph-name="k" unicode="k" horiz-adv-x="422" 
d="M158 729h72l-58 -468l171 154h94l-202 -178l181 -237h-92l-143 189l-20 -18l-21 -171h-72z" />
    <glyph glyph-name="l" unicode="l" horiz-adv-x="208" 
d="M158 729h72l-90 -729h-72z" />
    <glyph glyph-name="m" unicode="m" horiz-adv-x="684" 
d="M68 0l51 415h72l-5 -44c10 15 22 28 40 38c22 12 41 16 64 16c24 0 50 -5 69 -17c18 -11 34 -32 42 -50c11 20 27 36 44 47c24 15 51 20 78 20c34 0 69 -8 97 -35c26 -25 33 -55 33 -85c0 -22 -4 -47 -8 -83l-27 -222h-72l28 222c3 23 6 43 6 62c0 14 -2 39 -20 57
c-8 8 -24 20 -52 20c-27 0 -48 -11 -62 -24c-26 -25 -34 -62 -39 -106l-28 -231h-72l30 246c4 29 9 69 -17 95c-10 11 -27 20 -53 20c-23 0 -43 -8 -59 -24c-29 -29 -36 -75 -40 -111l-28 -226h-72z" />
    <glyph glyph-name="n" unicode="n" horiz-adv-x="469" 
d="M68 0l51 415h72l-6 -48c2 3 20 25 42 39c26 16 54 19 77 19c30 0 69 -6 99 -36c28 -28 33 -62 33 -93c0 -21 -3 -44 -6 -69l-28 -227h-72l25 207c2 17 6 52 6 71c0 17 -2 43 -21 62c-12 12 -32 21 -58 21c-32 0 -58 -12 -74 -29c-28 -29 -36 -78 -41 -115l-27 -217h-72z
" />
    <glyph glyph-name="o" unicode="o" horiz-adv-x="528" 
d="M268 -12c-59 0 -108 15 -148 57c-29 31 -53 78 -53 145c0 60 20 122 75 173c46 42 99 62 166 62c68 0 117 -22 152 -57c42 -42 51 -93 51 -136c0 -90 -37 -148 -70 -180c-53 -52 -117 -64 -173 -64zM307 361c-28 0 -73 -7 -113 -46c-35 -34 -53 -80 -53 -130
c0 -47 20 -77 36 -94c15 -16 45 -39 96 -39c52 0 89 22 113 48c31 33 50 83 50 131c0 42 -16 73 -34 92c-21 22 -54 38 -95 38z" />
    <glyph glyph-name="p" unicode="p" horiz-adv-x="528" 
d="M147 58l-36 -288h-72l80 645h72l-7 -58c19 25 41 40 58 49c28 15 55 19 85 19c36 0 88 -7 130 -48c32 -31 54 -76 54 -143c0 -79 -29 -149 -73 -192c-46 -45 -97 -54 -149 -54c-27 0 -63 3 -95 23c-19 12 -36 30 -47 47zM287 52c34 0 66 9 94 35c38 35 56 91 56 142
c0 50 -20 81 -36 97c-18 19 -47 35 -92 35s-77 -16 -103 -44c-30 -32 -46 -78 -46 -126c0 -32 7 -68 34 -99c26 -29 58 -40 93 -40z" />
    <glyph glyph-name="q" unicode="q" horiz-adv-x="529" 
d="M433 356l7 59h72l-80 -645h-72l36 288c-11 -15 -29 -36 -58 -51c-32 -16 -61 -19 -88 -19c-50 0 -94 11 -132 52c-42 44 -50 98 -50 138c0 75 27 145 72 189c49 48 108 58 159 58c30 0 56 -4 85 -21c23 -13 38 -29 49 -48zM294 361c-38 0 -71 -11 -99 -40
c-35 -36 -52 -92 -52 -142c0 -48 18 -77 34 -94c23 -24 51 -33 86 -33c38 0 74 10 105 41c34 34 52 84 52 133s-18 80 -34 97c-18 20 -47 38 -92 38z" />
    <glyph glyph-name="r" unicode="r" horiz-adv-x="296" 
d="M68 0l51 415h72l-6 -45c8 13 21 28 42 40c20 11 38 15 60 15c25 0 44 -6 61 -17l-42 -65c-8 6 -21 14 -43 14c-20 0 -39 -6 -55 -22c-29 -28 -36 -75 -41 -116l-27 -219h-72z" />
    <glyph glyph-name="s" unicode="s" horiz-adv-x="350" 
d="M339 350l-63 -31c-4 13 -11 22 -17 28c-11 11 -22 14 -36 14c-15 0 -28 -3 -40 -13c-11 -10 -16 -23 -16 -37s6 -23 12 -29c10 -10 26 -17 41 -24l38 -19c16 -8 40 -24 53 -37c20 -22 27 -47 27 -74c0 -38 -13 -72 -35 -96c-37 -40 -89 -44 -119 -44s-59 4 -87 27
c-23 19 -41 48 -49 79l63 26c4 -15 13 -36 25 -49c14 -14 31 -19 50 -19c13 0 37 1 56 18c14 13 21 33 21 53c0 18 -8 32 -22 43c-7 6 -29 18 -43 25l-23 11c-17 8 -42 23 -55 38c-17 19 -23 41 -23 65c0 38 16 66 35 85c29 29 62 35 94 35c26 0 50 -5 75 -25
c16 -13 30 -31 38 -50z" />
    <glyph glyph-name="t" unicode="t" horiz-adv-x="214" 
d="M257 349h-72l-43 -349h-72l43 349h-44l8 66h44l18 150h72l-18 -150h72z" />
    <glyph glyph-name="u" unicode="u" horiz-adv-x="465" 
d="M190 415l-27 -219c-2 -19 -4 -34 -4 -54c0 -27 3 -50 25 -69c16 -14 39 -21 62 -21c29 0 52 11 67 25c24 24 29 61 35 108l28 230h72l-29 -238c-7 -55 -14 -108 -51 -146c-38 -38 -89 -43 -120 -43c-56 0 -94 14 -121 38c-32 28 -41 63 -41 105c0 20 4 53 6 71l26 213h72
z" />
    <glyph glyph-name="v" unicode="v" horiz-adv-x="424" 
d="M59 415h78l90 -280l158 280h82l-258 -442z" />
    <glyph glyph-name="w" unicode="w" horiz-adv-x="682" 
d="M59 415h78l88 -282l169 314l90 -314l159 282h82l-261 -444l-89 310l-167 -310z" />
    <glyph glyph-name="x" unicode="x" horiz-adv-x="452" 
d="M8 0l204 222l-127 193h86l90 -141l126 141h88l-176 -194l145 -221h-86l-110 169l-152 -169h-88z" />
    <glyph glyph-name="y" unicode="y" horiz-adv-x="460" 
d="M39 -230l165 269l-145 376h80l110 -297l172 297h82l-384 -645h-80z" />
    <glyph glyph-name="z" unicode="z" horiz-adv-x="460" 
d="M503 415l-343 -349h288l-8 -66h-432l343 349h-242l8 66h386z" />
    <glyph glyph-name="braceleft" unicode="{" horiz-adv-x="503" 
d="M342 581l-23 -189c-3 -25 -7 -46 -21 -69c-16 -25 -36 -37 -54 -44c17 -7 29 -18 36 -29c11 -16 14 -32 14 -48c0 -12 -2 -24 -3 -36l-22 -182c-2 -13 -4 -28 -4 -42c0 -16 3 -33 22 -43c14 -8 33 -8 51 -8h15l-8 -61h-27c-29 0 -65 2 -90 19c-32 21 -37 53 -37 78
c0 17 4 48 5 55l22 166c2 14 3 26 3 36c0 28 -7 40 -14 48c-11 13 -24 17 -34 18l7 58c20 4 38 15 48 28c13 16 17 39 20 61l24 196c4 29 13 82 58 113c32 22 68 23 99 23h27l-7 -61h-15c-17 0 -46 -1 -64 -16c-23 -19 -26 -50 -28 -71z" />
    <glyph glyph-name="bar" unicode="|" 
d="M214 -250v1000h72v-1000h-72z" />
    <glyph glyph-name="braceright" unicode="}" horiz-adv-x="503" 
d="M222 -22l23 188c3 22 7 48 22 72c16 25 37 36 53 41c-12 6 -25 15 -34 27c-13 17 -15 34 -15 50c0 11 1 28 5 64l16 134c5 39 5 51 5 55c0 16 -3 35 -19 47c-14 10 -38 12 -53 12h-15l7 61h27c33 0 70 -4 91 -19c18 -12 36 -37 36 -83c0 -22 -3 -43 -6 -68l-17 -137
c-2 -18 -5 -31 -5 -50c0 -17 1 -36 17 -50c8 -7 19 -12 31 -14l-7 -58c-23 -2 -38 -13 -48 -27c-14 -19 -19 -50 -20 -62l-24 -195c-3 -26 -12 -73 -40 -101c-32 -31 -82 -35 -118 -35h-27l8 61h15c14 0 48 1 66 17s23 48 26 70z" />
    <glyph glyph-name="asciitilde" unicode="~" 
d="M483 361l41 -26c-15 -26 -36 -53 -59 -73c-29 -26 -59 -39 -101 -39c-38 0 -65 14 -108 36c-26 14 -58 30 -88 30c-20 0 -37 -7 -53 -20c-15 -13 -32 -36 -41 -52l-41 26c12 22 37 59 57 78c29 28 62 38 95 38c36 0 66 -13 115 -38c27 -14 54 -28 84 -28c24 0 42 7 59 21
c15 12 30 31 40 47z" />
    <glyph glyph-name="uni00A0" unicode="&#xa0;" horiz-adv-x="233" 
 />
    <glyph glyph-name="exclamdown" unicode="&#xa1;" horiz-adv-x="280" 
d="M150 302h72l-65 -532h-72zM147 392c0 21 11 34 16 39c10 11 25 16 39 16s25 -5 33 -13s13 -20 13 -34c0 -10 -3 -26 -19 -40c-11 -9 -23 -13 -36 -13c-17 0 -28 7 -34 13s-12 17 -12 32z" />
    <glyph glyph-name="cent" unicode="&#xa2;" horiz-adv-x="568" 
d="M514 518l-10 -86c-12 16 -29 31 -46 42s-34 16 -53 17l-37 -305c23 1 41 7 62 18c20 11 38 25 54 46l-10 -86c-46 -35 -90 -41 -114 -42l-13 -108h-60l13 110c-48 6 -83 28 -106 52c-36 37 -55 88 -55 145c0 63 26 130 72 174c26 26 74 58 143 62l12 98h60l-13 -100
c42 -4 76 -20 101 -37zM308 190l38 302c-23 -3 -60 -14 -92 -51c-24 -28 -41 -68 -41 -115c0 -37 10 -69 26 -90c14 -19 38 -37 69 -46z" />
    <glyph glyph-name="sterling" unicode="&#xa3;" horiz-adv-x="568" 
d="M549 458h-73c2 11 3 21 3 32c0 32 -9 63 -28 83c-18 19 -48 33 -86 33c-39 0 -74 -15 -94 -36c-18 -18 -32 -49 -32 -88c0 -17 3 -53 28 -119l19 -50h126l-7 -56h-107c4 -15 7 -32 7 -50c0 -22 -4 -60 -34 -105l56 -23c32 -13 54 -20 72 -20c22 0 38 8 53 23
c14 13 27 31 35 46l56 -36c-15 -27 -40 -59 -61 -75c-29 -23 -59 -28 -86 -28c-33 0 -57 7 -81 17l-29 12c-43 18 -68 23 -87 23c-22 0 -38 -8 -53 -20c-11 -9 -25 -24 -33 -34l-52 39c17 22 39 44 58 58c23 16 47 26 78 27c27 38 33 71 33 93c0 19 -2 35 -9 53h-112l7 56
h87l-13 37c-14 40 -29 84 -29 126c0 53 20 103 55 140c38 40 85 60 151 60c69 0 111 -25 135 -47c34 -31 51 -79 51 -129c0 -14 -1 -28 -4 -42z" />
    <glyph glyph-name="currency" unicode="&#xa4;" horiz-adv-x="667" 
d="M138 636l95 -94c49 42 107 51 145 51s96 -9 145 -51l95 94l40 -40l-95 -95c42 -49 51 -105 51 -142s-9 -93 -51 -142l94 -94l-40 -40l-94 93c-49 -42 -107 -51 -145 -51s-96 9 -145 51l-94 -93l-40 40l94 94c-42 49 -51 105 -51 142s9 93 51 142l-95 95zM378 189
c59 0 97 24 120 47c33 34 48 80 48 123c0 50 -20 94 -49 123c-26 26 -67 47 -119 47c-50 0 -92 -19 -120 -47s-48 -72 -48 -123c0 -35 9 -83 49 -123c34 -34 75 -47 119 -47z" />
    <glyph glyph-name="yen" unicode="&#xa5;" horiz-adv-x="568" 
d="M565 384h-141l-62 -88h192l-7 -56h-198l-29 -240h-74l29 240h-195l7 56h189l-40 88h-138l7 56h106l-103 227h85l133 -298l209 298h89l-161 -227h109z" />
    <glyph glyph-name="brokenbar" unicode="&#xa6;" 
d="M214 390v360h72v-360h-72zM214 -250v360h72v-360h-72z" />
    <glyph glyph-name="section" unicode="&#xa7;" horiz-adv-x="566" 
d="M530 540h-72c2 10 2 20 2 28c0 38 -14 60 -30 73c-12 10 -33 22 -68 22c-27 0 -54 -6 -76 -28c-17 -16 -29 -40 -29 -70c0 -32 14 -54 28 -67c22 -20 55 -31 82 -42l26 -11c26 -11 57 -29 75 -50c21 -24 35 -60 35 -106c0 -40 -10 -75 -34 -105c-19 -24 -47 -45 -81 -57
c18 -14 36 -33 46 -51c13 -22 17 -41 17 -67c0 -45 -9 -92 -49 -130c-27 -26 -71 -49 -136 -49c-35 0 -77 7 -112 39c-33 30 -52 78 -52 146h72c0 -27 5 -60 20 -82c22 -32 52 -37 77 -37c42 0 65 16 77 28c17 17 28 42 28 72c0 28 -11 48 -23 60c-8 9 -25 22 -67 40l-33 14
c-15 6 -55 25 -82 54c-20 22 -39 56 -39 106c0 40 13 78 32 103c18 24 49 48 87 61c-59 39 -66 93 -66 123c0 55 21 94 50 122c41 40 92 50 136 50c34 0 80 -7 115 -41c25 -24 45 -62 45 -122c0 -8 0 -17 -1 -26zM325 389c-42 0 -70 -15 -87 -33c-18 -19 -31 -50 -31 -84
c0 -29 9 -53 28 -72c25 -25 56 -29 79 -29c42 0 67 18 81 31c16 15 32 42 32 83s-17 64 -29 76c-23 24 -52 28 -73 28z" />
    <glyph glyph-name="dieresis" unicode="&#xa8;" 
d="M354 543c0 15 7 30 17 40c8 8 21 17 40 17c24 0 44 -18 44 -44c0 -13 -7 -29 -18 -40s-25 -16 -38 -16c-23 0 -45 17 -45 43zM180 543c0 15 7 30 17 40c8 8 21 17 40 17c24 0 44 -18 44 -44c0 -13 -7 -29 -18 -40s-25 -16 -38 -16c-23 0 -45 17 -45 43z" />
    <glyph glyph-name="copyright" unicode="&#xa9;" horiz-adv-x="740" 
d="M555 497v-80c-45 56 -108 58 -122 58c-44 0 -78 -18 -102 -44c-28 -31 -36 -65 -36 -99c0 -39 8 -73 37 -104c18 -20 51 -43 100 -43c51 0 96 25 126 61v-81c-48 -35 -92 -40 -124 -40c-54 0 -106 15 -149 57c-38 38 -59 90 -59 146c0 52 20 109 59 149
c30 30 78 58 148 58c38 0 81 -8 122 -38zM756 334c0 -113 -50 -191 -94 -238c-52 -55 -135 -107 -251 -107s-199 52 -251 107c-44 47 -94 125 -94 238c0 112 50 190 94 237c52 55 135 107 251 107s199 -52 251 -107c44 -47 94 -125 94 -237zM411 622
c-72 0 -151 -31 -203 -82c-56 -54 -86 -133 -86 -206c0 -74 30 -153 86 -207c52 -51 131 -82 203 -82s151 31 203 82c56 54 86 133 86 207c0 73 -30 152 -86 206c-52 51 -131 82 -203 82z" />
    <glyph glyph-name="ordfeminine" unicode="&#xaa;" horiz-adv-x="365" 
d="M334 627l4 34h51l-33 -266h-51l4 32c-10 -12 -21 -20 -34 -27c-19 -10 -35 -13 -54 -13c-43 0 -71 15 -89 32c-20 19 -36 47 -36 91c0 52 22 96 54 123c25 21 59 34 99 34c14 0 34 -2 52 -11c10 -5 22 -14 33 -29zM248 623c-23 0 -48 -7 -68 -27c-20 -19 -33 -50 -33 -80
c0 -22 8 -45 23 -61c13 -14 35 -24 61 -24c28 0 51 12 66 28c18 19 29 47 29 80c0 32 -13 51 -24 62s-29 22 -54 22zM84 333h265l-5 -42h-265z" />
    <glyph glyph-name="guillemotleft" unicode="&#xab;" horiz-adv-x="430" 
d="M138 212l102 -146l-50 -36l-128 182l173 188l42 -37zM286 212l102 -146l-50 -36l-128 182l173 188l42 -37z" />
    <glyph glyph-name="logicalnot" unicode="&#xac;" 
d="M480 0h-70v203h-364v64h434v-267z" />
    <glyph glyph-name="uni00AD" unicode="&#xad;" horiz-adv-x="320" 
d="M72 176l9 74h220l-9 -74h-220z" />
    <glyph glyph-name="registered" unicode="&#xae;" horiz-adv-x="740" 
d="M548 145h-68l-122 158v-158h-54v374h68c31 0 83 0 116 -35c16 -16 28 -42 28 -73c0 -33 -13 -58 -28 -72c-16 -16 -44 -27 -69 -31zM358 471v-120h22c22 0 48 1 65 17c14 13 17 29 17 43c0 12 -2 29 -13 41c-10 11 -29 19 -71 19h-20zM756 332c0 -113 -50 -191 -94 -238
c-52 -55 -135 -107 -251 -107s-199 52 -251 107c-44 47 -94 125 -94 238c0 112 50 190 94 237c52 55 135 107 251 107s199 -52 251 -107c44 -47 94 -125 94 -237zM411 620c-72 0 -151 -31 -203 -82c-56 -54 -86 -133 -86 -206c0 -74 30 -153 86 -207c52 -51 131 -82 203 -82
s151 31 203 82c56 54 86 133 86 207c0 73 -30 152 -86 206c-52 51 -131 82 -203 82z" />
    <glyph glyph-name="macron" unicode="&#xaf;" 
d="M162 513l7 60h302l-7 -60h-302z" />
    <glyph glyph-name="degree" unicode="&#xb0;" horiz-adv-x="495" 
d="M173 520c0 41 15 80 43 109c29 30 63 40 101 40c52 0 82 -18 99 -35c29 -28 35 -63 35 -93c0 -29 -4 -74 -42 -110c-33 -32 -75 -38 -105 -38c-49 0 -81 18 -100 39c-16 18 -31 47 -31 88zM223 522c0 -25 9 -47 22 -60c8 -9 27 -23 61 -23c29 0 50 10 65 25
c18 17 30 45 30 76c0 33 -15 52 -25 62c-7 6 -26 21 -60 21c-33 0 -53 -14 -65 -26c-18 -19 -28 -50 -28 -75z" />
    <glyph glyph-name="plusminus" unicode="&#xb1;" 
d="M62 345v66h181v171h72v-171h181v-66h-181v-171h-72v171h-181zM62 67v66h434v-66h-434z" />
    <glyph glyph-name="twosuperior" unicode="&#xb2;" horiz-adv-x="350" 
d="M329 267h-265l167 169c36 37 50 52 57 62c15 19 26 39 26 67c0 13 -3 30 -18 44c-16 15 -36 18 -54 18s-41 -4 -58 -22c-13 -14 -22 -39 -23 -60h-50c3 38 20 72 43 94c25 24 56 34 93 34c45 0 72 -16 87 -30c18 -17 32 -43 32 -75c0 -46 -23 -76 -42 -99
c-23 -27 -42 -45 -64 -67l-88 -89h163z" />
    <glyph glyph-name="threesuperior" unicode="&#xb3;" horiz-adv-x="350" 
d="M84 376h50c0 -17 7 -38 19 -51c15 -16 36 -19 52 -19c20 0 40 4 57 21c11 12 23 31 23 64c0 12 -1 32 -17 47s-38 16 -54 16h-5l5 46h7c16 0 45 2 63 21c10 10 17 27 17 48c0 17 -5 31 -14 41s-25 17 -46 17s-38 -7 -48 -17c-12 -12 -20 -33 -22 -47h-50
c5 29 20 63 39 81c27 26 64 29 83 29c46 0 71 -17 83 -28c22 -20 28 -46 28 -72c0 -22 -5 -43 -18 -61c-11 -15 -26 -27 -45 -35c11 -5 24 -14 34 -30c11 -18 13 -37 13 -51c0 -37 -12 -74 -37 -99c-32 -33 -71 -37 -100 -37c-30 0 -55 5 -78 25c-24 21 -38 55 -39 91z" />
    <glyph glyph-name="acute" unicode="&#xb4;" 
d="M394 666l70 -34l-151 -135l-42 24z" />
    <glyph glyph-name="mu" unicode="&#xb5;" horiz-adv-x="522" 
d="M111 -230h-72l79 645h72l-23 -188c-2 -14 -5 -56 -5 -69c0 -21 4 -54 30 -79c15 -14 40 -27 79 -27c35 0 63 10 88 34c29 28 42 68 50 131l24 198h72l-51 -415h-72l9 70c-11 -23 -29 -46 -46 -58c-28 -21 -59 -24 -82 -24c-26 0 -55 4 -81 28c-16 14 -28 35 -35 55z" />
    <glyph glyph-name="mu" unicode="&#x3bc;" horiz-adv-x="522" 
d="M111 -230h-72l79 645h72l-23 -188c-2 -14 -5 -56 -5 -69c0 -21 4 -54 30 -79c15 -14 40 -27 79 -27c35 0 63 10 88 34c29 28 42 68 50 131l24 198h72l-51 -415h-72l9 70c-11 -23 -29 -46 -46 -58c-28 -21 -59 -24 -82 -24c-26 0 -55 4 -81 28c-16 14 -28 35 -35 55z" />
    <glyph glyph-name="paragraph" unicode="&#xb6;" horiz-adv-x="581" 
d="M272 -95h-62l50 409h-15c-50 0 -92 18 -119 44c-25 24 -44 62 -44 111c0 48 17 101 54 137c53 53 127 61 189 61h268l-7 -58h-60l-87 -704h-62l87 704h-106z" />
    <glyph glyph-name="periodcentered" unicode="&#xb7;" horiz-adv-x="200" 
d="M78 333c0 19 9 38 22 51c15 16 33 20 47 20c18 0 34 -7 44 -18c8 -8 15 -20 15 -38c0 -17 -6 -36 -20 -50c-10 -10 -27 -22 -51 -22c-15 0 -28 4 -39 14c-10 10 -18 24 -18 43z" />
    <glyph glyph-name="cedilla" unicode="&#xb8;" 
d="M260 -52l62 -27l-116 -128l-46 24z" />
    <glyph glyph-name="onesuperior" unicode="&#xb9;" horiz-adv-x="350" 
d="M199 267l43 354h-78l30 46h106l-49 -400h-52z" />
    <glyph glyph-name="ordmasculine" unicode="&#xba;" horiz-adv-x="367" 
d="M254 667c41 0 77 -15 101 -40c18 -18 37 -50 37 -97c0 -42 -16 -73 -40 -97s-63 -44 -116 -44c-48 0 -79 18 -100 38c-17 17 -38 46 -38 92c0 45 20 84 48 109c27 25 65 39 108 39zM86 333h271l-5 -42h-271zM253 623c-35 0 -58 -11 -73 -25c-20 -18 -32 -48 -32 -76
c0 -24 8 -48 23 -64c12 -12 33 -25 68 -25c33 0 55 11 69 23c16 14 33 39 33 78c0 30 -11 50 -23 63c-20 22 -46 26 -65 26z" />
    <glyph glyph-name="guillemotright" unicode="&#xbb;" horiz-adv-x="430" 
d="M197 218l-102 146l50 36l128 -182l-173 -188l-42 37zM345 218l-102 146l50 36l128 -182l-173 -188l-42 37z" />
    <glyph glyph-name="onequarter" unicode="&#xbc;" horiz-adv-x="761" 
d="M199 267l43 354h-78l30 46h106l-49 -400h-52zM188 10l470 670l36 -22l-471 -671zM531 122h113l19 155zM731 422l-37 -300h49l-6 -46h-49l-9 -76h-50l9 76h-205z" />
    <glyph glyph-name="onehalf" unicode="&#xbd;" horiz-adv-x="761" 
d="M199 267l43 354h-78l30 46h106l-49 -400h-52zM148 10l470 670l36 -22l-471 -671zM707 0h-265l167 169c36 37 50 52 57 62c15 19 26 39 26 67c0 13 -3 30 -18 44c-16 15 -36 18 -54 18s-41 -4 -58 -22c-13 -14 -22 -39 -23 -60h-50c3 38 20 72 43 94c25 24 56 34 93 34
c45 0 72 -16 87 -30c18 -17 32 -43 32 -75c0 -46 -23 -76 -42 -99c-23 -27 -42 -45 -64 -67l-88 -89h163z" />
    <glyph glyph-name="threequarters" unicode="&#xbe;" horiz-adv-x="761" 
d="M84 376h50c0 -17 7 -38 19 -51c15 -16 36 -19 52 -19c20 0 40 4 57 21c11 12 23 31 23 64c0 12 -1 32 -17 47s-38 16 -54 16h-5l5 46h7c16 0 45 2 63 21c10 10 17 27 17 48c0 17 -5 31 -14 41s-25 17 -46 17s-38 -7 -48 -17c-12 -12 -20 -33 -22 -47h-50
c5 29 20 63 39 81c27 26 64 29 83 29c46 0 71 -17 83 -28c22 -20 28 -46 28 -72c0 -22 -5 -43 -18 -61c-11 -15 -26 -27 -45 -35c11 -5 24 -14 34 -30c11 -18 13 -37 13 -51c0 -37 -12 -74 -37 -99c-32 -33 -71 -37 -100 -37c-30 0 -55 5 -78 25c-24 21 -38 55 -39 91z
M208 10l470 670l36 -22l-471 -671zM731 422l-37 -300h49l-6 -46h-49l-9 -76h-50l9 76h-205zM531 122h113l19 155z" />
    <glyph glyph-name="questiondown" unicode="&#xbf;" horiz-adv-x="440" 
d="M177 147h-72c4 41 22 88 50 115c20 20 55 38 106 38c26 0 67 -4 99 -36c14 -14 35 -42 35 -90c0 -46 -18 -81 -41 -103c-21 -20 -53 -36 -101 -52l-46 -15c-30 -10 -48 -26 -58 -39c-9 -12 -18 -31 -18 -61c0 -16 4 -39 22 -57c11 -10 28 -21 56 -21c24 0 53 7 71 24
c9 8 28 31 28 82c0 7 0 16 -1 24h74v-8c0 -51 -10 -104 -45 -141c-22 -24 -63 -49 -134 -49c-41 0 -72 9 -102 36c-32 29 -44 63 -44 104c0 53 22 96 48 122c27 27 60 39 84 47l43 14c22 7 53 17 71 37c12 13 19 33 19 54c0 25 -11 39 -19 45c-12 10 -29 15 -48 15
c-31 0 -48 -13 -58 -26c-10 -14 -18 -39 -19 -59zM227 392c0 21 11 34 16 39c10 11 25 16 39 16s25 -5 33 -13s13 -20 13 -34c0 -10 -3 -26 -19 -40c-11 -9 -23 -13 -36 -13c-17 0 -28 7 -34 13s-12 17 -12 32z" />
    <glyph glyph-name="Agrave" unicode="&#xc0;" horiz-adv-x="622" 
d="M534 0l-55 188h-284l-103 -188h-84l393 699l213 -699h-80zM233 258h226l-80 267zM409 720l-138 117l75 45l110 -130z" />
    <glyph glyph-name="Aacute" unicode="&#xc1;" horiz-adv-x="622" 
d="M534 0l-55 188h-284l-103 -188h-84l393 699l213 -699h-80zM233 258h226l-80 267zM501 882l65 -45l-168 -117l-39 32z" />
    <glyph glyph-name="Acircumflex" unicode="&#xc2;" horiz-adv-x="622" 
d="M534 0l-55 188h-284l-103 -188h-84l393 699l213 -699h-80zM233 258h226l-80 267zM412 797l-97 -76l-51 41l154 119l126 -119l-53 -41z" />
    <glyph glyph-name="Atilde" unicode="&#xc3;" horiz-adv-x="622" 
d="M534 0l-55 188h-284l-103 -188h-84l393 699l213 -699h-80zM233 258h226l-80 267zM526 842l39 -35c-9 -19 -20 -31 -35 -44c-18 -15 -37 -28 -68 -28c-24 0 -41 8 -54 15l-21 12c-14 8 -26 15 -44 15c-13 0 -22 -3 -32 -14c-7 -7 -16 -20 -21 -30l-40 36
c10 16 25 36 40 48c20 17 41 24 64 24s43 -9 57 -17l25 -14c7 -4 21 -11 35 -11c9 0 22 3 34 14c8 8 16 19 21 29z" />
    <glyph glyph-name="Adieresis" unicode="&#xc4;" horiz-adv-x="622" 
d="M534 0l-55 188h-284l-103 -188h-84l393 699l213 -699h-80zM233 258h226l-80 267zM448 778c0 10 2 24 15 38s29 19 42 19c11 0 23 -4 32 -12c6 -6 13 -16 13 -31s-6 -31 -16 -42c-8 -8 -21 -17 -40 -17c-18 0 -29 8 -34 13c-7 7 -12 19 -12 32zM258 778c0 10 2 24 15 38
s29 19 42 19c11 0 23 -4 32 -12c6 -6 13 -16 13 -31s-6 -31 -16 -42c-8 -8 -21 -17 -40 -17c-18 0 -29 8 -34 13c-7 7 -12 19 -12 32z" />
    <glyph glyph-name="Aring" unicode="&#xc5;" horiz-adv-x="622" 
d="M534 0l-55 188h-284l-103 -188h-84l393 699l213 -699h-80zM233 258h226l-80 267zM319 809c0 29 13 55 29 71s37 26 67 26c33 0 51 -14 61 -24c6 -7 21 -25 21 -58c0 -28 -11 -52 -28 -69c-15 -14 -37 -25 -68 -25c-19 0 -40 4 -58 21c-11 11 -24 29 -24 58zM367 814
c0 -9 2 -18 10 -26c5 -5 14 -11 28 -11c11 0 23 4 32 12c8 7 14 19 14 33c0 13 -5 23 -12 29c-7 7 -18 10 -28 10c-12 0 -23 -4 -31 -12c-4 -4 -13 -15 -13 -35z" />
    <glyph glyph-name="AE" unicode="&#xc6;" horiz-adv-x="900" 
d="M538 0l-56 187h-284l-102 -187h-82l379 667h293l20 -70h-269l59 -198h264l20 -70h-262l77 -259h271l20 -70h-348zM239 257h223l-78 261z" />
    <glyph glyph-name="Ccedilla" unicode="&#xc7;" horiz-adv-x="650" 
d="M675 612l-11 -92c-18 20 -43 43 -78 61c-39 20 -74 27 -113 27c-87 0 -163 -33 -217 -87c-54 -55 -87 -133 -87 -214s33 -141 70 -180c48 -50 104 -69 168 -69c51 0 94 11 127 28c27 14 61 38 84 59l-11 -92c-26 -18 -61 -38 -85 -47c-30 -11 -78 -18 -120 -18
c-98 0 -173 33 -227 88c-61 62 -84 138 -84 223c0 147 68 235 112 278c80 78 172 101 270 101c38 0 88 -5 131 -23c21 -9 49 -26 71 -43zM378 -52l66 -30l-120 -128l-47 26z" />
    <glyph glyph-name="Egrave" unicode="&#xc8;" horiz-adv-x="482" 
d="M514 667l-9 -70h-272l-24 -198h264l-9 -70h-264l-31 -259h272l-9 -70h-346l82 667h346zM359 720l-138 117l75 45l110 -130z" />
    <glyph glyph-name="Eacute" unicode="&#xc9;" horiz-adv-x="482" 
d="M514 667l-9 -70h-272l-24 -198h264l-9 -70h-264l-31 -259h272l-9 -70h-346l82 667h346zM440 882l65 -45l-168 -117l-39 32z" />
    <glyph glyph-name="Ecircumflex" unicode="&#xca;" horiz-adv-x="482" 
d="M514 667l-9 -70h-272l-24 -198h264l-9 -70h-264l-31 -259h272l-9 -70h-346l82 667h346zM362 797l-97 -76l-51 41l154 119l126 -119l-53 -41z" />
    <glyph glyph-name="Edieresis" unicode="&#xcb;" horiz-adv-x="482" 
d="M514 667l-9 -70h-272l-24 -198h264l-9 -70h-264l-31 -259h272l-9 -70h-346l82 667h346zM400 778c0 10 2 24 15 38s29 19 42 19c11 0 23 -4 32 -12c6 -6 13 -16 13 -31s-6 -31 -16 -42c-8 -8 -21 -17 -40 -17c-18 0 -29 8 -34 13c-7 7 -12 19 -12 32zM210 778
c0 10 2 24 15 38s29 19 42 19c11 0 23 -4 32 -12c6 -6 13 -16 13 -31s-6 -31 -16 -42c-8 -8 -21 -17 -40 -17c-18 0 -29 8 -34 13c-7 7 -12 19 -12 32z" />
    <glyph glyph-name="Igrave" unicode="&#xcc;" horiz-adv-x="246" 
d="M168 667h74l-82 -667h-74zM212 720l-138 117l75 45l110 -130z" />
    <glyph glyph-name="Iacute" unicode="&#xcd;" horiz-adv-x="246" 
d="M168 667h74l-82 -667h-74zM318 882l65 -45l-168 -117l-39 32z" />
    <glyph glyph-name="Icircumflex" unicode="&#xce;" horiz-adv-x="246" 
d="M168 667h74l-82 -667h-74zM223 797l-97 -76l-51 41l154 119l126 -119l-53 -41z" />
    <glyph glyph-name="Idieresis" unicode="&#xcf;" horiz-adv-x="246" 
d="M168 667h74l-82 -667h-74zM234 778c0 15 5 32 18 44c9 9 20 13 33 13c9 0 20 -3 29 -12c8 -9 12 -22 12 -35c0 -17 -6 -30 -16 -41c-10 -10 -21 -14 -34 -14s-23 5 -30 12s-12 18 -12 33zM112 778c0 15 5 32 18 44c9 9 20 13 33 13c9 0 20 -3 29 -12c8 -9 12 -22 12 -35
c0 -17 -6 -30 -16 -41c-10 -10 -21 -14 -34 -14s-23 5 -30 12s-12 18 -12 33z" />
    <glyph glyph-name="Eth" unicode="&#xd0;" horiz-adv-x="634" 
d="M84 0l42 336h-86l8 64h86l32 267h121c75 0 181 -11 257 -83c41 -40 81 -106 81 -216c0 -77 -18 -185 -97 -266c-82 -84 -188 -102 -315 -102h-129zM231 597l-24 -197h136l-8 -64h-136l-32 -266h49c109 0 193 18 254 79c67 67 77 161 77 213c0 53 -11 116 -60 166
c-62 64 -144 69 -191 69h-65z" />
    <glyph glyph-name="Ntilde" unicode="&#xd1;" horiz-adv-x="766" 
d="M160 0h-74l85 695l453 -547l64 519h74l-86 -697l-453 547zM598 842l39 -35c-9 -19 -20 -31 -35 -44c-18 -15 -37 -28 -68 -28c-24 0 -41 8 -54 15l-21 12c-14 8 -26 15 -44 15c-13 0 -22 -3 -32 -14c-7 -7 -16 -20 -21 -30l-40 36c10 16 25 36 40 48c20 17 41 24 64 24
s43 -9 57 -17l25 -14c7 -4 21 -11 35 -11c9 0 22 3 34 14c8 8 16 19 21 29z" />
    <glyph glyph-name="Ograve" unicode="&#xd2;" horiz-adv-x="800" 
d="M399 -12c-73 0 -156 19 -222 87c-41 42 -86 114 -86 221c0 137 60 226 114 277c73 70 163 105 274 105c73 0 155 -16 224 -84c43 -42 88 -112 88 -218c0 -103 -37 -210 -112 -283c-58 -56 -153 -105 -280 -105zM471 608c-85 0 -159 -31 -211 -79
c-47 -44 -92 -117 -92 -219c0 -82 30 -144 69 -184c35 -36 89 -68 170 -68c90 0 167 32 216 80c59 57 91 145 91 224c0 75 -29 137 -70 178c-33 33 -88 68 -173 68zM499 720l-138 117l75 45l110 -130z" />
    <glyph glyph-name="Oacute" unicode="&#xd3;" horiz-adv-x="800" 
d="M399 -12c-73 0 -156 19 -222 87c-41 42 -86 114 -86 221c0 137 60 226 114 277c73 70 163 105 274 105c73 0 155 -16 224 -84c43 -42 88 -112 88 -218c0 -103 -37 -210 -112 -283c-58 -56 -153 -105 -280 -105zM471 608c-85 0 -159 -31 -211 -79
c-47 -44 -92 -117 -92 -219c0 -82 30 -144 69 -184c35 -36 89 -68 170 -68c90 0 167 32 216 80c59 57 91 145 91 224c0 75 -29 137 -70 178c-33 33 -88 68 -173 68zM570 882l65 -45l-168 -117l-39 32z" />
    <glyph glyph-name="Ocircumflex" unicode="&#xd4;" horiz-adv-x="800" 
d="M399 -12c-73 0 -156 19 -222 87c-41 42 -86 114 -86 221c0 137 60 226 114 277c73 70 163 105 274 105c73 0 155 -16 224 -84c43 -42 88 -112 88 -218c0 -103 -37 -210 -112 -283c-58 -56 -153 -105 -280 -105zM471 608c-85 0 -159 -31 -211 -79
c-47 -44 -92 -117 -92 -219c0 -82 30 -144 69 -184c35 -36 89 -68 170 -68c90 0 167 32 216 80c59 57 91 145 91 224c0 75 -29 137 -70 178c-33 33 -88 68 -173 68zM499 797l-97 -76l-51 41l154 119l126 -119l-53 -41z" />
    <glyph glyph-name="Otilde" unicode="&#xd5;" horiz-adv-x="800" 
d="M399 -12c-73 0 -156 19 -222 87c-41 42 -86 114 -86 221c0 137 60 226 114 277c73 70 163 105 274 105c73 0 155 -16 224 -84c43 -42 88 -112 88 -218c0 -103 -37 -210 -112 -283c-58 -56 -153 -105 -280 -105zM471 608c-85 0 -159 -31 -211 -79
c-47 -44 -92 -117 -92 -219c0 -82 30 -144 69 -184c35 -36 89 -68 170 -68c90 0 167 32 216 80c59 57 91 145 91 224c0 75 -29 137 -70 178c-33 33 -88 68 -173 68zM612 842l39 -35c-9 -19 -20 -31 -35 -44c-18 -15 -37 -28 -68 -28c-24 0 -41 8 -54 15l-21 12
c-14 8 -26 15 -44 15c-13 0 -22 -3 -32 -14c-7 -7 -16 -20 -21 -30l-40 36c10 16 25 36 40 48c20 17 41 24 64 24s43 -9 57 -17l25 -14c7 -4 21 -11 35 -11c9 0 22 3 34 14c8 8 16 19 21 29z" />
    <glyph glyph-name="Odieresis" unicode="&#xd6;" horiz-adv-x="800" 
d="M399 -12c-73 0 -156 19 -222 87c-41 42 -86 114 -86 221c0 137 60 226 114 277c73 70 163 105 274 105c73 0 155 -16 224 -84c43 -42 88 -112 88 -218c0 -103 -37 -210 -112 -283c-58 -56 -153 -105 -280 -105zM471 608c-85 0 -159 -31 -211 -79
c-47 -44 -92 -117 -92 -219c0 -82 30 -144 69 -184c35 -36 89 -68 170 -68c90 0 167 32 216 80c59 57 91 145 91 224c0 75 -29 137 -70 178c-33 33 -88 68 -173 68zM530 778c0 10 2 24 15 38s29 19 42 19c11 0 23 -4 32 -12c6 -6 13 -16 13 -31s-6 -31 -16 -42
c-8 -8 -21 -17 -40 -17c-18 0 -29 8 -34 13c-7 7 -12 19 -12 32zM340 778c0 10 2 24 15 38s29 19 42 19c11 0 23 -4 32 -12c6 -6 13 -16 13 -31s-6 -31 -16 -42c-8 -8 -21 -17 -40 -17c-18 0 -29 8 -34 13c-7 7 -12 19 -12 32z" />
    <glyph glyph-name="multiply" unicode="&#xd7;" 
d="M104 190l143 143l-149 149l47 47l149 -149l149 149l47 -47l-149 -149l143 -143l-47 -47l-143 143l-143 -143z" />
    <glyph glyph-name="Oslash" unicode="&#xd8;" horiz-adv-x="800" 
d="M828 635l-91 -81c31 -45 55 -100 55 -178c0 -103 -37 -210 -112 -283c-59 -57 -153 -105 -278 -105c-95 0 -159 29 -215 78l-89 -79l-43 50l90 80c-34 51 -53 105 -53 179c0 120 44 210 114 277c73 70 163 105 274 105c85 0 149 -20 213 -74l91 81zM205 170l428 381
c-50 45 -100 57 -161 57c-100 0 -168 -39 -211 -79c-49 -46 -92 -115 -92 -219c0 -56 10 -97 36 -140zM676 500l-430 -381c44 -40 92 -61 162 -61c91 0 166 32 216 80c51 49 91 128 91 224c0 57 -12 97 -39 138z" />
    <glyph glyph-name="Ugrave" unicode="&#xd9;" horiz-adv-x="646" 
d="M242 667l-48 -392c-4 -30 -7 -54 -7 -80c0 -37 12 -73 43 -101c35 -32 73 -36 112 -36c33 0 86 2 126 47c38 43 45 112 50 153l50 409h74l-53 -429c-9 -73 -21 -136 -78 -190s-124 -60 -177 -60c-62 0 -117 12 -163 56c-31 30 -58 74 -58 138c0 21 5 83 7 101l48 384h74z
M419 720l-138 117l75 45l110 -130z" />
    <glyph glyph-name="Uacute" unicode="&#xda;" horiz-adv-x="646" 
d="M242 667l-48 -392c-4 -30 -7 -54 -7 -80c0 -37 12 -73 43 -101c35 -32 73 -36 112 -36c33 0 86 2 126 47c38 43 45 112 50 153l50 409h74l-53 -429c-9 -73 -21 -136 -78 -190s-124 -60 -177 -60c-62 0 -117 12 -163 56c-31 30 -58 74 -58 138c0 21 5 83 7 101l48 384h74z
M506 882l65 -45l-168 -117l-39 32z" />
    <glyph glyph-name="Ucircumflex" unicode="&#xdb;" horiz-adv-x="646" 
d="M242 667l-48 -392c-4 -30 -7 -54 -7 -80c0 -37 12 -73 43 -101c35 -32 73 -36 112 -36c33 0 86 2 126 47c38 43 45 112 50 153l50 409h74l-53 -429c-9 -73 -21 -136 -78 -190s-124 -60 -177 -60c-62 0 -117 12 -163 56c-31 30 -58 74 -58 138c0 21 5 83 7 101l48 384h74z
M425 797l-97 -76l-51 41l154 119l126 -119l-53 -41z" />
    <glyph glyph-name="Udieresis" unicode="&#xdc;" horiz-adv-x="646" 
d="M242 667l-48 -392c-4 -30 -7 -54 -7 -80c0 -37 12 -73 43 -101c35 -32 73 -36 112 -36c33 0 86 2 126 47c38 43 45 112 50 153l50 409h74l-53 -429c-9 -73 -21 -136 -78 -190s-124 -60 -177 -60c-62 0 -117 12 -163 56c-31 30 -58 74 -58 138c0 21 5 83 7 101l48 384h74z
M463 778c0 10 2 24 15 38s29 19 42 19c11 0 23 -4 32 -12c6 -6 13 -16 13 -31s-6 -31 -16 -42c-8 -8 -21 -17 -40 -17c-18 0 -29 8 -34 13c-7 7 -12 19 -12 32zM273 778c0 10 2 24 15 38s29 19 42 19c11 0 23 -4 32 -12c6 -6 13 -16 13 -31s-6 -31 -16 -42
c-8 -8 -21 -17 -40 -17c-18 0 -29 8 -34 13c-7 7 -12 19 -12 32z" />
    <glyph glyph-name="Yacute" unicode="&#xdd;" horiz-adv-x="530" 
d="M227 0l35 287l-172 380h84l133 -298l209 298h88l-268 -380l-35 -287h-74zM455 882l65 -45l-168 -117l-39 32z" />
    <glyph glyph-name="Thorn" unicode="&#xde;" horiz-adv-x="457" 
d="M168 667h74l-12 -100h46c68 0 127 -18 161 -51c27 -26 46 -70 46 -126c0 -65 -25 -114 -54 -142c-28 -27 -82 -58 -189 -58h-57l-23 -190h-74zM221 497l-29 -237h63c36 0 85 4 120 36c20 18 36 48 36 92c0 45 -18 71 -37 85c-27 21 -68 24 -98 24h-55z" />
    <glyph glyph-name="germandbls" unicode="&#xdf;" horiz-adv-x="529" 
d="M143 0h-72l43 349h-66l8 66h66l17 138c5 39 17 94 57 136c27 28 69 52 132 52c56 0 94 -22 118 -45c37 -36 44 -80 44 -116s-7 -66 -27 -95c-19 -28 -43 -43 -67 -52c30 -12 54 -30 79 -55c34 -40 40 -83 40 -121c0 -68 -18 -132 -76 -188c-66 -64 -149 -79 -208 -81
l8 70c53 3 108 24 143 56c34 31 57 79 57 134c0 45 -17 81 -41 104c-29 28 -76 43 -116 44l8 64c32 0 71 11 95 34c12 11 32 37 32 86c0 20 -3 50 -25 72c-15 15 -38 25 -67 25c-30 0 -53 -10 -71 -27c-36 -35 -43 -93 -47 -129z" />
    <glyph glyph-name="agrave" unicode="&#xe0;" horiz-adv-x="528" 
d="M432 356l7 59h72l-51 -415h-72l7 58c-13 -18 -31 -37 -52 -49c-30 -17 -61 -21 -86 -21c-50 0 -96 10 -135 51c-31 33 -54 80 -54 148c0 85 33 147 72 184s87 54 149 54c28 0 58 -4 88 -20c25 -13 42 -29 55 -49zM295 361c-46 0 -79 -19 -100 -39
c-31 -29 -53 -79 -53 -130c0 -41 15 -83 43 -109c25 -24 55 -31 84 -31c45 0 79 15 103 41c30 31 47 84 47 135c0 56 -25 87 -39 100c-17 16 -44 33 -85 33zM310 497l-118 135l78 34l87 -145z" />
    <glyph glyph-name="aacute" unicode="&#xe1;" horiz-adv-x="528" 
d="M432 356l7 59h72l-51 -415h-72l7 58c-13 -18 -31 -37 -52 -49c-30 -17 -61 -21 -86 -21c-50 0 -96 10 -135 51c-31 33 -54 80 -54 148c0 85 33 147 72 184s87 54 149 54c28 0 58 -4 88 -20c25 -13 42 -29 55 -49zM295 361c-46 0 -79 -19 -100 -39
c-31 -29 -53 -79 -53 -130c0 -41 15 -83 43 -109c25 -24 55 -31 84 -31c45 0 79 15 103 41c30 31 47 84 47 135c0 56 -25 87 -39 100c-17 16 -44 33 -85 33zM394 666l70 -34l-151 -135l-42 24z" />
    <glyph glyph-name="acircumflex" unicode="&#xe2;" horiz-adv-x="528" 
d="M432 356l7 59h72l-51 -415h-72l7 58c-13 -18 -31 -37 -52 -49c-30 -17 -61 -21 -86 -21c-50 0 -96 10 -135 51c-31 33 -54 80 -54 148c0 85 33 147 72 184s87 54 149 54c28 0 58 -4 88 -20c25 -13 42 -29 55 -49zM295 361c-46 0 -79 -19 -100 -39
c-31 -29 -53 -79 -53 -130c0 -41 15 -83 43 -109c25 -24 55 -31 84 -31c45 0 79 15 103 41c30 31 47 84 47 135c0 56 -25 87 -39 100c-17 16 -44 33 -85 33zM331 578l-102 -81l-46 36l153 121l123 -121l-46 -36z" />
    <glyph glyph-name="atilde" unicode="&#xe3;" horiz-adv-x="528" 
d="M432 356l7 59h72l-51 -415h-72l7 58c-13 -18 -31 -37 -52 -49c-30 -17 -61 -21 -86 -21c-50 0 -96 10 -135 51c-31 33 -54 80 -54 148c0 85 33 147 72 184s87 54 149 54c28 0 58 -4 88 -20c25 -13 42 -29 55 -49zM295 361c-46 0 -79 -19 -100 -39
c-31 -29 -53 -79 -53 -130c0 -41 15 -83 43 -109c25 -24 55 -31 84 -31c45 0 79 15 103 41c30 31 47 84 47 135c0 56 -25 87 -39 100c-17 16 -44 33 -85 33zM199 497l-38 34c10 15 25 32 40 45c17 14 34 24 62 24c29 0 48 -11 65 -20l17 -9c10 -5 22 -11 37 -11
c14 0 25 5 35 15c6 7 15 20 20 28l37 -34c-9 -16 -23 -36 -36 -47c-18 -16 -39 -22 -61 -22c-23 0 -42 8 -55 14l-22 11c-15 7 -29 15 -44 15s-25 -7 -34 -16c-12 -11 -22 -25 -23 -27z" />
    <glyph glyph-name="adieresis" unicode="&#xe4;" horiz-adv-x="528" 
d="M432 356l7 59h72l-51 -415h-72l7 58c-13 -18 -31 -37 -52 -49c-30 -17 -61 -21 -86 -21c-50 0 -96 10 -135 51c-31 33 -54 80 -54 148c0 85 33 147 72 184s87 54 149 54c28 0 58 -4 88 -20c25 -13 42 -29 55 -49zM295 361c-46 0 -79 -19 -100 -39
c-31 -29 -53 -79 -53 -130c0 -41 15 -83 43 -109c25 -24 55 -31 84 -31c45 0 79 15 103 41c30 31 47 84 47 135c0 56 -25 87 -39 100c-17 16 -44 33 -85 33zM371 543c0 15 7 30 17 40c8 8 21 17 40 17c24 0 44 -18 44 -44c0 -13 -7 -29 -18 -40s-25 -16 -38 -16
c-23 0 -45 17 -45 43zM197 543c0 15 7 30 17 40c8 8 21 17 40 17c24 0 44 -18 44 -44c0 -13 -7 -29 -18 -40s-25 -16 -38 -16c-23 0 -45 17 -45 43z" />
    <glyph glyph-name="aring" unicode="&#xe5;" horiz-adv-x="528" 
d="M432 356l7 59h72l-51 -415h-72l7 58c-13 -18 -31 -37 -52 -49c-30 -17 -61 -21 -86 -21c-50 0 -96 10 -135 51c-31 33 -54 80 -54 148c0 85 33 147 72 184s87 54 149 54c28 0 58 -4 88 -20c25 -13 42 -29 55 -49zM295 361c-46 0 -79 -19 -100 -39
c-31 -29 -53 -79 -53 -130c0 -41 15 -83 43 -109c25 -24 55 -31 84 -31c45 0 79 15 103 41c30 31 47 84 47 135c0 56 -25 87 -39 100c-17 16 -44 33 -85 33zM235 575c0 29 11 55 27 70c19 19 42 24 63 24c31 0 50 -11 61 -22c18 -18 22 -41 22 -60c0 -25 -6 -46 -25 -65
c-20 -19 -41 -25 -67 -25c-22 0 -42 4 -59 21c-10 10 -22 28 -22 57zM280 579c0 -11 4 -20 10 -26c6 -7 15 -12 30 -12c16 0 26 7 31 12c8 8 13 20 13 34s-5 23 -11 28c-7 7 -19 10 -29 10c-12 0 -22 -3 -31 -12s-13 -22 -13 -34z" />
    <glyph glyph-name="ae" unicode="&#xe6;" horiz-adv-x="776" 
d="M415 348c19 25 43 43 66 55c26 13 59 22 97 22c66 0 108 -24 132 -49c30 -31 58 -88 47 -182h-327v-8c0 -51 19 -84 37 -103c24 -24 51 -31 82 -31c28 0 57 4 84 23c21 15 42 42 54 64l61 -33c-19 -32 -49 -67 -77 -86c-23 -16 -62 -32 -120 -32c-36 0 -76 8 -103 24
c-22 13 -44 37 -58 59c-15 -24 -40 -49 -65 -62c-28 -15 -72 -21 -104 -21c-35 0 -84 6 -116 29c-21 14 -48 44 -48 95c0 49 24 90 58 114c14 10 53 34 127 34c52 0 89 -13 121 -35c4 42 3 86 -26 112c-14 13 -39 24 -84 24c-36 0 -75 -7 -123 -26l8 68c43 15 90 22 128 22
c34 0 71 -6 99 -22c29 -16 43 -38 50 -55zM240 196c-11 0 -54 -1 -83 -23c-12 -9 -27 -27 -27 -53c0 -25 13 -41 27 -51c18 -12 47 -17 75 -17c42 0 66 12 76 17c32 18 38 43 38 62c0 23 -11 38 -30 49c-18 11 -49 16 -76 16zM443 254h247c-1 35 -16 63 -35 81
c-24 22 -52 26 -78 26c-34 0 -65 -6 -94 -35c-18 -18 -33 -44 -40 -72z" />
    <glyph glyph-name="ccedilla" unicode="&#xe7;" horiz-adv-x="440" 
d="M442 385l-10 -86c-14 16 -34 34 -52 44c-20 11 -48 18 -75 18c-46 0 -82 -16 -111 -43c-27 -26 -53 -67 -53 -126c0 -52 21 -85 40 -104c28 -28 62 -36 96 -36c29 0 52 5 77 18c27 14 45 32 58 47l-10 -86c-20 -15 -40 -26 -60 -32c-24 -8 -50 -11 -74 -11
c-51 0 -103 11 -146 55c-36 37 -55 88 -55 145c0 63 26 129 72 174c27 27 81 63 168 63c42 0 91 -10 135 -40zM240 -52l62 -27l-116 -128l-46 24z" />
    <glyph glyph-name="egrave" unicode="&#xe8;" horiz-adv-x="483" 
d="M395 139l61 -33c-19 -32 -49 -67 -77 -86c-41 -27 -85 -32 -120 -32c-49 0 -96 9 -137 52c-25 26 -55 72 -55 149c0 71 27 134 71 178c43 43 90 58 145 58c70 0 111 -25 135 -49c30 -31 58 -88 47 -183h-323c-1 -59 19 -92 37 -110c24 -24 52 -31 82 -31c24 0 53 4 80 23
c21 15 42 42 54 64zM154 253h242c-1 30 -14 62 -35 82c-23 22 -53 26 -76 26c-37 0 -66 -10 -91 -35c-18 -18 -33 -44 -40 -73zM310 497l-118 135l78 34l87 -145z" />
    <glyph glyph-name="eacute" unicode="&#xe9;" horiz-adv-x="483" 
d="M395 139l61 -33c-19 -32 -49 -67 -77 -86c-41 -27 -85 -32 -120 -32c-49 0 -96 9 -137 52c-25 26 -55 72 -55 149c0 71 27 134 71 178c43 43 90 58 145 58c70 0 111 -25 135 -49c30 -31 58 -88 47 -183h-323c-1 -59 19 -92 37 -110c24 -24 52 -31 82 -31c24 0 53 4 80 23
c21 15 42 42 54 64zM154 253h242c-1 30 -14 62 -35 82c-23 22 -53 26 -76 26c-37 0 -66 -10 -91 -35c-18 -18 -33 -44 -40 -73zM374 666l70 -34l-151 -135l-42 24z" />
    <glyph glyph-name="ecircumflex" unicode="&#xea;" horiz-adv-x="483" 
d="M395 139l61 -33c-19 -32 -49 -67 -77 -86c-41 -27 -85 -32 -120 -32c-49 0 -96 9 -137 52c-25 26 -55 72 -55 149c0 71 27 134 71 178c43 43 90 58 145 58c70 0 111 -25 135 -49c30 -31 58 -88 47 -183h-323c-1 -59 19 -92 37 -110c24 -24 52 -31 82 -31c24 0 53 4 80 23
c21 15 42 42 54 64zM154 253h242c-1 30 -14 62 -35 82c-23 22 -53 26 -76 26c-37 0 -66 -10 -91 -35c-18 -18 -33 -44 -40 -73zM305 578l-102 -81l-46 36l153 121l123 -121l-46 -36z" />
    <glyph glyph-name="edieresis" unicode="&#xeb;" horiz-adv-x="483" 
d="M395 139l61 -33c-19 -32 -49 -67 -77 -86c-41 -27 -85 -32 -120 -32c-49 0 -96 9 -137 52c-25 26 -55 72 -55 149c0 71 27 134 71 178c43 43 90 58 145 58c70 0 111 -25 135 -49c30 -31 58 -88 47 -183h-323c-1 -59 19 -92 37 -110c24 -24 52 -31 82 -31c24 0 53 4 80 23
c21 15 42 42 54 64zM154 253h242c-1 30 -14 62 -35 82c-23 22 -53 26 -76 26c-37 0 -66 -10 -91 -35c-18 -18 -33 -44 -40 -73zM333 543c0 15 7 30 17 40c8 8 21 17 40 17c24 0 44 -18 44 -44c0 -13 -7 -29 -18 -40s-25 -16 -38 -16c-23 0 -45 17 -45 43zM159 543
c0 15 7 30 17 40c8 8 21 17 40 17c24 0 44 -18 44 -44c0 -13 -7 -29 -18 -40s-25 -16 -38 -16c-23 0 -45 17 -45 43z" />
    <glyph glyph-name="igrave" unicode="&#xec;" horiz-adv-x="208" 
d="M119 415h72l-51 -415h-72zM170 493l-105 147l80 27l72 -153z" />
    <glyph glyph-name="iacute" unicode="&#xed;" horiz-adv-x="208" 
d="M119 415h72l-51 -415h-72zM227 667l74 -27l-141 -147l-45 21z" />
    <glyph glyph-name="icircumflex" unicode="&#xee;" horiz-adv-x="208" 
d="M119 415h72l-51 -415h-72zM174 572l-83 -67l-39 35l131 106l105 -106l-47 -35z" />
    <glyph glyph-name="idieresis" unicode="&#xef;" horiz-adv-x="208" 
d="M119 415h72l-51 -415h-72zM204 543c0 15 7 30 17 40c8 8 21 17 40 17c24 0 44 -18 44 -44c0 -13 -7 -29 -18 -40s-25 -16 -38 -16c-23 0 -45 17 -45 43zM30 543c0 15 7 30 17 40c8 8 21 17 40 17c24 0 44 -18 44 -44c0 -13 -7 -29 -18 -40s-25 -16 -38 -16
c-23 0 -45 17 -45 43z" />
    <glyph glyph-name="eth" unicode="&#xf0;" horiz-adv-x="519" 
d="M161 612l25 61c105 -8 174 -51 202 -71l128 39l17 -51l-98 -31c23 -23 40 -47 57 -85c26 -59 28 -101 28 -148c0 -119 -17 -210 -85 -275c-50 -48 -107 -63 -170 -63c-51 0 -98 13 -138 53c-36 36 -59 90 -59 149c0 65 26 132 67 176c31 34 87 71 173 71
c66 0 108 -26 134 -48c-5 38 -22 93 -83 146l-191 -60l-14 54l146 45c-46 25 -93 36 -139 38zM439 241c0 28 -6 65 -37 96c-18 18 -47 36 -94 36c-56 0 -92 -24 -112 -43c-30 -29 -52 -79 -52 -140c0 -53 20 -85 37 -102c16 -16 44 -36 92 -36c50 0 87 18 114 45
s52 74 52 144z" />
    <glyph glyph-name="ntilde" unicode="&#xf1;" horiz-adv-x="469" 
d="M68 0l51 415h72l-6 -48c2 3 20 25 42 39c26 16 54 19 77 19c30 0 69 -6 99 -36c28 -28 33 -62 33 -93c0 -21 -3 -44 -6 -69l-28 -227h-72l25 207c2 17 6 52 6 71c0 17 -2 43 -21 62c-12 12 -32 21 -58 21c-32 0 -58 -12 -74 -29c-28 -29 -36 -78 -41 -115l-27 -217h-72z
M179 497l-38 34c10 15 25 32 40 45c17 14 34 24 62 24c29 0 48 -11 65 -20l17 -9c10 -5 22 -11 37 -11c14 0 25 5 35 15c6 7 15 20 20 28l37 -34c-9 -16 -23 -36 -36 -47c-18 -16 -39 -22 -61 -22c-23 0 -42 8 -55 14l-22 11c-15 7 -29 15 -44 15s-25 -7 -34 -16
c-12 -11 -22 -25 -23 -27z" />
    <glyph glyph-name="ograve" unicode="&#xf2;" horiz-adv-x="528" 
d="M268 -12c-59 0 -108 15 -148 57c-29 31 -53 78 -53 145c0 60 20 122 75 173c46 42 99 62 166 62c68 0 117 -22 152 -57c42 -42 51 -93 51 -136c0 -90 -37 -148 -70 -180c-53 -52 -117 -64 -173 -64zM307 361c-28 0 -73 -7 -113 -46c-35 -34 -53 -80 -53 -130
c0 -47 20 -77 36 -94c15 -16 45 -39 96 -39c52 0 89 22 113 48c31 33 50 83 50 131c0 42 -16 73 -34 92c-21 22 -54 38 -95 38zM322 497l-118 135l78 34l87 -145z" />
    <glyph glyph-name="oacute" unicode="&#xf3;" horiz-adv-x="528" 
d="M268 -12c-59 0 -108 15 -148 57c-29 31 -53 78 -53 145c0 60 20 122 75 173c46 42 99 62 166 62c68 0 117 -22 152 -57c42 -42 51 -93 51 -136c0 -90 -37 -148 -70 -180c-53 -52 -117 -64 -173 -64zM307 361c-28 0 -73 -7 -113 -46c-35 -34 -53 -80 -53 -130
c0 -47 20 -77 36 -94c15 -16 45 -39 96 -39c52 0 89 22 113 48c31 33 50 83 50 131c0 42 -16 73 -34 92c-21 22 -54 38 -95 38zM406 666l70 -34l-151 -135l-42 24z" />
    <glyph glyph-name="ocircumflex" unicode="&#xf4;" horiz-adv-x="528" 
d="M268 -12c-59 0 -108 15 -148 57c-29 31 -53 78 -53 145c0 60 20 122 75 173c46 42 99 62 166 62c68 0 117 -22 152 -57c42 -42 51 -93 51 -136c0 -90 -37 -148 -70 -180c-53 -52 -117 -64 -173 -64zM307 361c-28 0 -73 -7 -113 -46c-35 -34 -53 -80 -53 -130
c0 -47 20 -77 36 -94c15 -16 45 -39 96 -39c52 0 89 22 113 48c31 33 50 83 50 131c0 42 -16 73 -34 92c-21 22 -54 38 -95 38zM331 578l-102 -81l-46 36l153 121l123 -121l-46 -36z" />
    <glyph glyph-name="otilde" unicode="&#xf5;" horiz-adv-x="528" 
d="M268 -12c-59 0 -108 15 -148 57c-29 31 -53 78 -53 145c0 60 20 122 75 173c46 42 99 62 166 62c68 0 117 -22 152 -57c42 -42 51 -93 51 -136c0 -90 -37 -148 -70 -180c-53 -52 -117 -64 -173 -64zM307 361c-28 0 -73 -7 -113 -46c-35 -34 -53 -80 -53 -130
c0 -47 20 -77 36 -94c15 -16 45 -39 96 -39c52 0 89 22 113 48c31 33 50 83 50 131c0 42 -16 73 -34 92c-21 22 -54 38 -95 38zM211 497l-38 34c10 15 25 32 40 45c17 14 34 24 62 24c29 0 48 -11 65 -20l17 -9c10 -5 22 -11 37 -11c14 0 25 5 35 15c6 7 15 20 20 28l37 -34
c-9 -16 -23 -36 -36 -47c-18 -16 -39 -22 -61 -22c-23 0 -42 8 -55 14l-22 11c-15 7 -29 15 -44 15s-25 -7 -34 -16c-12 -11 -22 -25 -23 -27z" />
    <glyph glyph-name="odieresis" unicode="&#xf6;" horiz-adv-x="528" 
d="M268 -12c-59 0 -108 15 -148 57c-29 31 -53 78 -53 145c0 60 20 122 75 173c46 42 99 62 166 62c68 0 117 -22 152 -57c42 -42 51 -93 51 -136c0 -90 -37 -148 -70 -180c-53 -52 -117 -64 -173 -64zM307 361c-28 0 -73 -7 -113 -46c-35 -34 -53 -80 -53 -130
c0 -47 20 -77 36 -94c15 -16 45 -39 96 -39c52 0 89 22 113 48c31 33 50 83 50 131c0 42 -16 73 -34 92c-21 22 -54 38 -95 38zM366 543c0 15 7 30 17 40c8 8 21 17 40 17c24 0 44 -18 44 -44c0 -13 -7 -29 -18 -40s-25 -16 -38 -16c-23 0 -45 17 -45 43zM192 543
c0 15 7 30 17 40c8 8 21 17 40 17c24 0 44 -18 44 -44c0 -13 -7 -29 -18 -40s-25 -16 -38 -16c-23 0 -45 17 -45 43z" />
    <glyph glyph-name="divide" unicode="&#xf7;" 
d="M242 515c0 27 22 49 49 49s49 -22 49 -49s-22 -49 -49 -49s-49 22 -49 49zM242 151c0 27 22 49 49 49s49 -22 49 -49s-22 -49 -49 -49s-49 22 -49 49zM74 300v66h434v-66h-434z" />
    <glyph glyph-name="oslash" unicode="&#xf8;" horiz-adv-x="524" 
d="M546 400l-68 -61c20 -35 28 -68 28 -109c0 -87 -36 -145 -70 -178c-53 -52 -117 -64 -174 -64c-49 0 -88 8 -131 42l-68 -60l-40 45l69 61c-21 36 -30 73 -30 114c0 83 37 138 75 173c46 42 99 62 166 62c56 0 97 -14 135 -42l70 62zM150 124l236 210
c-22 16 -49 27 -84 27c-44 0 -86 -17 -115 -46c-32 -32 -51 -82 -51 -131c0 -23 5 -42 14 -60zM420 288l-234 -209c22 -17 47 -27 82 -27c45 0 83 16 113 48c31 33 50 81 50 136c0 20 -3 35 -11 52z" />
    <glyph glyph-name="ugrave" unicode="&#xf9;" horiz-adv-x="465" 
d="M190 415l-27 -219c-2 -19 -4 -34 -4 -54c0 -27 3 -50 25 -69c16 -14 39 -21 62 -21c29 0 52 11 67 25c24 24 29 61 35 108l28 230h72l-29 -238c-7 -55 -14 -108 -51 -146c-38 -38 -89 -43 -120 -43c-56 0 -94 14 -121 38c-32 28 -41 63 -41 105c0 20 4 53 6 71l26 213h72
zM300 497l-118 135l78 34l87 -145z" />
    <glyph glyph-name="uacute" unicode="&#xfa;" horiz-adv-x="465" 
d="M190 415l-27 -219c-2 -19 -4 -34 -4 -54c0 -27 3 -50 25 -69c16 -14 39 -21 62 -21c29 0 52 11 67 25c24 24 29 61 35 108l28 230h72l-29 -238c-7 -55 -14 -108 -51 -146c-38 -38 -89 -43 -120 -43c-56 0 -94 14 -121 38c-32 28 -41 63 -41 105c0 20 4 53 6 71l26 213h72
zM368 666l70 -34l-151 -135l-42 24z" />
    <glyph glyph-name="ucircumflex" unicode="&#xfb;" horiz-adv-x="465" 
d="M190 415l-27 -219c-2 -19 -4 -34 -4 -54c0 -27 3 -50 25 -69c16 -14 39 -21 62 -21c29 0 52 11 67 25c24 24 29 61 35 108l28 230h72l-29 -238c-7 -55 -14 -108 -51 -146c-38 -38 -89 -43 -120 -43c-56 0 -94 14 -121 38c-32 28 -41 63 -41 105c0 20 4 53 6 71l26 213h72
zM308 578l-102 -81l-46 36l153 121l123 -121l-46 -36z" />
    <glyph glyph-name="udieresis" unicode="&#xfc;" horiz-adv-x="465" 
d="M190 415l-27 -219c-2 -19 -4 -34 -4 -54c0 -27 3 -50 25 -69c16 -14 39 -21 62 -21c29 0 52 11 67 25c24 24 29 61 35 108l28 230h72l-29 -238c-7 -55 -14 -108 -51 -146c-38 -38 -89 -43 -120 -43c-56 0 -94 14 -121 38c-32 28 -41 63 -41 105c0 20 4 53 6 71l26 213h72
zM337 543c0 15 7 30 17 40c8 8 21 17 40 17c24 0 44 -18 44 -44c0 -13 -7 -29 -18 -40s-25 -16 -38 -16c-23 0 -45 17 -45 43zM163 543c0 15 7 30 17 40c8 8 21 17 40 17c24 0 44 -18 44 -44c0 -13 -7 -29 -18 -40s-25 -16 -38 -16c-23 0 -45 17 -45 43z" />
    <glyph glyph-name="yacute" unicode="&#xfd;" horiz-adv-x="460" 
d="M39 -230l165 269l-145 376h80l110 -297l172 297h82l-384 -645h-80zM374 666l70 -34l-151 -135l-42 24z" />
    <glyph glyph-name="thorn" unicode="&#xfe;" horiz-adv-x="528" 
d="M147 58l-36 -288h-72l118 959h72l-45 -372c19 25 41 40 58 49c28 15 55 19 85 19c36 0 88 -7 130 -48c32 -31 54 -76 54 -143c0 -79 -29 -149 -73 -192c-46 -45 -97 -54 -149 -54c-27 0 -63 3 -95 23c-19 12 -36 30 -47 47zM287 52c34 0 66 9 94 35c38 35 56 91 56 142
c0 50 -20 81 -36 97c-18 19 -47 35 -92 35s-77 -16 -103 -44c-30 -32 -46 -78 -46 -126c0 -32 7 -68 34 -99c26 -29 58 -40 93 -40z" />
    <glyph glyph-name="ydieresis" unicode="&#xff;" horiz-adv-x="460" 
d="M39 -230l165 269l-145 376h80l110 -297l172 297h82l-384 -645h-80zM334 543c0 15 7 30 17 40c8 8 21 17 40 17c24 0 44 -18 44 -44c0 -13 -7 -29 -18 -40s-25 -16 -38 -16c-23 0 -45 17 -45 43zM160 543c0 15 7 30 17 40c8 8 21 17 40 17c24 0 44 -18 44 -44
c0 -13 -7 -29 -18 -40s-25 -16 -38 -16c-23 0 -45 17 -45 43z" />
    <glyph glyph-name="Amacron" unicode="&#x100;" horiz-adv-x="622" 
d="M534 0l-55 188h-284l-103 -188h-84l393 699l213 -699h-80zM233 258h226l-80 267zM240 733l8 64h320l-8 -64h-320z" />
    <glyph glyph-name="amacron" unicode="&#x101;" horiz-adv-x="528" 
d="M432 356l7 59h72l-51 -415h-72l7 58c-13 -18 -31 -37 -52 -49c-30 -17 -61 -21 -86 -21c-50 0 -96 10 -135 51c-31 33 -54 80 -54 148c0 85 33 147 72 184s87 54 149 54c28 0 58 -4 88 -20c25 -13 42 -29 55 -49zM295 361c-46 0 -79 -19 -100 -39
c-31 -29 -53 -79 -53 -130c0 -41 15 -83 43 -109c25 -24 55 -31 84 -31c45 0 79 15 103 41c30 31 47 84 47 135c0 56 -25 87 -39 100c-17 16 -44 33 -85 33zM176 513l7 60h302l-7 -60h-302z" />
    <glyph glyph-name="Abreve" unicode="&#x102;" horiz-adv-x="622" 
d="M534 0l-55 188h-284l-103 -188h-84l393 699l213 -699h-80zM233 258h226l-80 267zM500 841h68c-10 -43 -34 -71 -56 -87c-25 -19 -62 -33 -109 -33c-29 0 -73 5 -107 39c-16 16 -34 43 -38 81h64c5 -19 16 -33 27 -41c16 -12 38 -15 57 -15s43 4 59 14c14 8 27 23 35 42z
" />
    <glyph glyph-name="abreve" unicode="&#x103;" horiz-adv-x="528" 
d="M432 356l7 59h72l-51 -415h-72l7 58c-13 -18 -31 -37 -52 -49c-30 -17 -61 -21 -86 -21c-50 0 -96 10 -135 51c-31 33 -54 80 -54 148c0 85 33 147 72 184s87 54 149 54c28 0 58 -4 88 -20c25 -13 42 -29 55 -49zM295 361c-46 0 -79 -19 -100 -39
c-31 -29 -53 -79 -53 -130c0 -41 15 -83 43 -109c25 -24 55 -31 84 -31c45 0 79 15 103 41c30 31 47 84 47 135c0 56 -25 87 -39 100c-17 16 -44 33 -85 33zM181 617h59c3 -16 11 -33 22 -43c9 -8 25 -17 54 -17c26 0 47 7 61 18s25 27 31 42h63c-8 -27 -23 -57 -45 -79
c-33 -33 -71 -41 -108 -41c-50 0 -81 16 -98 32c-21 20 -37 52 -39 88z" />
    <glyph glyph-name="Aogonek" unicode="&#x104;" horiz-adv-x="622" 
d="M8 0l393 699l213 -699h-18c-14 -10 -34 -26 -47 -39c-12 -12 -29 -33 -29 -57c0 -15 8 -23 14 -27c8 -5 19 -7 27 -7c15 0 35 5 51 13l-16 -59c-16 -8 -37 -14 -57 -14c-21 0 -47 7 -62 20c-13 12 -24 33 -24 58c0 28 13 48 27 65c22 25 48 43 54 47l-55 188h-284
l-103 -188h-84zM233 258h226l-80 267z" />
    <glyph glyph-name="aogonek" unicode="&#x105;" horiz-adv-x="528" 
d="M432 356l7 59h72l-51 -415h-14c-16 -10 -38 -25 -52 -39c-28 -28 -29 -51 -29 -57c0 -10 3 -17 8 -22c11 -11 29 -12 38 -12c14 0 30 3 51 13l-15 -55c-23 -12 -46 -14 -60 -14c-29 0 -50 11 -63 23c-10 10 -21 26 -21 50c0 19 6 46 32 74c13 14 31 28 53 39l7 58
c-13 -18 -31 -37 -52 -49c-30 -17 -61 -21 -86 -21c-50 0 -96 10 -135 51c-31 33 -54 80 -54 148c0 85 33 147 72 184s87 54 149 54c28 0 58 -4 88 -20c25 -13 42 -29 55 -49zM295 361c-46 0 -79 -19 -100 -39c-31 -29 -53 -79 -53 -130c0 -41 15 -83 43 -109
c25 -24 55 -31 84 -31c45 0 79 15 103 41c30 31 47 84 47 135c0 56 -25 87 -39 100c-17 16 -44 33 -85 33z" />
    <glyph glyph-name="Cacute" unicode="&#x106;" horiz-adv-x="650" 
d="M675 612l-11 -92c-18 20 -43 43 -78 61c-39 20 -74 27 -113 27c-87 0 -163 -33 -217 -87c-54 -55 -87 -133 -87 -214s33 -141 70 -180c48 -50 104 -69 168 -69c51 0 94 11 127 28c27 14 61 38 84 59l-11 -92c-26 -18 -61 -38 -85 -47c-30 -11 -78 -18 -120 -18
c-98 0 -173 33 -227 88c-61 62 -84 138 -84 223c0 147 68 235 112 278c80 78 172 101 270 101c38 0 88 -5 131 -23c21 -9 49 -26 71 -43zM560 882l65 -45l-168 -117l-39 32z" />
    <glyph glyph-name="cacute" unicode="&#x107;" horiz-adv-x="440" 
d="M442 385l-10 -86c-14 16 -34 34 -52 44c-20 11 -48 18 -75 18c-46 0 -82 -16 -111 -43c-27 -26 -53 -67 -53 -126c0 -52 21 -85 40 -104c28 -28 62 -36 96 -36c29 0 52 5 77 18c27 14 45 32 58 47l-10 -86c-20 -15 -40 -26 -60 -32c-24 -8 -50 -11 -74 -11
c-51 0 -103 11 -146 55c-36 37 -55 88 -55 145c0 63 26 129 72 174c27 27 81 63 168 63c42 0 91 -10 135 -40zM383 666l70 -34l-151 -135l-42 24z" />
    <glyph glyph-name="Ccircumflex" unicode="&#x108;" horiz-adv-x="650" 
d="M675 612l-11 -92c-18 20 -43 43 -78 61c-39 20 -74 27 -113 27c-87 0 -163 -33 -217 -87c-54 -55 -87 -133 -87 -214s33 -141 70 -180c48 -50 104 -69 168 -69c51 0 94 11 127 28c27 14 61 38 84 59l-11 -92c-26 -18 -61 -38 -85 -47c-30 -11 -78 -18 -120 -18
c-98 0 -173 33 -227 88c-61 62 -84 138 -84 223c0 147 68 235 112 278c80 78 172 101 270 101c38 0 88 -5 131 -23c21 -9 49 -26 71 -43zM492 797l-97 -76l-51 41l154 119l126 -119l-53 -41z" />
    <glyph glyph-name="ccircumflex" unicode="&#x109;" horiz-adv-x="440" 
d="M442 385l-10 -86c-14 16 -34 34 -52 44c-20 11 -48 18 -75 18c-46 0 -82 -16 -111 -43c-27 -26 -53 -67 -53 -126c0 -52 21 -85 40 -104c28 -28 62 -36 96 -36c29 0 52 5 77 18c27 14 45 32 58 47l-10 -86c-20 -15 -40 -26 -60 -32c-24 -8 -50 -11 -74 -11
c-51 0 -103 11 -146 55c-36 37 -55 88 -55 145c0 63 26 129 72 174c27 27 81 63 168 63c42 0 91 -10 135 -40zM325 578l-102 -81l-46 36l153 121l123 -121l-46 -36z" />
    <glyph glyph-name="Cdotaccent" unicode="&#x10a;" horiz-adv-x="650" 
d="M675 612l-11 -92c-18 20 -43 43 -78 61c-39 20 -74 27 -113 27c-87 0 -163 -33 -217 -87c-54 -55 -87 -133 -87 -214s33 -141 70 -180c48 -50 104 -69 168 -69c51 0 94 11 127 28c27 14 61 38 84 59l-11 -92c-26 -18 -61 -38 -85 -47c-30 -11 -78 -18 -120 -18
c-98 0 -173 33 -227 88c-61 62 -84 138 -84 223c0 147 68 235 112 278c80 78 172 101 270 101c38 0 88 -5 131 -23c21 -9 49 -26 71 -43zM449 776c0 22 9 37 20 47c12 11 25 16 41 16s28 -6 37 -14c11 -10 13 -22 13 -35c0 -18 -5 -31 -16 -43c-13 -14 -26 -18 -43 -18
c-19 0 -31 5 -39 13c-6 6 -13 17 -13 34z" />
    <glyph glyph-name="cdotaccent" unicode="&#x10b;" horiz-adv-x="440" 
d="M442 385l-10 -86c-14 16 -34 34 -52 44c-20 11 -48 18 -75 18c-46 0 -82 -16 -111 -43c-27 -26 -53 -67 -53 -126c0 -52 21 -85 40 -104c28 -28 62 -36 96 -36c29 0 52 5 77 18c27 14 45 32 58 47l-10 -86c-20 -15 -40 -26 -60 -32c-24 -8 -50 -11 -74 -11
c-51 0 -103 11 -146 55c-36 37 -55 88 -55 145c0 63 26 129 72 174c27 27 81 63 168 63c42 0 91 -10 135 -40zM279 546c0 19 7 33 17 43s25 17 42 17s28 -7 34 -13s13 -17 13 -35c0 -20 -9 -34 -17 -42c-13 -13 -26 -16 -40 -16c-9 0 -25 1 -37 13c-3 4 -12 14 -12 33z" />
    <glyph glyph-name="Ccaron" unicode="&#x10c;" horiz-adv-x="650" 
d="M675 612l-11 -92c-18 20 -43 43 -78 61c-39 20 -74 27 -113 27c-87 0 -163 -33 -217 -87c-54 -55 -87 -133 -87 -214s33 -141 70 -180c48 -50 104 -69 168 -69c51 0 94 11 127 28c27 14 61 38 84 59l-11 -92c-26 -18 -61 -38 -85 -47c-30 -11 -78 -18 -120 -18
c-98 0 -173 33 -227 88c-61 62 -84 138 -84 223c0 147 68 235 112 278c80 78 172 101 270 101c38 0 88 -5 131 -23c21 -9 49 -26 71 -43zM485 805l97 76l51 -41l-154 -119l-126 119l53 41z" />
    <glyph glyph-name="ccaron" unicode="&#x10d;" horiz-adv-x="440" 
d="M442 385l-10 -86c-14 16 -34 34 -52 44c-20 11 -48 18 -75 18c-46 0 -82 -16 -111 -43c-27 -26 -53 -67 -53 -126c0 -52 21 -85 40 -104c28 -28 62 -36 96 -36c29 0 52 5 77 18c27 14 45 32 58 47l-10 -86c-20 -15 -40 -26 -60 -32c-24 -8 -50 -11 -74 -11
c-51 0 -103 11 -146 55c-36 37 -55 88 -55 145c0 63 26 129 72 174c27 27 81 63 168 63c42 0 91 -10 135 -40zM316 573l102 81l46 -36l-153 -121l-123 121l46 36z" />
    <glyph glyph-name="Dcaron" unicode="&#x10e;" horiz-adv-x="636" 
d="M86 0l82 667h121c75 0 181 -11 257 -83c41 -40 81 -106 81 -216c0 -77 -18 -185 -97 -266c-82 -84 -188 -102 -315 -102h-129zM233 597l-64 -527h49c109 0 193 18 254 79c67 67 77 161 77 213c0 53 -11 116 -60 166c-62 64 -144 69 -191 69h-65zM365 805l97 76l51 -41
l-154 -119l-126 119l53 41z" />
    <glyph glyph-name="dcaron" unicode="&#x10f;" horiz-adv-x="600" 
d="M432 356l46 373h72l-90 -729h-72l7 58c-16 -24 -37 -41 -58 -52c-25 -13 -52 -18 -81 -18c-46 0 -89 11 -127 47c-31 30 -61 81 -61 153c0 67 27 137 72 180c35 34 88 57 148 57c26 0 64 -7 90 -20c19 -10 39 -27 54 -49zM291 361c-35 0 -68 -10 -97 -37
c-28 -26 -52 -71 -52 -129c0 -53 21 -87 39 -106c28 -30 61 -37 92 -37c32 0 67 6 98 36c34 34 48 90 48 131c0 42 -14 80 -38 106c-25 27 -57 36 -90 36zM560 532l76 158l64 -30l-94 -150z" />
    <glyph glyph-name="Dcroat" unicode="&#x110;" horiz-adv-x="634" 
d="M84 0l42 336h-86l8 64h86l32 267h121c75 0 181 -11 257 -83c41 -40 81 -106 81 -216c0 -77 -18 -185 -97 -266c-82 -84 -188 -102 -315 -102h-129zM231 597l-24 -197h136l-8 -64h-136l-32 -266h49c109 0 193 18 254 79c67 67 77 161 77 213c0 53 -11 116 -60 166
c-62 64 -144 69 -191 69h-65z" />
    <glyph glyph-name="dcroat" unicode="&#x111;" horiz-adv-x="528" 
d="M388 0l7 58c-16 -24 -37 -41 -58 -52c-25 -13 -52 -18 -81 -18c-46 0 -89 11 -127 47c-31 30 -61 81 -61 153c0 67 27 137 72 180c35 34 88 57 148 57c26 0 64 -7 90 -20c19 -10 39 -27 54 -49l24 198h-200l7 60h200l15 115h72l-15 -115h98l-7 -60h-98l-68 -554h-72z
M291 361c-35 0 -68 -10 -97 -37c-28 -26 -52 -71 -52 -129c0 -53 21 -87 39 -106c28 -30 61 -37 92 -37c32 0 67 6 98 36c34 34 48 90 48 131c0 42 -14 80 -38 106c-25 27 -57 36 -90 36z" />
    <glyph glyph-name="Emacron" unicode="&#x112;" horiz-adv-x="482" 
d="M514 667l-9 -70h-272l-24 -198h264l-9 -70h-264l-31 -259h272l-9 -70h-346l82 667h346zM190 733l8 64h320l-8 -64h-320z" />
    <glyph glyph-name="emacron" unicode="&#x113;" horiz-adv-x="483" 
d="M395 139l61 -33c-19 -32 -49 -67 -77 -86c-41 -27 -85 -32 -120 -32c-49 0 -96 9 -137 52c-25 26 -55 72 -55 149c0 71 27 134 71 178c43 43 90 58 145 58c70 0 111 -25 135 -49c30 -31 58 -88 47 -183h-323c-1 -59 19 -92 37 -110c24 -24 52 -31 82 -31c24 0 53 4 80 23
c21 15 42 42 54 64zM154 253h242c-1 30 -14 62 -35 82c-23 22 -53 26 -76 26c-37 0 -66 -10 -91 -35c-18 -18 -33 -44 -40 -73zM141 513l7 60h302l-7 -60h-302z" />
    <glyph glyph-name="Edotaccent" unicode="&#x116;" horiz-adv-x="482" 
d="M514 667l-9 -70h-272l-24 -198h264l-9 -70h-264l-31 -259h272l-9 -70h-346l82 667h346zM300 776c0 22 9 37 20 47c12 11 25 16 41 16s28 -6 37 -14c11 -10 13 -22 13 -35c0 -18 -5 -31 -16 -43c-13 -14 -26 -18 -43 -18c-19 0 -31 5 -39 13c-6 6 -13 17 -13 34z" />
    <glyph glyph-name="edotaccent" unicode="&#x117;" horiz-adv-x="483" 
d="M395 139l61 -33c-19 -32 -49 -67 -77 -86c-41 -27 -85 -32 -120 -32c-49 0 -96 9 -137 52c-25 26 -55 72 -55 149c0 71 27 134 71 178c43 43 90 58 145 58c70 0 111 -25 135 -49c30 -31 58 -88 47 -183h-323c-1 -59 19 -92 37 -110c24 -24 52 -31 82 -31c24 0 53 4 80 23
c21 15 42 42 54 64zM154 253h242c-1 30 -14 62 -35 82c-23 22 -53 26 -76 26c-37 0 -66 -10 -91 -35c-18 -18 -33 -44 -40 -73zM244 546c0 19 7 33 17 43s25 17 42 17s28 -7 34 -13s13 -17 13 -35c0 -20 -9 -34 -17 -42c-13 -13 -26 -16 -40 -16c-9 0 -25 1 -37 13
c-3 4 -12 14 -12 33z" />
    <glyph glyph-name="Eogonek" unicode="&#x118;" horiz-adv-x="482" 
d="M514 667l-9 -70h-272l-24 -198h264l-9 -70h-264l-31 -259h272l-9 -70h-40c-14 -10 -34 -26 -47 -39c-12 -12 -29 -33 -29 -57c0 -15 8 -23 14 -27c8 -5 19 -7 27 -7c15 0 35 5 51 13l-16 -59c-16 -8 -37 -14 -57 -14c-21 0 -47 7 -62 20c-13 12 -24 33 -24 58
c0 28 13 48 27 65c22 25 48 43 54 47h-244l82 667h346z" />
    <glyph glyph-name="eogonek" unicode="&#x119;" horiz-adv-x="483" 
d="M395 139l61 -33c-5 -10 -19 -35 -43 -58c-19 -18 -46 -37 -57 -44c-16 -11 -36 -22 -56 -43c-22 -23 -29 -42 -29 -57c0 -10 3 -17 8 -22c11 -11 29 -12 38 -12c14 0 30 3 51 13l-15 -55c-23 -12 -46 -14 -60 -14c-29 0 -50 11 -63 23s-21 29 -21 51s8 42 21 59
c10 13 26 30 39 41c-61 0 -107 10 -147 52c-25 26 -55 72 -55 149c0 71 27 134 71 178c43 43 90 58 145 58c70 0 111 -25 135 -49c25 -26 49 -71 49 -142c0 -13 0 -27 -2 -41h-323c0 -59 19 -92 37 -110c24 -24 52 -31 82 -31c24 0 53 4 80 23c21 15 42 42 54 64zM154 253
h242c-1 30 -14 62 -35 82c-23 22 -53 26 -76 26c-37 0 -66 -10 -91 -35c-18 -18 -33 -44 -40 -73z" />
    <glyph glyph-name="Ecaron" unicode="&#x11a;" horiz-adv-x="482" 
d="M514 667l-9 -70h-272l-24 -198h264l-9 -70h-264l-31 -259h272l-9 -70h-346l82 667h346zM355 805l97 76l51 -41l-154 -119l-126 119l53 41z" />
    <glyph glyph-name="ecaron" unicode="&#x11b;" horiz-adv-x="483" 
d="M395 139l61 -33c-19 -32 -49 -67 -77 -86c-41 -27 -85 -32 -120 -32c-49 0 -96 9 -137 52c-25 26 -55 72 -55 149c0 71 27 134 71 178c43 43 90 58 145 58c70 0 111 -25 135 -49c30 -31 58 -88 47 -183h-323c-1 -59 19 -92 37 -110c24 -24 52 -31 82 -31c24 0 53 4 80 23
c21 15 42 42 54 64zM154 253h242c-1 30 -14 62 -35 82c-23 22 -53 26 -76 26c-37 0 -66 -10 -91 -35c-18 -18 -33 -44 -40 -73zM295 573l102 81l46 -36l-153 -121l-123 121l46 36z" />
    <glyph glyph-name="Gcircumflex" unicode="&#x11c;" horiz-adv-x="760" 
d="M465 265l8 70h278l-2 -16c-8 -62 -26 -155 -98 -232c-68 -73 -152 -99 -244 -99c-84 0 -164 24 -228 88c-49 49 -88 121 -88 223c0 119 49 211 110 272c80 81 172 107 275 107c64 0 120 -11 175 -46c47 -29 76 -66 95 -99l-61 -50c-18 36 -43 65 -81 89
c-39 25 -78 36 -129 36c-109 0 -180 -45 -219 -83c-61 -61 -89 -149 -89 -224c0 -67 26 -131 69 -175c53 -55 118 -68 178 -68c55 0 122 10 178 68c38 38 61 91 71 139h-198zM492 797l-97 -76l-51 41l154 119l126 -119l-53 -41z" />
    <glyph glyph-name="gcircumflex" unicode="&#x11d;" horiz-adv-x="526" 
d="M430 356l7 59h72l-49 -405c-8 -65 -16 -130 -65 -180c-27 -28 -77 -60 -162 -60c-72 0 -115 24 -140 49c-45 46 -47 110 -47 135v6h71v-4c0 -29 3 -65 33 -93c26 -24 59 -29 86 -29c54 0 87 19 105 37c37 36 42 89 46 127l6 60c-9 -14 -27 -36 -59 -52
c-23 -11 -51 -18 -80 -18c-59 0 -104 18 -137 53c-43 44 -52 98 -52 141c0 67 23 137 67 182c29 30 77 61 154 61c21 0 60 -2 92 -20c17 -9 37 -25 52 -49zM294 361c-39 0 -72 -12 -100 -38c-34 -32 -54 -80 -54 -136c0 -44 15 -80 37 -102c24 -24 54 -33 85 -33
c50 0 83 19 102 36c36 33 53 92 53 138c0 34 -12 74 -36 100c-18 19 -45 35 -87 35zM325 578l-102 -81l-46 36l153 121l123 -121l-46 -36z" />
    <glyph glyph-name="Gbreve" unicode="&#x11e;" horiz-adv-x="760" 
d="M465 265l8 70h278l-2 -16c-8 -62 -26 -155 -98 -232c-68 -73 -152 -99 -244 -99c-84 0 -164 24 -228 88c-49 49 -88 121 -88 223c0 119 49 211 110 272c80 81 172 107 275 107c64 0 120 -11 175 -46c47 -29 76 -66 95 -99l-61 -50c-18 36 -43 65 -81 89
c-39 25 -78 36 -129 36c-109 0 -180 -45 -219 -83c-61 -61 -89 -149 -89 -224c0 -67 26 -131 69 -175c53 -55 118 -68 178 -68c55 0 122 10 178 68c38 38 61 91 71 139h-198zM586 841h68c-10 -43 -34 -71 -56 -87c-25 -19 -62 -33 -109 -33c-29 0 -73 5 -107 39
c-16 16 -34 43 -38 81h64c5 -19 16 -33 27 -41c16 -12 38 -15 57 -15s43 4 59 14c14 8 27 23 35 42z" />
    <glyph glyph-name="gbreve" unicode="&#x11f;" horiz-adv-x="526" 
d="M430 356l7 59h72l-49 -405c-8 -65 -16 -130 -65 -180c-27 -28 -77 -60 -162 -60c-72 0 -115 24 -140 49c-45 46 -47 110 -47 135v6h71v-4c0 -29 3 -65 33 -93c26 -24 59 -29 86 -29c54 0 87 19 105 37c37 36 42 89 46 127l6 60c-9 -14 -27 -36 -59 -52
c-23 -11 -51 -18 -80 -18c-59 0 -104 18 -137 53c-43 44 -52 98 -52 141c0 67 23 137 67 182c29 30 77 61 154 61c21 0 60 -2 92 -20c17 -9 37 -25 52 -49zM294 361c-39 0 -72 -12 -100 -38c-34 -32 -54 -80 -54 -136c0 -44 15 -80 37 -102c24 -24 54 -33 85 -33
c50 0 83 19 102 36c36 33 53 92 53 138c0 34 -12 74 -36 100c-18 19 -45 35 -87 35zM181 617h59c3 -16 11 -33 22 -43c9 -8 25 -17 54 -17c26 0 47 7 61 18s25 27 31 42h63c-8 -27 -23 -57 -45 -79c-33 -33 -71 -41 -108 -41c-50 0 -81 16 -98 32c-21 20 -37 52 -39 88z" />
    <glyph glyph-name="Gdotaccent" unicode="&#x120;" horiz-adv-x="760" 
d="M465 265l8 70h278l-2 -16c-8 -62 -26 -155 -98 -232c-68 -73 -152 -99 -244 -99c-84 0 -164 24 -228 88c-49 49 -88 121 -88 223c0 119 49 211 110 272c80 81 172 107 275 107c64 0 120 -11 175 -46c47 -29 76 -66 95 -99l-61 -50c-18 36 -43 65 -81 89
c-39 25 -78 36 -129 36c-109 0 -180 -45 -219 -83c-61 -61 -89 -149 -89 -224c0 -67 26 -131 69 -175c53 -55 118 -68 178 -68c55 0 122 10 178 68c38 38 61 91 71 139h-198zM432 776c0 22 9 37 20 47c12 11 25 16 41 16s28 -6 37 -14c11 -10 13 -22 13 -35
c0 -18 -5 -31 -16 -43c-13 -14 -26 -18 -43 -18c-19 0 -31 5 -39 13c-6 6 -13 17 -13 34z" />
    <glyph glyph-name="gdotaccent" unicode="&#x121;" horiz-adv-x="526" 
d="M430 356l7 59h72l-49 -405c-8 -65 -16 -130 -65 -180c-27 -28 -77 -60 -162 -60c-72 0 -115 24 -140 49c-45 46 -47 110 -47 135v6h71v-4c0 -29 3 -65 33 -93c26 -24 59 -29 86 -29c54 0 87 19 105 37c37 36 42 89 46 127l6 60c-9 -14 -27 -36 -59 -52
c-23 -11 -51 -18 -80 -18c-59 0 -104 18 -137 53c-43 44 -52 98 -52 141c0 67 23 137 67 182c29 30 77 61 154 61c21 0 60 -2 92 -20c17 -9 37 -25 52 -49zM294 361c-39 0 -72 -12 -100 -38c-34 -32 -54 -80 -54 -136c0 -44 15 -80 37 -102c24 -24 54 -33 85 -33
c50 0 83 19 102 36c36 33 53 92 53 138c0 34 -12 74 -36 100c-18 19 -45 35 -87 35zM263 546c0 19 7 33 17 43s25 17 42 17s28 -7 34 -13s13 -17 13 -35c0 -20 -9 -34 -17 -42c-13 -13 -26 -16 -40 -16c-9 0 -25 1 -37 13c-3 4 -12 14 -12 33z" />
    <glyph glyph-name="Gcommaaccent" unicode="&#x122;" horiz-adv-x="760" 
d="M465 265l8 70h278l-2 -16c-8 -62 -26 -155 -98 -232c-68 -73 -152 -99 -244 -99c-84 0 -164 24 -228 88c-49 49 -88 121 -88 223c0 119 49 211 110 272c80 81 172 107 275 107c64 0 120 -11 175 -46c47 -29 76 -66 95 -99l-61 -50c-18 36 -43 65 -81 89
c-39 25 -78 36 -129 36c-109 0 -180 -45 -219 -83c-61 -61 -89 -149 -89 -224c0 -67 26 -131 69 -175c53 -55 118 -68 178 -68c55 0 122 10 178 68c38 38 61 91 71 139h-198zM301 -206l76 156l64 -30l-92 -150z" />
    <glyph glyph-name="gcommaaccent" unicode="&#x123;" horiz-adv-x="526" 
d="M430 356l7 59h72l-49 -405c-8 -65 -16 -130 -65 -180c-27 -28 -77 -60 -162 -60c-72 0 -115 24 -140 49c-45 46 -47 110 -47 135v6h71v-4c0 -29 3 -65 33 -93c26 -24 59 -29 86 -29c54 0 87 19 105 37c37 36 42 89 46 127l6 60c-9 -14 -27 -36 -59 -52
c-23 -11 -51 -18 -80 -18c-59 0 -104 18 -137 53c-43 44 -52 98 -52 141c0 67 23 137 67 182c29 30 77 61 154 61c21 0 60 -2 92 -20c17 -9 37 -25 52 -49zM294 361c-39 0 -72 -12 -100 -38c-34 -32 -54 -80 -54 -136c0 -44 15 -80 37 -102c24 -24 54 -33 85 -33
c50 0 83 19 102 36c36 33 53 92 53 138c0 34 -12 74 -36 100c-18 19 -45 35 -87 35zM394 646l-76 -156l-64 30l92 150z" />
    <glyph glyph-name="Hcircumflex" unicode="&#x124;" horiz-adv-x="662" 
d="M242 667l-33 -271h342l33 271h74l-82 -667h-74l40 326h-342l-40 -326h-74l82 667h74zM433 797l-97 -76l-51 41l154 119l126 -119l-53 -41z" />
    <glyph glyph-name="hcircumflex" unicode="&#x125;" horiz-adv-x="469" 
d="M68 0l90 729h72l-45 -362c2 3 20 25 42 39c26 16 54 19 76 19c30 0 69 -6 100 -36c28 -28 33 -62 33 -93c0 -21 -3 -44 -6 -69l-28 -227h-72l25 207c2 17 6 52 6 71c0 17 -2 43 -21 62c-12 12 -32 21 -58 21c-32 0 -58 -12 -74 -29c-28 -29 -36 -78 -41 -115l-27 -217
h-72zM200 818l-102 -81l-46 36l153 121l123 -121l-46 -36z" />
    <glyph glyph-name="Hbar" unicode="&#x126;" horiz-adv-x="663" 
d="M242 667l-7 -53h342l7 53h74l-7 -53h60l-7 -62h-60l-68 -552h-74l40 326h-342l-40 -326h-74l68 552h-60l7 62h60l7 53h74zM570 552h-342l-19 -156h342z" />
    <glyph glyph-name="hbar" unicode="&#x127;" horiz-adv-x="469" 
d="M68 0l68 554h-98l7 60h99l14 115h72l-14 -115h199l-7 -60h-200l-23 -187c2 3 20 25 42 39c26 16 54 19 76 19c30 0 69 -6 100 -36c28 -28 33 -62 33 -93c0 -21 -3 -44 -6 -69l-28 -227h-72l25 207c2 17 6 52 6 71c0 17 -2 43 -21 62c-12 12 -32 21 -58 21
c-32 0 -58 -12 -74 -29c-28 -29 -36 -78 -41 -115l-27 -217h-72z" />
    <glyph glyph-name="Imacron" unicode="&#x12a;" horiz-adv-x="246" 
d="M168 667h74l-82 -667h-74zM90 733l8 64h246l-8 -64h-246z" />
    <glyph glyph-name="imacron" unicode="&#x12b;" horiz-adv-x="208" 
d="M119 415h72l-51 -415h-72zM63 513l7 60h208l-7 -60h-208z" />
    <glyph glyph-name="Iogonek" unicode="&#x12e;" horiz-adv-x="246" 
d="M168 667h74l-82 -667c-14 -10 -34 -26 -47 -39c-12 -12 -29 -33 -29 -57c0 -15 8 -23 14 -27c8 -5 19 -7 27 -7c15 0 35 5 51 13l-16 -59c-16 -8 -37 -14 -57 -14c-21 0 -47 7 -62 20c-13 12 -24 33 -24 58c0 28 13 48 27 65c22 25 48 43 54 47h-12z" />
    <glyph glyph-name="iogonek" unicode="&#x12f;" horiz-adv-x="208" 
d="M119 415h72l-51 -415c-16 -10 -38 -25 -52 -39c-28 -28 -29 -51 -29 -57c0 -10 3 -17 8 -22c11 -11 29 -12 38 -12c14 0 30 3 51 13l-15 -55c-23 -12 -46 -14 -60 -14c-29 0 -50 11 -63 23c-10 10 -21 26 -21 50c0 19 6 46 32 74c13 14 31 28 53 39h-14zM123 566
c0 15 6 29 14 38c8 10 23 19 43 19c14 0 24 -4 32 -12c9 -9 13 -20 13 -33c0 -18 -7 -31 -16 -40c-13 -14 -29 -17 -40 -17c-13 0 -24 4 -34 14c-8 8 -12 19 -12 31z" />
    <glyph glyph-name="Idotaccent" unicode="&#x130;" horiz-adv-x="246" 
d="M168 667h74l-82 -667h-74zM164 776c0 22 9 37 20 47c12 11 25 16 41 16s28 -6 37 -14c11 -10 13 -22 13 -35c0 -18 -5 -31 -16 -43c-13 -14 -26 -18 -43 -18c-19 0 -31 5 -39 13c-6 6 -13 17 -13 34z" />
    <glyph glyph-name="dotlessi" unicode="&#x131;" horiz-adv-x="208" 
d="M119 415h72l-51 -415h-72z" />
    <glyph glyph-name="Jcircumflex" unicode="&#x134;" horiz-adv-x="299" 
d="M221 667h74l-59 -482c-8 -66 -20 -121 -55 -156c-14 -14 -49 -41 -116 -41c-24 0 -45 4 -67 15c-16 8 -32 19 -46 34l48 58c9 -11 19 -18 30 -25c14 -8 25 -12 43 -12c20 0 37 5 52 20s29 43 37 107zM277 797l-97 -76l-51 41l154 119l126 -119l-53 -41z" />
    <glyph glyph-name="jcircumflex" unicode="&#x135;" horiz-adv-x="208" 
d="M119 415h72l-80 -645h-72zM174 572l-83 -67l-39 35l131 106l105 -106l-47 -35z" />
    <glyph glyph-name="Kcommaaccent" unicode="&#x136;" horiz-adv-x="568" 
d="M242 667l-35 -286l319 286h100l-354 -312l278 -355h-98l-235 306l-22 -19l-35 -287h-74l82 667h74zM192 -206l76 156l64 -30l-92 -150z" />
    <glyph glyph-name="kcommaaccent" unicode="&#x137;" horiz-adv-x="422" 
d="M158 729h72l-58 -468l171 154h94l-202 -178l181 -237h-92l-143 189l-20 -18l-21 -171h-72zM120 -206l76 156l64 -30l-92 -150z" />
    <glyph glyph-name="Lacute" unicode="&#x139;" horiz-adv-x="358" 
d="M168 667h74l-73 -597h184l-9 -70h-258zM350 882l65 -45l-168 -117l-39 32z" />
    <glyph glyph-name="lacute" unicode="&#x13a;" horiz-adv-x="208" 
d="M158 729h72l-90 -729h-72zM253 926l70 -34l-151 -135l-42 24z" />
    <glyph glyph-name="Lcommaaccent" unicode="&#x13b;" horiz-adv-x="358" 
d="M168 667h74l-73 -597h184l-9 -70h-258zM121 -206l76 156l64 -30l-92 -150z" />
    <glyph glyph-name="lcommaaccent" unicode="&#x13c;" horiz-adv-x="208" 
d="M158 729h72l-90 -729h-72zM1 -206l76 156l64 -30l-92 -150z" />
    <glyph glyph-name="Lcaron" unicode="&#x13d;" horiz-adv-x="358" 
d="M168 667h74l-73 -597h184l-9 -70h-258zM280 522l76 158l64 -30l-94 -150z" />
    <glyph glyph-name="lcaron" unicode="&#x13e;" horiz-adv-x="280" 
d="M158 729h72l-90 -729h-72zM240 532l76 158l64 -30l-94 -150z" />
    <glyph glyph-name="Ldot" unicode="&#x13f;" horiz-adv-x="358" 
d="M168 667h74l-73 -597h184l-9 -70h-258zM286 326c0 22 9 37 20 47c12 11 25 16 41 16s28 -6 37 -14c11 -10 13 -22 13 -35c0 -18 -5 -31 -16 -43c-13 -14 -26 -18 -43 -18c-19 0 -31 5 -39 13c-6 6 -13 17 -13 34z" />
    <glyph glyph-name="ldot" unicode="&#x140;" horiz-adv-x="334" 
d="M158 729h72l-90 -729h-72zM258 357c0 19 7 33 17 43s25 17 42 17s28 -7 34 -13s13 -17 13 -35c0 -20 -9 -34 -17 -42c-13 -13 -26 -16 -40 -16c-9 0 -25 1 -37 13c-3 4 -12 14 -12 33z" />
    <glyph glyph-name="Lslash" unicode="&#x141;" horiz-adv-x="358" 
d="M168 667h74l-32 -261l108 64l-8 -64l-108 -64l-33 -272h184l-9 -70h-258l37 305l-92 -55l8 64l92 55z" />
    <glyph glyph-name="lslash" unicode="&#x142;" horiz-adv-x="208" 
d="M158 729h72l-29 -230l75 53l-8 -60l-74 -53l-54 -439h-72l48 393l-74 -53l7 60l75 53z" />
    <glyph glyph-name="Nacute" unicode="&#x143;" horiz-adv-x="766" 
d="M160 0h-74l85 695l453 -547l64 519h74l-86 -697l-453 547zM573 882l65 -45l-168 -117l-39 32z" />
    <glyph glyph-name="nacute" unicode="&#x144;" horiz-adv-x="469" 
d="M68 0l51 415h72l-6 -48c2 3 20 25 42 39c26 16 54 19 77 19c30 0 69 -6 99 -36c28 -28 33 -62 33 -93c0 -21 -3 -44 -6 -69l-28 -227h-72l25 207c2 17 6 52 6 71c0 17 -2 43 -21 62c-12 12 -32 21 -58 21c-32 0 -58 -12 -74 -29c-28 -29 -36 -78 -41 -115l-27 -217h-72z
M394 666l70 -34l-151 -135l-42 24z" />
    <glyph glyph-name="Ncommaaccent" unicode="&#x145;" horiz-adv-x="766" 
d="M160 0h-74l85 695l453 -547l64 519h74l-86 -697l-453 547zM281 -206l76 156l64 -30l-92 -150z" />
    <glyph glyph-name="ncommaaccent" unicode="&#x146;" horiz-adv-x="469" 
d="M68 0l51 415h72l-6 -48c2 3 20 25 42 39c26 16 54 19 77 19c30 0 69 -6 99 -36c28 -28 33 -62 33 -93c0 -21 -3 -44 -6 -69l-28 -227h-72l25 207c2 17 6 52 6 71c0 17 -2 43 -21 62c-12 12 -32 21 -58 21c-32 0 -58 -12 -74 -29c-28 -29 -36 -78 -41 -115l-27 -217h-72z
M121 -206l76 156l64 -30l-92 -150z" />
    <glyph glyph-name="Ncaron" unicode="&#x147;" horiz-adv-x="766" 
d="M160 0h-74l85 695l453 -547l64 519h74l-86 -697l-453 547zM478 805l97 76l51 -41l-154 -119l-126 119l53 41z" />
    <glyph glyph-name="ncaron" unicode="&#x148;" horiz-adv-x="469" 
d="M68 0l51 415h72l-6 -48c2 3 20 25 42 39c26 16 54 19 77 19c30 0 69 -6 99 -36c28 -28 33 -62 33 -93c0 -21 -3 -44 -6 -69l-28 -227h-72l25 207c2 17 6 52 6 71c0 17 -2 43 -21 62c-12 12 -32 21 -58 21c-32 0 -58 -12 -74 -29c-28 -29 -36 -78 -41 -115l-27 -217h-72z
M306 573l102 81l46 -36l-153 -121l-123 121l46 36z" />
    <glyph glyph-name="Omacron" unicode="&#x14c;" horiz-adv-x="800" 
d="M399 -12c-73 0 -156 19 -222 87c-41 42 -86 114 -86 221c0 137 60 226 114 277c73 70 163 105 274 105c73 0 155 -16 224 -84c43 -42 88 -112 88 -218c0 -103 -37 -210 -112 -283c-58 -56 -153 -105 -280 -105zM471 608c-85 0 -159 -31 -211 -79
c-47 -44 -92 -117 -92 -219c0 -82 30 -144 69 -184c35 -36 89 -68 170 -68c90 0 167 32 216 80c59 57 91 145 91 224c0 75 -29 137 -70 178c-33 33 -88 68 -173 68zM320 733l8 64h320l-8 -64h-320z" />
    <glyph glyph-name="omacron" unicode="&#x14d;" horiz-adv-x="528" 
d="M268 -12c-59 0 -108 15 -148 57c-29 31 -53 78 -53 145c0 60 20 122 75 173c46 42 99 62 166 62c68 0 117 -22 152 -57c42 -42 51 -93 51 -136c0 -90 -37 -148 -70 -180c-53 -52 -117 -64 -173 -64zM307 361c-28 0 -73 -7 -113 -46c-35 -34 -53 -80 -53 -130
c0 -47 20 -77 36 -94c15 -16 45 -39 96 -39c52 0 89 22 113 48c31 33 50 83 50 131c0 42 -16 73 -34 92c-21 22 -54 38 -95 38zM168 513l7 60h302l-7 -60h-302z" />
    <glyph glyph-name="Obreve" unicode="&#x14e;" horiz-adv-x="800" 
d="M399 -12c-73 0 -156 19 -222 87c-41 42 -86 114 -86 221c0 137 60 226 114 277c73 70 163 105 274 105c73 0 155 -16 224 -84c43 -42 88 -112 88 -218c0 -103 -37 -210 -112 -283c-58 -56 -153 -105 -280 -105zM471 608c-85 0 -159 -31 -211 -79
c-47 -44 -92 -117 -92 -219c0 -82 30 -144 69 -184c35 -36 89 -68 170 -68c90 0 167 32 216 80c59 57 91 145 91 224c0 75 -29 137 -70 178c-33 33 -88 68 -173 68zM580 841h68c-10 -43 -34 -71 -56 -87c-25 -19 -62 -33 -109 -33c-29 0 -73 5 -107 39c-16 16 -34 43 -38 81
h64c5 -19 16 -33 27 -41c16 -12 38 -15 57 -15s43 4 59 14c14 8 27 23 35 42z" />
    <glyph glyph-name="obreve" unicode="&#x14f;" horiz-adv-x="528" 
d="M268 -12c-59 0 -108 15 -148 57c-29 31 -53 78 -53 145c0 60 20 122 75 173c46 42 99 62 166 62c68 0 117 -22 152 -57c42 -42 51 -93 51 -136c0 -90 -37 -148 -70 -180c-53 -52 -117 -64 -173 -64zM307 361c-28 0 -73 -7 -113 -46c-35 -34 -53 -80 -53 -130
c0 -47 20 -77 36 -94c15 -16 45 -39 96 -39c52 0 89 22 113 48c31 33 50 83 50 131c0 42 -16 73 -34 92c-21 22 -54 38 -95 38zM181 617h59c3 -16 11 -33 22 -43c9 -8 25 -17 54 -17c26 0 47 7 61 18s25 27 31 42h63c-8 -27 -23 -57 -45 -79c-33 -33 -71 -41 -108 -41
c-50 0 -81 16 -98 32c-21 20 -37 52 -39 88z" />
    <glyph glyph-name="Ohungarumlaut" unicode="&#x150;" horiz-adv-x="800" 
d="M399 -12c-73 0 -156 19 -222 87c-41 42 -86 114 -86 221c0 137 60 226 114 277c73 70 163 105 274 105c73 0 155 -16 224 -84c43 -42 88 -112 88 -218c0 -103 -37 -210 -112 -283c-58 -56 -153 -105 -280 -105zM471 608c-85 0 -159 -31 -211 -79
c-47 -44 -92 -117 -92 -219c0 -82 30 -144 69 -184c35 -36 89 -68 170 -68c90 0 167 32 216 80c59 57 91 145 91 224c0 75 -29 137 -70 178c-33 33 -88 68 -173 68zM502 882l65 -40l-162 -122l-39 26zM652 882l65 -40l-162 -122l-39 26z" />
    <glyph glyph-name="ohungarumlaut" unicode="&#x151;" horiz-adv-x="528" 
d="M268 -12c-59 0 -108 15 -148 57c-29 31 -53 78 -53 145c0 60 20 122 75 173c46 42 99 62 166 62c68 0 117 -22 152 -57c42 -42 51 -93 51 -136c0 -90 -37 -148 -70 -180c-53 -52 -117 -64 -173 -64zM307 361c-28 0 -73 -7 -113 -46c-35 -34 -53 -80 -53 -130
c0 -47 20 -77 36 -94c15 -16 45 -39 96 -39c52 0 89 22 113 48c31 33 50 83 50 131c0 42 -16 73 -34 92c-21 22 -54 38 -95 38zM332 666l68 -32l-154 -136l-38 23zM466 666l66 -32l-152 -136l-38 23z" />
    <glyph glyph-name="OE" unicode="&#x152;" horiz-adv-x="1059" 
d="M1091 667l-9 -70h-267l-24 -198h260l-9 -70h-260l-31 -259h267l-9 -70h-341l15 113c-31 -36 -75 -74 -114 -93c-14 -7 -68 -32 -161 -32c-71 0 -159 13 -231 87c-40 41 -86 113 -86 225c0 128 54 217 113 273c80 76 181 105 272 105c56 0 122 -16 173 -51
c11 -7 52 -37 85 -93l16 133h341zM467 608c-81 0 -154 -30 -207 -79c-47 -44 -92 -117 -92 -219c0 -82 30 -144 69 -184c34 -35 89 -68 173 -68c89 0 162 33 210 80c59 57 91 145 91 224c0 75 -29 137 -70 178c-32 32 -88 68 -174 68z" />
    <glyph glyph-name="oe" unicode="&#x153;" horiz-adv-x="854" 
d="M766 139l61 -33c-19 -32 -49 -67 -77 -86c-40 -27 -86 -32 -120 -32c-48 0 -83 12 -108 28c-28 18 -50 46 -63 73c-20 -27 -49 -56 -73 -71c-34 -21 -79 -30 -118 -30c-58 0 -108 15 -148 57c-29 31 -53 78 -53 145c0 70 28 131 73 173c44 42 100 62 169 62
c36 0 72 -7 106 -26c35 -20 55 -46 66 -67c21 36 49 56 69 67c29 16 66 26 108 26c64 0 107 -24 131 -49c30 -31 58 -88 47 -182h-327c-1 -53 14 -88 37 -111c24 -24 51 -31 82 -31c28 0 57 4 84 23c21 15 42 42 54 64zM522 254h247c-1 35 -16 63 -35 81
c-24 22 -52 26 -78 26c-34 0 -65 -6 -94 -35c-18 -18 -33 -44 -40 -72zM305 361c-44 0 -84 -17 -112 -45c-29 -29 -51 -74 -51 -129c0 -43 15 -74 36 -96c19 -20 50 -39 97 -39c52 0 87 23 110 47c33 34 49 82 49 130c0 45 -16 75 -34 94c-21 22 -54 38 -95 38z" />
    <glyph glyph-name="Racute" unicode="&#x154;" horiz-adv-x="505" 
d="M168 667h107c55 0 118 -3 167 -49c39 -36 48 -80 48 -119c0 -53 -12 -103 -53 -142c-36 -35 -91 -55 -140 -59l175 -298h-90l-167 292h-19l-36 -292h-74zM233 597l-29 -239h47c31 0 87 2 124 35c20 18 39 51 39 95c0 51 -25 78 -45 90s-64 19 -94 19h-42zM420 882l65 -45
l-168 -117l-39 32z" />
    <glyph glyph-name="racute" unicode="&#x155;" horiz-adv-x="296" 
d="M68 0l51 415h72l-6 -45c8 13 21 28 42 40c20 11 38 15 60 15c25 0 44 -6 61 -17l-42 -65c-8 6 -21 14 -43 14c-20 0 -39 -6 -55 -22c-29 -28 -36 -75 -41 -116l-27 -219h-72zM334 666l70 -34l-151 -135l-42 24z" />
    <glyph glyph-name="Rcommaaccent" unicode="&#x156;" horiz-adv-x="505" 
d="M168 667h107c55 0 118 -3 167 -49c39 -36 48 -80 48 -119c0 -53 -12 -103 -53 -142c-36 -35 -91 -55 -140 -59l175 -298h-90l-167 292h-19l-36 -292h-74zM233 597l-29 -239h47c31 0 87 2 124 35c20 18 39 51 39 95c0 51 -25 78 -45 90s-64 19 -94 19h-42zM161 -206
l76 156l64 -30l-92 -150z" />
    <glyph glyph-name="rcommaaccent" unicode="&#x157;" horiz-adv-x="296" 
d="M68 0l51 415h72l-6 -45c8 13 21 28 42 40c20 11 38 15 60 15c25 0 44 -6 61 -17l-42 -65c-8 6 -21 14 -43 14c-20 0 -39 -6 -55 -22c-29 -28 -36 -75 -41 -116l-27 -219h-72zM41 -206l76 156l64 -30l-92 -150z" />
    <glyph glyph-name="Rcaron" unicode="&#x158;" horiz-adv-x="505" 
d="M168 667h107c55 0 118 -3 167 -49c39 -36 48 -80 48 -119c0 -53 -12 -103 -53 -142c-36 -35 -91 -55 -140 -59l175 -298h-90l-167 292h-19l-36 -292h-74zM233 597l-29 -239h47c31 0 87 2 124 35c20 18 39 51 39 95c0 51 -25 78 -45 90s-64 19 -94 19h-42zM325 805l97 76
l51 -41l-154 -119l-126 119l53 41z" />
    <glyph glyph-name="rcaron" unicode="&#x159;" horiz-adv-x="296" 
d="M68 0l51 415h72l-6 -45c8 13 21 28 42 40c20 11 38 15 60 15c25 0 44 -6 61 -17l-42 -65c-8 6 -21 14 -43 14c-20 0 -39 -6 -55 -22c-29 -28 -36 -75 -41 -116l-27 -219h-72zM266 573l102 81l46 -36l-153 -121l-123 121l46 36z" />
    <glyph glyph-name="Sacute" unicode="&#x15a;" horiz-adv-x="518" 
d="M513 574l-63 -39c-8 23 -22 40 -37 52c-25 19 -52 21 -75 21c-25 0 -57 -4 -84 -28c-20 -18 -35 -48 -35 -79c0 -21 8 -43 28 -61c13 -12 42 -28 56 -35l60 -28c31 -14 61 -32 85 -57c38 -39 45 -74 45 -117c0 -39 -7 -100 -56 -151c-56 -58 -126 -64 -173 -64
c-54 0 -98 10 -138 50c-29 30 -51 74 -56 122l74 20c2 -34 15 -65 36 -87c29 -30 62 -35 95 -35c32 0 73 5 104 37c25 26 36 65 36 97c0 40 -18 69 -36 85c-13 12 -44 30 -65 40l-53 25c-18 8 -57 28 -79 51c-18 19 -38 51 -38 103c0 47 14 89 52 126c42 41 91 56 147 56
c29 0 74 -4 110 -28c26 -17 48 -45 60 -76zM449 882l65 -45l-168 -117l-39 32z" />
    <glyph glyph-name="sacute" unicode="&#x15b;" horiz-adv-x="350" 
d="M339 350l-63 -31c-4 13 -11 22 -17 28c-11 11 -22 14 -36 14c-15 0 -28 -3 -40 -13c-11 -10 -16 -23 -16 -37s6 -23 12 -29c10 -10 26 -17 41 -24l38 -19c16 -8 40 -24 53 -37c20 -22 27 -47 27 -74c0 -38 -13 -72 -35 -96c-37 -40 -89 -44 -119 -44s-59 4 -87 27
c-23 19 -41 48 -49 79l63 26c4 -15 13 -36 25 -49c14 -14 31 -19 50 -19c13 0 37 1 56 18c14 13 21 33 21 53c0 18 -8 32 -22 43c-7 6 -29 18 -43 25l-23 11c-17 8 -42 23 -55 38c-17 19 -23 41 -23 65c0 38 16 66 35 85c29 29 62 35 94 35c26 0 50 -5 75 -25
c16 -13 30 -31 38 -50zM320 666l70 -34l-151 -135l-42 24z" />
    <glyph glyph-name="Scircumflex" unicode="&#x15c;" horiz-adv-x="518" 
d="M513 574l-63 -39c-8 23 -22 40 -37 52c-25 19 -52 21 -75 21c-25 0 -57 -4 -84 -28c-20 -18 -35 -48 -35 -79c0 -21 8 -43 28 -61c13 -12 42 -28 56 -35l60 -28c31 -14 61 -32 85 -57c38 -39 45 -74 45 -117c0 -39 -7 -100 -56 -151c-56 -58 -126 -64 -173 -64
c-54 0 -98 10 -138 50c-29 30 -51 74 -56 122l74 20c2 -34 15 -65 36 -87c29 -30 62 -35 95 -35c32 0 73 5 104 37c25 26 36 65 36 97c0 40 -18 69 -36 85c-13 12 -44 30 -65 40l-53 25c-18 8 -57 28 -79 51c-18 19 -38 51 -38 103c0 47 14 89 52 126c42 41 91 56 147 56
c29 0 74 -4 110 -28c26 -17 48 -45 60 -76zM362 797l-97 -76l-51 41l154 119l126 -119l-53 -41z" />
    <glyph glyph-name="scircumflex" unicode="&#x15d;" horiz-adv-x="350" 
d="M339 350l-63 -31c-4 13 -11 22 -17 28c-11 11 -22 14 -36 14c-15 0 -28 -3 -40 -13c-11 -10 -16 -23 -16 -37s6 -23 12 -29c10 -10 26 -17 41 -24l38 -19c16 -8 40 -24 53 -37c20 -22 27 -47 27 -74c0 -38 -13 -72 -35 -96c-37 -40 -89 -44 -119 -44s-59 4 -87 27
c-23 19 -41 48 -49 79l63 26c4 -15 13 -36 25 -49c14 -14 31 -19 50 -19c13 0 37 1 56 18c14 13 21 33 21 53c0 18 -8 32 -22 43c-7 6 -29 18 -43 25l-23 11c-17 8 -42 23 -55 38c-17 19 -23 41 -23 65c0 38 16 66 35 85c29 29 62 35 94 35c26 0 50 -5 75 -25
c16 -13 30 -31 38 -50zM249 578l-102 -81l-46 36l153 121l123 -121l-46 -36z" />
    <glyph glyph-name="Scedilla" unicode="&#x15e;" horiz-adv-x="518" 
d="M513 574l-63 -39c-8 23 -22 40 -37 52c-25 19 -52 21 -75 21c-25 0 -57 -4 -84 -28c-20 -18 -35 -48 -35 -79c0 -21 8 -43 28 -61c13 -12 42 -28 56 -35l60 -28c31 -14 61 -32 85 -57c38 -39 45 -74 45 -117c0 -39 -7 -100 -56 -151c-56 -58 -126 -64 -173 -64
c-54 0 -98 10 -138 50c-29 30 -51 74 -56 122l74 20c2 -34 15 -65 36 -87c29 -30 62 -35 95 -35c32 0 73 5 104 37c25 26 36 65 36 97c0 40 -18 69 -36 85c-13 12 -44 30 -65 40l-53 25c-18 8 -57 28 -79 51c-18 19 -38 51 -38 103c0 47 14 89 52 126c42 41 91 56 147 56
c29 0 74 -4 110 -28c26 -17 48 -45 60 -76zM248 -52l66 -30l-120 -128l-47 26z" />
    <glyph glyph-name="scedilla" unicode="&#x15f;" horiz-adv-x="350" 
d="M339 350l-63 -31c-4 13 -11 22 -17 28c-11 11 -22 14 -36 14c-15 0 -28 -3 -40 -13c-11 -10 -16 -23 -16 -37s6 -23 12 -29c10 -10 26 -17 41 -24l38 -19c16 -8 40 -24 53 -37c20 -22 27 -47 27 -74c0 -38 -13 -72 -35 -96c-37 -40 -89 -44 -119 -44s-59 4 -87 27
c-23 19 -41 48 -49 79l63 26c4 -15 13 -36 25 -49c14 -14 31 -19 50 -19c13 0 37 1 56 18c14 13 21 33 21 53c0 18 -8 32 -22 43c-7 6 -29 18 -43 25l-23 11c-17 8 -42 23 -55 38c-17 19 -23 41 -23 65c0 38 16 66 35 85c29 29 62 35 94 35c26 0 50 -5 75 -25
c16 -13 30 -31 38 -50zM170 -52l62 -27l-116 -128l-46 24z" />
    <glyph glyph-name="Scaron" unicode="&#x160;" horiz-adv-x="518" 
d="M513 574l-63 -39c-8 23 -22 40 -37 52c-25 19 -52 21 -75 21c-25 0 -57 -4 -84 -28c-20 -18 -35 -48 -35 -79c0 -21 8 -43 28 -61c13 -12 42 -28 56 -35l60 -28c31 -14 61 -32 85 -57c38 -39 45 -74 45 -117c0 -39 -7 -100 -56 -151c-56 -58 -126 -64 -173 -64
c-54 0 -98 10 -138 50c-29 30 -51 74 -56 122l74 20c2 -34 15 -65 36 -87c29 -30 62 -35 95 -35c32 0 73 5 104 37c25 26 36 65 36 97c0 40 -18 69 -36 85c-13 12 -44 30 -65 40l-53 25c-18 8 -57 28 -79 51c-18 19 -38 51 -38 103c0 47 14 89 52 126c42 41 91 56 147 56
c29 0 74 -4 110 -28c26 -17 48 -45 60 -76zM355 805l97 76l51 -41l-154 -119l-126 119l53 41z" />
    <glyph glyph-name="scaron" unicode="&#x161;" horiz-adv-x="350" 
d="M339 350l-63 -31c-4 13 -11 22 -17 28c-11 11 -22 14 -36 14c-15 0 -28 -3 -40 -13c-11 -10 -16 -23 -16 -37s6 -23 12 -29c10 -10 26 -17 41 -24l38 -19c16 -8 40 -24 53 -37c20 -22 27 -47 27 -74c0 -38 -13 -72 -35 -96c-37 -40 -89 -44 -119 -44s-59 4 -87 27
c-23 19 -41 48 -49 79l63 26c4 -15 13 -36 25 -49c14 -14 31 -19 50 -19c13 0 37 1 56 18c14 13 21 33 21 53c0 18 -8 32 -22 43c-7 6 -29 18 -43 25l-23 11c-17 8 -42 23 -55 38c-17 19 -23 41 -23 65c0 38 16 66 35 85c29 29 62 35 94 35c26 0 50 -5 75 -25
c16 -13 30 -31 38 -50zM240 573l102 81l46 -36l-153 -121l-123 121l46 36z" />
    <glyph glyph-name="Tcedilla" unicode="&#x162;" horiz-adv-x="426" 
d="M485 597h-162l-73 -597h-74l73 597h-162l9 70h398zM198 -52l66 -30l-120 -128l-47 26z" />
    <glyph glyph-name="tcedilla" unicode="&#x163;" horiz-adv-x="214" 
d="M257 349h-72l-43 -349h-72l43 349h-44l8 66h44l18 150h72l-18 -150h72zM90 -52l62 -27l-116 -128l-46 24z" />
    <glyph glyph-name="Tcaron" unicode="&#x164;" horiz-adv-x="426" 
d="M485 597h-162l-73 -597h-74l73 597h-162l9 70h398zM308 805l97 76l51 -41l-154 -119l-126 119l53 41z" />
    <glyph glyph-name="tcaron" unicode="&#x165;" horiz-adv-x="280" 
d="M257 349h-72l-43 -349h-72l43 349h-44l8 66h44l18 150h72l-18 -150h72zM240 532l76 158l64 -30l-94 -150z" />
    <glyph glyph-name="Utilde" unicode="&#x168;" horiz-adv-x="646" 
d="M242 667l-48 -392c-4 -30 -7 -54 -7 -80c0 -37 12 -73 43 -101c35 -32 73 -36 112 -36c33 0 86 2 126 47c38 43 45 112 50 153l50 409h74l-53 -429c-9 -73 -21 -136 -78 -190s-124 -60 -177 -60c-62 0 -117 12 -163 56c-31 30 -58 74 -58 138c0 21 5 83 7 101l48 384h74z
M538 842l39 -35c-9 -19 -20 -31 -35 -44c-18 -15 -37 -28 -68 -28c-24 0 -41 8 -54 15l-21 12c-14 8 -26 15 -44 15c-13 0 -22 -3 -32 -14c-7 -7 -16 -20 -21 -30l-40 36c10 16 25 36 40 48c20 17 41 24 64 24s43 -9 57 -17l25 -14c7 -4 21 -11 35 -11c9 0 22 3 34 14
c8 8 16 19 21 29z" />
    <glyph glyph-name="utilde" unicode="&#x169;" horiz-adv-x="465" 
d="M190 415l-27 -219c-2 -19 -4 -34 -4 -54c0 -27 3 -50 25 -69c16 -14 39 -21 62 -21c29 0 52 11 67 25c24 24 29 61 35 108l28 230h72l-29 -238c-7 -55 -14 -108 -51 -146c-38 -38 -89 -43 -120 -43c-56 0 -94 14 -121 38c-32 28 -41 63 -41 105c0 20 4 53 6 71l26 213h72
zM181 497l-38 34c10 15 25 32 40 45c17 14 34 24 62 24c29 0 48 -11 65 -20l17 -9c10 -5 22 -11 37 -11c14 0 25 5 35 15c6 7 15 20 20 28l37 -34c-9 -16 -23 -36 -36 -47c-18 -16 -39 -22 -61 -22c-23 0 -42 8 -55 14l-22 11c-15 7 -29 15 -44 15s-25 -7 -34 -16
c-12 -11 -22 -25 -23 -27z" />
    <glyph glyph-name="Umacron" unicode="&#x16a;" horiz-adv-x="646" 
d="M242 667l-48 -392c-4 -30 -7 -54 -7 -80c0 -37 12 -73 43 -101c35 -32 73 -36 112 -36c33 0 86 2 126 47c38 43 45 112 50 153l50 409h74l-53 -429c-9 -73 -21 -136 -78 -190s-124 -60 -177 -60c-62 0 -117 12 -163 56c-31 30 -58 74 -58 138c0 21 5 83 7 101l48 384h74z
M253 733l8 64h320l-8 -64h-320z" />
    <glyph glyph-name="umacron" unicode="&#x16b;" horiz-adv-x="465" 
d="M190 415l-27 -219c-2 -19 -4 -34 -4 -54c0 -27 3 -50 25 -69c16 -14 39 -21 62 -21c29 0 52 11 67 25c24 24 29 61 35 108l28 230h72l-29 -238c-7 -55 -14 -108 -51 -146c-38 -38 -89 -43 -120 -43c-56 0 -94 14 -121 38c-32 28 -41 63 -41 105c0 20 4 53 6 71l26 213h72
zM145 513l7 60h302l-7 -60h-302z" />
    <glyph glyph-name="Ubreve" unicode="&#x16c;" horiz-adv-x="646" 
d="M242 667l-48 -392c-4 -30 -7 -54 -7 -80c0 -37 12 -73 43 -101c35 -32 73 -36 112 -36c33 0 86 2 126 47c38 43 45 112 50 153l50 409h74l-53 -429c-9 -73 -21 -136 -78 -190s-124 -60 -177 -60c-62 0 -117 12 -163 56c-31 30 -58 74 -58 138c0 21 5 83 7 101l48 384h74z
M513 841h68c-10 -43 -34 -71 -56 -87c-25 -19 -62 -33 -109 -33c-29 0 -73 5 -107 39c-16 16 -34 43 -38 81h64c5 -19 16 -33 27 -41c16 -12 38 -15 57 -15s43 4 59 14c14 8 27 23 35 42z" />
    <glyph glyph-name="ubreve" unicode="&#x16d;" horiz-adv-x="465" 
d="M190 415l-27 -219c-2 -19 -4 -34 -4 -54c0 -27 3 -50 25 -69c16 -14 39 -21 62 -21c29 0 52 11 67 25c24 24 29 61 35 108l28 230h72l-29 -238c-7 -55 -14 -108 -51 -146c-38 -38 -89 -43 -120 -43c-56 0 -94 14 -121 38c-32 28 -41 63 -41 105c0 20 4 53 6 71l26 213h72
zM156 617h59c3 -16 11 -33 22 -43c9 -8 25 -17 54 -17c26 0 47 7 61 18s25 27 31 42h63c-8 -27 -23 -57 -45 -79c-33 -33 -71 -41 -108 -41c-50 0 -81 16 -98 32c-21 20 -37 52 -39 88z" />
    <glyph glyph-name="Uring" unicode="&#x16e;" horiz-adv-x="646" 
d="M242 667l-48 -392c-4 -30 -7 -54 -7 -80c0 -37 12 -73 43 -101c35 -32 73 -36 112 -36c33 0 86 2 126 47c38 43 45 112 50 153l50 409h74l-53 -429c-9 -73 -21 -136 -78 -190s-124 -60 -177 -60c-62 0 -117 12 -163 56c-31 30 -58 74 -58 138c0 21 5 83 7 101l48 384h74z
M334 809c0 29 13 55 29 71s37 26 67 26c33 0 51 -14 61 -24c6 -7 21 -25 21 -58c0 -28 -11 -52 -28 -69c-15 -14 -37 -25 -68 -25c-19 0 -40 4 -58 21c-11 11 -24 29 -24 58zM382 814c0 -9 2 -18 10 -26c5 -5 14 -11 28 -11c11 0 23 4 32 12c8 7 14 19 14 33
c0 13 -5 23 -12 29c-7 7 -18 10 -28 10c-12 0 -23 -4 -31 -12c-4 -4 -13 -15 -13 -35z" />
    <glyph glyph-name="uring" unicode="&#x16f;" horiz-adv-x="465" 
d="M190 415l-27 -219c-2 -19 -4 -34 -4 -54c0 -27 3 -50 25 -69c16 -14 39 -21 62 -21c29 0 52 11 67 25c24 24 29 61 35 108l28 230h72l-29 -238c-7 -55 -14 -108 -51 -146c-38 -38 -89 -43 -120 -43c-56 0 -94 14 -121 38c-32 28 -41 63 -41 105c0 20 4 53 6 71l26 213h72
zM210 575c0 29 11 55 27 70c19 19 42 24 63 24c31 0 50 -11 61 -22c18 -18 22 -41 22 -60c0 -25 -6 -46 -25 -65c-20 -19 -41 -25 -67 -25c-22 0 -42 4 -59 21c-10 10 -22 28 -22 57zM255 579c0 -11 4 -20 10 -26c6 -7 15 -12 30 -12c16 0 26 7 31 12c8 8 13 20 13 34
s-5 23 -11 28c-7 7 -19 10 -29 10c-12 0 -22 -3 -31 -12s-13 -22 -13 -34z" />
    <glyph glyph-name="Uhungarumlaut" unicode="&#x170;" horiz-adv-x="646" 
d="M242 667l-48 -392c-4 -30 -7 -54 -7 -80c0 -37 12 -73 43 -101c35 -32 73 -36 112 -36c33 0 86 2 126 47c38 43 45 112 50 153l50 409h74l-53 -429c-9 -73 -21 -136 -78 -190s-124 -60 -177 -60c-62 0 -117 12 -163 56c-31 30 -58 74 -58 138c0 21 5 83 7 101l48 384h74z
M435 882l65 -40l-162 -122l-39 26zM585 882l65 -40l-162 -122l-39 26z" />
    <glyph glyph-name="uhungarumlaut" unicode="&#x171;" horiz-adv-x="465" 
d="M190 415l-27 -219c-2 -19 -4 -34 -4 -54c0 -27 3 -50 25 -69c16 -14 39 -21 62 -21c29 0 52 11 67 25c24 24 29 61 35 108l28 230h72l-29 -238c-7 -55 -14 -108 -51 -146c-38 -38 -89 -43 -120 -43c-56 0 -94 14 -121 38c-32 28 -41 63 -41 105c0 20 4 53 6 71l26 213h72
zM307 666l68 -32l-154 -136l-38 23zM441 666l66 -32l-152 -136l-38 23z" />
    <glyph glyph-name="Uogonek" unicode="&#x172;" horiz-adv-x="646" 
d="M242 667l-48 -392c-4 -30 -7 -54 -7 -80c0 -37 12 -73 43 -101c36 -33 77 -36 112 -36c38 0 89 6 126 47c37 40 44 103 49 145l51 417h74l-53 -429c-7 -60 -13 -123 -72 -184c-30 -32 -56 -44 -81 -58c-37 -20 -54 -32 -65 -43c-19 -19 -23 -37 -23 -49
c0 -15 8 -23 14 -27c7 -5 19 -7 28 -7c17 0 37 6 50 13l-16 -59c-16 -8 -37 -14 -57 -14c-22 0 -47 7 -62 20c-10 8 -24 26 -24 58c0 22 6 39 21 58c14 19 31 33 48 43c-7 -1 -13 -1 -20 -1c-54 0 -117 18 -159 56c-31 28 -58 75 -58 140c0 19 5 81 7 99l48 384h74z" />
    <glyph glyph-name="uogonek" unicode="&#x173;" horiz-adv-x="465" 
d="M190 415l-27 -219c-2 -19 -4 -34 -4 -54c0 -27 3 -50 25 -69c16 -14 39 -21 62 -21c29 0 52 11 67 25c24 24 29 61 35 108l28 230h72l-29 -238c-8 -70 -15 -109 -57 -152c-12 -12 -26 -23 -39 -34c-12 -10 -23 -19 -34 -30c-25 -26 -29 -46 -29 -57c0 -10 3 -17 8 -22
c11 -11 29 -12 38 -12c14 0 30 3 51 13l-15 -55c-23 -12 -46 -14 -60 -14c-29 0 -50 11 -63 23c-12 12 -21 28 -21 50c0 20 7 40 20 59c11 15 28 31 42 42c-54 -1 -99 8 -133 38c-32 28 -41 63 -41 105c0 20 4 53 6 71l26 213h72z" />
    <glyph glyph-name="Ydieresis" unicode="&#x178;" horiz-adv-x="530" 
d="M227 0l35 287l-172 380h84l133 -298l209 298h88l-268 -380l-35 -287h-74zM405 778c0 10 2 24 15 38s29 19 42 19c11 0 23 -4 32 -12c6 -6 13 -16 13 -31s-6 -31 -16 -42c-8 -8 -21 -17 -40 -17c-18 0 -29 8 -34 13c-7 7 -12 19 -12 32zM215 778c0 10 2 24 15 38
s29 19 42 19c11 0 23 -4 32 -12c6 -6 13 -16 13 -31s-6 -31 -16 -42c-8 -8 -21 -17 -40 -17c-18 0 -29 8 -34 13c-7 7 -12 19 -12 32z" />
    <glyph glyph-name="Zacute" unicode="&#x179;" horiz-adv-x="536" 
d="M594 667l-437 -597h354l-9 -70h-478l437 597h-317l9 70h441zM458 882l65 -45l-168 -117l-39 32z" />
    <glyph glyph-name="zacute" unicode="&#x17a;" horiz-adv-x="460" 
d="M503 415l-343 -349h288l-8 -66h-432l343 349h-242l8 66h386zM384 666l70 -34l-151 -135l-42 24z" />
    <glyph glyph-name="Zdotaccent" unicode="&#x17b;" horiz-adv-x="536" 
d="M594 667l-437 -597h354l-9 -70h-478l437 597h-317l9 70h441zM320 776c0 22 9 37 20 47c12 11 25 16 41 16s28 -6 37 -14c11 -10 13 -22 13 -35c0 -18 -5 -31 -16 -43c-13 -14 -26 -18 -43 -18c-19 0 -31 5 -39 13c-6 6 -13 17 -13 34z" />
    <glyph glyph-name="zdotaccent" unicode="&#x17c;" horiz-adv-x="460" 
d="M503 415l-343 -349h288l-8 -66h-432l343 349h-242l8 66h386zM265 546c0 19 7 33 17 43s25 17 42 17s28 -7 34 -13s13 -17 13 -35c0 -20 -9 -34 -17 -42c-13 -13 -26 -16 -40 -16c-9 0 -25 1 -37 13c-3 4 -12 14 -12 33z" />
    <glyph glyph-name="Zcaron" unicode="&#x17d;" horiz-adv-x="536" 
d="M594 667l-437 -597h354l-9 -70h-478l437 597h-317l9 70h441zM375 805l97 76l51 -41l-154 -119l-126 119l53 41z" />
    <glyph glyph-name="zcaron" unicode="&#x17e;" horiz-adv-x="460" 
d="M503 415l-343 -349h288l-8 -66h-432l343 349h-242l8 66h386zM322 573l102 81l46 -36l-153 -121l-123 121l46 36z" />
    <glyph glyph-name="uni018F" unicode="&#x18f;" horiz-adv-x="759" 
d="M192 483l-62 35c34 46 80 89 123 114c51 29 113 46 180 46c93 0 176 -32 231 -85c73 -71 86 -160 86 -224c0 -126 -47 -223 -105 -283c-81 -84 -176 -98 -259 -98c-64 0 -143 9 -210 76c-49 49 -87 128 -87 225c0 17 1 31 3 46h580c13 83 -15 159 -65 207
c-36 34 -94 66 -177 66c-53 0 -101 -11 -146 -39c-49 -31 -85 -77 -92 -86zM657 265h-497c3 -63 32 -120 67 -153c51 -47 121 -54 163 -54c73 0 135 15 191 69c34 33 63 79 76 138z" />
    <glyph glyph-name="florin" unicode="&#x192;" horiz-adv-x="568" 
d="M465 355h-108l-85 -329c-14 -54 -30 -110 -73 -149c-29 -26 -72 -47 -142 -47c-17 0 -30 2 -42 4l19 64c7 -1 14 -2 24 -2c49 0 77 15 92 29c18 17 37 49 57 128l77 302h-72l13 60h74l46 179c10 40 28 86 57 113c30 28 67 33 95 33c29 0 51 -6 63 -10l-18 -67
c-13 6 -29 11 -45 11c-17 0 -32 -4 -45 -16c-17 -16 -27 -41 -38 -84l-42 -159h106z" />
    <glyph glyph-name="uni01CF" unicode="&#x1cf;" horiz-adv-x="246" 
d="M168 667h74l-82 -667h-74zM218 805l97 76l51 -41l-154 -119l-126 119l53 41z" />
    <glyph glyph-name="uni01D0" unicode="&#x1d0;" horiz-adv-x="208" 
d="M119 415h72l-51 -415h-72zM172 579l83 67l42 -35l-131 -106l-105 106l44 35z" />
    <glyph glyph-name="uni01DD" unicode="&#x1dd;" horiz-adv-x="483" 
d="M138 274l-56 33c19 34 47 65 73 83c38 26 79 35 123 35c45 0 93 -9 133 -46c46 -43 56 -99 56 -144c0 -87 -31 -167 -87 -209c-46 -35 -97 -38 -136 -38c-41 0 -90 6 -130 48c-46 48 -55 122 -46 184h324c5 45 -12 88 -36 111c-19 18 -45 30 -84 30c-33 0 -61 -9 -87 -30
c-19 -15 -36 -39 -47 -57zM379 160h-244c1 -30 13 -61 32 -80c14 -14 40 -28 82 -28c33 0 62 10 83 26s41 46 47 82z" />
    <glyph glyph-name="Gcaron" unicode="&#x1e6;" horiz-adv-x="760" 
d="M465 265l8 70h278l-2 -16c-8 -62 -26 -155 -98 -232c-68 -73 -152 -99 -244 -99c-84 0 -164 24 -228 88c-49 49 -88 121 -88 223c0 119 49 211 110 272c80 81 172 107 275 107c64 0 120 -11 175 -46c47 -29 76 -66 95 -99l-61 -50c-18 36 -43 65 -81 89
c-39 25 -78 36 -129 36c-109 0 -180 -45 -219 -83c-61 -61 -89 -149 -89 -224c0 -67 26 -131 69 -175c53 -55 118 -68 178 -68c55 0 122 10 178 68c38 38 61 91 71 139h-198zM485 805l97 76l51 -41l-154 -119l-126 119l53 41z" />
    <glyph glyph-name="gcaron" unicode="&#x1e7;" horiz-adv-x="526" 
d="M430 356l7 59h72l-49 -405c-8 -65 -16 -130 -65 -180c-27 -28 -77 -60 -162 -60c-72 0 -115 24 -140 49c-45 46 -47 110 -47 135v6h71v-4c0 -29 3 -65 33 -93c26 -24 59 -29 86 -29c54 0 87 19 105 37c37 36 42 89 46 127l6 60c-9 -14 -27 -36 -59 -52
c-23 -11 -51 -18 -80 -18c-59 0 -104 18 -137 53c-43 44 -52 98 -52 141c0 67 23 137 67 182c29 30 77 61 154 61c21 0 60 -2 92 -20c17 -9 37 -25 52 -49zM294 361c-39 0 -72 -12 -100 -38c-34 -32 -54 -80 -54 -136c0 -44 15 -80 37 -102c24 -24 54 -33 85 -33
c50 0 83 19 102 36c36 33 53 92 53 138c0 34 -12 74 -36 100c-18 19 -45 35 -87 35zM316 573l102 81l46 -36l-153 -121l-123 121l46 36z" />
    <glyph glyph-name="AEacute" unicode="&#x1fc;" horiz-adv-x="900" 
d="M538 0l-56 187h-284l-102 -187h-82l379 667h293l20 -70h-269l59 -198h264l20 -70h-262l77 -259h271l20 -70h-348zM239 257h223l-78 261zM640 882l65 -45l-168 -117l-39 32z" />
    <glyph glyph-name="aeacute" unicode="&#x1fd;" horiz-adv-x="776" 
d="M415 348c19 25 43 43 66 55c26 13 59 22 97 22c66 0 108 -24 132 -49c30 -31 58 -88 47 -182h-327v-8c0 -51 19 -84 37 -103c24 -24 51 -31 82 -31c28 0 57 4 84 23c21 15 42 42 54 64l61 -33c-19 -32 -49 -67 -77 -86c-23 -16 -62 -32 -120 -32c-36 0 -76 8 -103 24
c-22 13 -44 37 -58 59c-15 -24 -40 -49 -65 -62c-28 -15 -72 -21 -104 -21c-35 0 -84 6 -116 29c-21 14 -48 44 -48 95c0 49 24 90 58 114c14 10 53 34 127 34c52 0 89 -13 121 -35c4 42 3 86 -26 112c-14 13 -39 24 -84 24c-36 0 -75 -7 -123 -26l8 68c43 15 90 22 128 22
c34 0 71 -6 99 -22c29 -16 43 -38 50 -55zM240 196c-11 0 -54 -1 -83 -23c-12 -9 -27 -27 -27 -53c0 -25 13 -41 27 -51c18 -12 47 -17 75 -17c42 0 66 12 76 17c32 18 38 43 38 62c0 23 -11 38 -30 49c-18 11 -49 16 -76 16zM443 254h247c-1 35 -16 63 -35 81
c-24 22 -52 26 -78 26c-34 0 -65 -6 -94 -35c-18 -18 -33 -44 -40 -72zM532 666l70 -34l-151 -135l-42 24z" />
    <glyph glyph-name="Scommaaccent" unicode="&#x218;" horiz-adv-x="518" 
d="M513 574l-63 -39c-8 23 -22 40 -37 52c-25 19 -52 21 -75 21c-25 0 -57 -4 -84 -28c-20 -18 -35 -48 -35 -79c0 -21 8 -43 28 -61c13 -12 42 -28 56 -35l60 -28c31 -14 61 -32 85 -57c38 -39 45 -74 45 -117c0 -39 -7 -100 -56 -151c-56 -58 -126 -64 -173 -64
c-54 0 -98 10 -138 50c-29 30 -51 74 -56 122l74 20c2 -34 15 -65 36 -87c29 -30 62 -35 95 -35c32 0 73 5 104 37c25 26 36 65 36 97c0 40 -18 69 -36 85c-13 12 -44 30 -65 40l-53 25c-18 8 -57 28 -79 51c-18 19 -38 51 -38 103c0 47 14 89 52 126c42 41 91 56 147 56
c29 0 74 -4 110 -28c26 -17 48 -45 60 -76zM161 -206l76 156l64 -30l-92 -150z" />
    <glyph glyph-name="scommaaccent" unicode="&#x219;" horiz-adv-x="350" 
d="M339 350l-63 -31c-4 13 -11 22 -17 28c-11 11 -22 14 -36 14c-15 0 -28 -3 -40 -13c-11 -10 -16 -23 -16 -37s6 -23 12 -29c10 -10 26 -17 41 -24l38 -19c16 -8 40 -24 53 -37c20 -22 27 -47 27 -74c0 -38 -13 -72 -35 -96c-37 -40 -89 -44 -119 -44s-59 4 -87 27
c-23 19 -41 48 -49 79l63 26c4 -15 13 -36 25 -49c14 -14 31 -19 50 -19c13 0 37 1 56 18c14 13 21 33 21 53c0 18 -8 32 -22 43c-7 6 -29 18 -43 25l-23 11c-17 8 -42 23 -55 38c-17 19 -23 41 -23 65c0 38 16 66 35 85c29 29 62 35 94 35c26 0 50 -5 75 -25
c16 -13 30 -31 38 -50zM81 -206l76 156l64 -30l-92 -150z" />
    <glyph glyph-name="Tcommaaccent" unicode="&#x21a;" horiz-adv-x="426" 
d="M485 597h-162l-73 -597h-74l73 597h-162l9 70h398zM121 -206l76 156l64 -30l-92 -150z" />
    <glyph glyph-name="tcommaaccent" unicode="&#x21b;" horiz-adv-x="214" 
d="M257 349h-72l-43 -349h-72l43 349h-44l8 66h44l18 150h72l-18 -150h72zM21 -206l76 156l64 -30l-92 -150z" />
    <glyph glyph-name="uni0228" unicode="&#x228;" horiz-adv-x="482" 
d="M514 667l-9 -70h-272l-24 -198h264l-9 -70h-264l-31 -259h272l-9 -70h-346l82 667h346zM249 -52l66 -30l-120 -128l-47 26z" />
    <glyph glyph-name="uni0229" unicode="&#x229;" horiz-adv-x="483" 
d="M395 139l61 -33c-19 -32 -49 -67 -77 -86c-41 -27 -85 -32 -120 -32c-49 0 -96 9 -137 52c-25 26 -55 72 -55 149c0 71 27 134 71 178c43 43 90 58 145 58c70 0 111 -25 135 -49c30 -31 58 -88 47 -183h-323c-1 -59 19 -92 37 -110c24 -24 52 -31 82 -31c24 0 53 4 80 23
c21 15 42 42 54 64zM154 253h242c-1 30 -14 62 -35 82c-23 22 -53 26 -76 26c-37 0 -66 -10 -91 -35c-18 -18 -33 -44 -40 -73zM252 -52l62 -27l-116 -128l-46 24z" />
    <glyph glyph-name="uni0237" unicode="&#x237;" horiz-adv-x="207" 
d="M119 415h72l-80 -645h-72z" />
    <glyph glyph-name="uni0259" unicode="&#x259;" horiz-adv-x="483" 
d="M138 274l-56 33c19 34 47 65 73 83c38 26 79 35 123 35c45 0 93 -9 133 -46c46 -43 56 -99 56 -144c0 -87 -31 -167 -87 -209c-46 -35 -97 -38 -136 -38c-41 0 -90 6 -130 48c-46 48 -55 122 -46 184h324c5 45 -12 88 -36 111c-19 18 -45 30 -84 30c-33 0 -61 -9 -87 -30
c-19 -15 -36 -39 -47 -57zM379 160h-244c1 -30 13 -61 32 -80c14 -14 40 -28 82 -28c33 0 62 10 83 26s41 46 47 82z" />
    <glyph glyph-name="afii57929" unicode="&#x2bc;" 
d="M220 532l76 158l64 -30l-94 -150z" />
    <glyph glyph-name="circumflex" unicode="&#x2c6;" 
d="M325 578l-102 -81l-46 36l153 121l123 -121l-46 -36z" />
    <glyph glyph-name="caron" unicode="&#x2c7;" 
d="M316 573l102 81l46 -36l-153 -121l-123 121l46 36z" />
    <glyph glyph-name="uni02C9" unicode="&#x2c9;" 
d="M162 513l7 60h302l-7 -60h-302z" />
    <glyph glyph-name="breve" unicode="&#x2d8;" 
d="M181 617h59c3 -16 11 -33 22 -43c9 -8 25 -17 54 -17c26 0 47 7 61 18s25 27 31 42h63c-8 -27 -23 -57 -45 -79c-33 -33 -71 -41 -108 -41c-50 0 -81 16 -98 32c-21 20 -37 52 -39 88z" />
    <glyph glyph-name="dotaccent" unicode="&#x2d9;" 
d="M265 546c0 19 7 33 17 43s25 17 42 17s28 -7 34 -13s13 -17 13 -35c0 -20 -9 -34 -17 -42c-13 -13 -26 -16 -40 -16c-9 0 -25 1 -37 13c-3 4 -12 14 -12 33z" />
    <glyph glyph-name="ring" unicode="&#x2da;" 
d="M235 575c0 29 11 55 27 70c19 19 42 24 63 24c31 0 50 -11 61 -22c18 -18 22 -41 22 -60c0 -25 -6 -46 -25 -65c-20 -19 -41 -25 -67 -25c-22 0 -42 4 -59 21c-10 10 -22 28 -22 57zM280 579c0 -11 4 -20 10 -26c6 -7 15 -12 30 -12c16 0 26 7 31 12c8 8 13 20 13 34
s-5 23 -11 28c-7 7 -19 10 -29 10c-12 0 -22 -3 -31 -12s-13 -22 -13 -34z" />
    <glyph glyph-name="ogonek" unicode="&#x2db;" 
d="M350 -117l-15 -55c-23 -12 -46 -14 -60 -14c-29 0 -50 11 -63 23c-10 10 -21 26 -21 50c0 19 6 46 32 74c13 14 31 28 53 39h58c-16 -10 -38 -25 -52 -39c-28 -28 -29 -51 -29 -57c0 -10 3 -17 8 -22c11 -11 29 -12 38 -12c14 0 30 3 51 13z" />
    <glyph glyph-name="tilde" unicode="&#x2dc;" 
d="M199 497l-38 34c10 15 25 32 40 45c17 14 34 24 62 24c29 0 48 -11 65 -20l17 -9c10 -5 22 -11 37 -11c14 0 25 5 35 15c6 7 15 20 20 28l37 -34c-9 -16 -23 -36 -36 -47c-18 -16 -39 -22 -61 -22c-23 0 -42 8 -55 14l-22 11c-15 7 -29 15 -44 15s-25 -7 -34 -16
c-12 -11 -22 -25 -23 -27z" />
    <glyph glyph-name="hungarumlaut" unicode="&#x2dd;" 
d="M332 666l68 -32l-154 -136l-38 23zM466 666l66 -32l-152 -136l-38 23z" />
    <glyph glyph-name="acutecomb" unicode="&#x301;" horiz-adv-x="2" 
d="M-128 666l70 -34l-151 -135l-42 24z" />
    <glyph glyph-name="uni0394" unicode="&#x394;" horiz-adv-x="668" 
d="M640 0h-612l268 667h76zM334 574l-200 -504h400z" />
    <glyph glyph-name="uni0394" unicode="&#x2206;" horiz-adv-x="668" 
d="M640 0h-612l268 667h76zM334 574l-200 -504h400z" />
    <glyph glyph-name="uni03A9" unicode="&#x3a9;" horiz-adv-x="623" 
d="M379 0v70c47 25 101 68 133 113c24 35 51 89 51 169c0 98 -38 161 -76 197c-34 32 -85 59 -153 59s-119 -27 -153 -59c-38 -36 -76 -99 -76 -197c0 -80 27 -134 51 -169c32 -45 86 -88 133 -113v-70h-260v70h179c-50 26 -92 63 -121 103c-42 58 -58 120 -58 186
c0 100 38 184 92 237c40 40 109 82 213 82s173 -42 213 -82c54 -53 92 -137 92 -237c0 -66 -16 -128 -58 -186c-29 -40 -71 -77 -121 -103h179v-70h-260z" />
    <glyph glyph-name="uni03A9" unicode="&#x2126;" horiz-adv-x="623" 
d="M379 0v70c47 25 101 68 133 113c24 35 51 89 51 169c0 98 -38 161 -76 197c-34 32 -85 59 -153 59s-119 -27 -153 -59c-38 -36 -76 -99 -76 -197c0 -80 27 -134 51 -169c32 -45 86 -88 133 -113v-70h-260v70h179c-50 26 -92 63 -121 103c-42 58 -58 120 -58 186
c0 100 38 184 92 237c40 40 109 82 213 82s173 -42 213 -82c54 -53 92 -137 92 -237c0 -66 -16 -128 -58 -186c-29 -40 -71 -77 -121 -103h179v-70h-260z" />
    <glyph glyph-name="pi" unicode="&#x3c0;" horiz-adv-x="530" 
d="M217 0h-72v349h-74v66h482v-66h-74v-349h-72v349h-190v-349z" />
    <glyph glyph-name="afii10023" unicode="&#x401;" horiz-adv-x="482" 
d="M514 667l-9 -70h-272l-24 -198h264l-9 -70h-264l-31 -259h272l-9 -70h-346l82 667h346zM399 778c0 10 2 24 15 38s29 19 42 19c11 0 23 -4 32 -12c6 -6 13 -16 13 -31s-6 -31 -16 -42c-8 -8 -21 -17 -40 -17c-18 0 -29 8 -34 13c-7 7 -12 19 -12 32zM209 778
c0 10 2 24 15 38s29 19 42 19c11 0 23 -4 32 -12c6 -6 13 -16 13 -31s-6 -31 -16 -42c-8 -8 -21 -17 -40 -17c-18 0 -29 8 -34 13c-7 7 -12 19 -12 32z" />
    <glyph glyph-name="afii10051" unicode="&#x402;" horiz-adv-x="648" 
d="M523 597h-202l-26 -212c53 19 101 23 134 23c70 0 116 -22 144 -49c29 -27 56 -78 56 -156c0 -59 -21 -122 -60 -160c-43 -42 -100 -50 -148 -50c-29 0 -56 3 -83 8l9 69c31 -6 57 -7 69 -7c30 0 68 5 97 32c33 30 38 71 38 108c0 51 -15 81 -31 99
c-29 32 -72 36 -104 36c-45 0 -86 -7 -129 -23l-39 -315h-74l73 597h-160l9 70h436z" />
    <glyph glyph-name="afii10052" unicode="&#x403;" horiz-adv-x="404" 
d="M86 0l82 667h304l-9 -70h-230l-73 -597h-74zM430 882l65 -45l-168 -117l-39 32z" />
    <glyph glyph-name="afii10053" unicode="&#x404;" horiz-adv-x="650" 
d="M675 612l-11 -92c-18 21 -43 43 -78 61s-67 27 -112 27c-74 0 -135 -17 -195 -65c-61 -49 -88 -104 -98 -163h385l-9 -70h-387c-1 -82 32 -147 69 -185c31 -32 83 -67 168 -67c51 0 94 11 127 28c27 14 61 38 84 59l-11 -92c-26 -18 -61 -38 -85 -47
c-30 -11 -78 -18 -120 -18c-84 0 -162 22 -227 90c-61 64 -84 137 -84 222c0 130 53 220 112 277c80 78 171 101 270 101c38 0 88 -5 131 -23c21 -9 49 -26 71 -43z" />
    <glyph glyph-name="afii10054" unicode="&#x405;" horiz-adv-x="518" 
d="M513 574l-63 -39c-8 23 -22 40 -37 52c-25 19 -52 21 -75 21c-25 0 -57 -4 -84 -28c-20 -18 -35 -48 -35 -79c0 -21 8 -43 28 -61c13 -12 42 -28 56 -35l60 -28c31 -14 61 -32 85 -57c38 -39 45 -74 45 -117c0 -39 -7 -100 -56 -151c-56 -58 -126 -64 -173 -64
c-54 0 -98 10 -138 50c-29 30 -51 74 -56 122l74 20c2 -34 15 -65 36 -87c29 -30 62 -35 95 -35c32 0 73 5 104 37c25 26 36 65 36 97c0 40 -18 69 -36 85c-13 12 -44 30 -65 40l-53 25c-18 8 -57 28 -79 51c-18 19 -38 51 -38 103c0 47 14 89 52 126c42 41 91 56 147 56
c29 0 74 -4 110 -28c26 -17 48 -45 60 -76z" />
    <glyph glyph-name="afii10055" unicode="&#x406;" horiz-adv-x="246" 
d="M168 667h74l-82 -667h-74z" />
    <glyph glyph-name="afii10056" unicode="&#x407;" horiz-adv-x="246" 
d="M168 667h74l-82 -667h-74zM234 778c0 15 5 32 18 44c9 9 20 13 33 13c9 0 20 -3 29 -12c8 -9 12 -22 12 -35c0 -17 -6 -30 -16 -41c-10 -10 -21 -14 -34 -14s-23 5 -30 12s-12 18 -12 33zM112 778c0 15 5 32 18 44c9 9 20 13 33 13c9 0 20 -3 29 -12c8 -9 12 -22 12 -35
c0 -17 -6 -30 -16 -41c-10 -10 -21 -14 -34 -14s-23 5 -30 12s-12 18 -12 33z" />
    <glyph glyph-name="afii10057" unicode="&#x408;" horiz-adv-x="299" 
d="M221 667h74l-59 -482c-8 -66 -20 -121 -55 -156c-14 -14 -49 -41 -116 -41c-24 0 -45 4 -67 15c-16 8 -32 19 -46 34l48 58c9 -11 19 -18 30 -25c14 -8 25 -12 43 -12c20 0 37 5 52 20s29 43 37 107z" />
    <glyph glyph-name="afii10058" unicode="&#x409;" horiz-adv-x="924" 
d="M486 0l72 597h-257l-39 -319c-13 -105 -32 -188 -79 -235c-30 -31 -77 -49 -127 -49c-18 0 -32 3 -42 6l9 70c11 -4 21 -6 33 -6c35 0 58 14 73 28c39 37 49 104 58 177l49 398h406l-34 -277h74c71 0 136 -11 180 -56c34 -35 45 -75 45 -119c0 -80 -33 -131 -61 -157
c-59 -55 -144 -58 -194 -58h-166zM599 320l-30 -250h86c35 0 98 4 133 34c24 21 42 59 42 103c0 57 -30 82 -45 92c-10 7 -38 21 -110 21h-76z" />
    <glyph glyph-name="afii10059" unicode="&#x40a;" horiz-adv-x="939" 
d="M623 390h74c71 0 136 -11 180 -56c33 -34 45 -75 45 -121c0 -78 -32 -128 -61 -155c-59 -55 -144 -58 -194 -58h-166l40 320h-342l-39 -320h-74l82 667h74l-34 -277h342l32 277h75zM614 320l-30 -250h86c35 0 98 4 133 34c24 20 42 57 42 102c0 57 -29 83 -45 93
c-10 7 -38 21 -110 21h-76z" />
    <glyph glyph-name="afii10060" unicode="&#x40b;" horiz-adv-x="681" 
d="M523 597h-202l-24 -196c36 5 75 7 118 7c104 0 149 -21 172 -37c35 -24 55 -60 55 -110c0 -18 -5 -58 -6 -69l-24 -192h-74l23 182c2 15 5 45 5 59c0 36 -11 63 -47 80c-13 6 -40 17 -106 17c-40 0 -89 -3 -124 -7l-41 -331h-74l73 597h-160l9 70h436z" />
    <glyph glyph-name="afii10061" unicode="&#x40c;" horiz-adv-x="568" 
d="M242 667l-35 -286l319 286h100l-354 -312l278 -355h-98l-235 306l-22 -19l-35 -287h-74l82 667h74zM474 882l65 -45l-168 -117l-39 32z" />
    <glyph glyph-name="afii10062" unicode="&#x40e;" horiz-adv-x="568" 
d="M90 667h85l160 -393l222 393h85l-383 -667h-80l108 186zM221 818l71 23c4 -21 15 -33 24 -40c11 -9 29 -16 58 -16c14 0 40 2 60 16c19 13 26 31 28 40l67 -23c-8 -24 -25 -53 -62 -74c-30 -17 -63 -23 -95 -23c-29 0 -73 4 -108 32c-16 13 -34 33 -43 65z" />
    <glyph glyph-name="afii10145" unicode="&#x40f;" horiz-adv-x="658" 
d="M86 0l82 667h74l-73 -597h338l73 597h74l-82 -667h-208l-19 -160h-70l19 160h-208z" />
    <glyph glyph-name="afii10017" unicode="&#x410;" horiz-adv-x="622" 
d="M534 0l-55 188h-284l-103 -188h-84l393 699l213 -699h-80zM233 258h226l-80 267z" />
    <glyph glyph-name="afii10018" unicode="&#x411;" horiz-adv-x="532" 
d="M86 0l82 667h331l-9 -70h-257l-25 -207h72c73 0 141 -11 184 -56c37 -38 43 -85 43 -120c0 -78 -27 -125 -55 -152c-49 -48 -129 -62 -198 -62h-168zM199 320l-30 -250h94c56 0 103 13 130 39c18 17 37 48 37 97c0 53 -24 79 -42 92c-15 10 -44 22 -104 22h-85z" />
    <glyph glyph-name="afii10019" unicode="&#x412;" horiz-adv-x="532" 
d="M168 667h109c90 0 141 -27 166 -53c23 -23 39 -60 39 -106c0 -31 -8 -69 -23 -96c-10 -18 -30 -41 -62 -56c22 -9 48 -24 67 -43c30 -31 41 -67 41 -111c0 -71 -27 -118 -61 -147c-58 -50 -139 -55 -184 -55h-174zM233 597l-27 -223h48c37 0 84 4 118 34
c30 26 36 61 36 89c0 19 -4 55 -37 78c-22 16 -58 22 -89 22h-49zM198 308l-29 -238h90c42 0 95 7 125 29c24 17 46 50 46 99c0 37 -12 69 -49 90c-31 18 -71 20 -108 20h-75z" />
    <glyph glyph-name="afii10020" unicode="&#x413;" horiz-adv-x="404" 
d="M86 0l82 667h304l-9 -70h-230l-73 -597h-74z" />
    <glyph glyph-name="afii10021" unicode="&#x414;" horiz-adv-x="640" 
d="M226 667h406l-73 -597h76l-26 -210h-70l17 140h-472l-17 -140h-70l26 210c24 3 54 13 82 41c47 47 68 125 80 224zM291 597l-32 -262c-11 -88 -25 -141 -43 -179s-40 -64 -67 -86h336l64 527h-258z" />
    <glyph glyph-name="afii10022" unicode="&#x415;" horiz-adv-x="482" 
d="M514 667l-9 -70h-272l-24 -198h264l-9 -70h-264l-31 -259h272l-9 -70h-346l82 667h346z" />
    <glyph glyph-name="afii10024" unicode="&#x416;" horiz-adv-x="810" 
d="M450 667h74l-35 -286l289 286h92l-320 -311l244 -356h-92l-207 305l-18 -18l-35 -287h-74l35 287l-14 18l-281 -305h-94l334 356l-242 311h90l219 -286z" />
    <glyph glyph-name="afii10025" unicode="&#x417;" horiz-adv-x="555" 
d="M202 536l-54 45c21 26 50 52 80 69c37 20 77 28 118 28c36 0 95 -5 139 -50c27 -28 40 -63 40 -103c0 -41 -11 -84 -35 -113c-19 -23 -49 -40 -76 -49c37 -7 62 -26 75 -40c34 -34 40 -74 40 -112c0 -56 -14 -110 -62 -158c-58 -57 -127 -65 -183 -65
c-45 0 -108 7 -158 46c-51 41 -74 106 -76 114l71 32c9 -32 27 -64 52 -86c37 -32 79 -36 115 -36c37 0 82 6 120 42c27 26 44 63 44 108c0 23 -4 62 -43 89c-21 14 -54 25 -112 25h-68l8 70h55c37 0 85 5 118 33c22 19 38 49 38 87c0 36 -16 57 -31 70
c-22 18 -53 26 -82 26c-37 0 -63 -11 -80 -22c-21 -13 -40 -33 -53 -50z" />
    <glyph glyph-name="afii10026" unicode="&#x418;" horiz-adv-x="710" 
d="M550 0l62 509l-530 -539l86 697h74l-63 -511l530 539l-85 -695h-74z" />
    <glyph glyph-name="afii10027" unicode="&#x419;" horiz-adv-x="710" 
d="M550 0l62 509l-530 -539l86 697h74l-63 -511l530 539l-85 -695h-74zM303 818l71 23c4 -21 15 -33 24 -40c11 -9 29 -16 58 -16c14 0 40 2 60 16c19 13 26 31 28 40l67 -23c-8 -24 -25 -53 -62 -74c-30 -17 -63 -23 -95 -23c-29 0 -73 4 -108 32c-16 13 -34 33 -43 65z
" />
    <glyph glyph-name="afii10028" unicode="&#x41a;" horiz-adv-x="568" 
d="M242 667l-35 -286l319 286h100l-354 -312l278 -355h-98l-235 306l-22 -19l-35 -287h-74l82 667h74z" />
    <glyph glyph-name="afii10029" unicode="&#x41b;" horiz-adv-x="646" 
d="M236 667h406l-82 -667h-74l73 597h-258l-39 -319c-13 -105 -32 -188 -79 -235c-30 -31 -77 -49 -127 -49c-18 0 -32 3 -42 6l9 70c11 -4 21 -6 33 -6c35 0 58 14 73 28c39 37 49 104 58 177z" />
    <glyph glyph-name="afii10030" unicode="&#x41c;" horiz-adv-x="863" 
d="M140 0h-77l197 704l187 -563l331 564l17 -705h-75l-6 464l-287 -492l-164 492z" />
    <glyph glyph-name="afii10031" unicode="&#x41d;" horiz-adv-x="662" 
d="M242 667l-33 -271h342l33 271h74l-82 -667h-74l40 326h-342l-40 -326h-74l82 667h74z" />
    <glyph glyph-name="afii10032" unicode="&#x41e;" horiz-adv-x="800" 
d="M399 -12c-73 0 -156 19 -222 87c-41 42 -86 114 -86 221c0 137 60 226 114 277c73 70 163 105 274 105c73 0 155 -16 224 -84c43 -42 88 -112 88 -218c0 -103 -37 -210 -112 -283c-58 -56 -153 -105 -280 -105zM471 608c-85 0 -159 -31 -211 -79
c-47 -44 -92 -117 -92 -219c0 -82 30 -144 69 -184c35 -36 89 -68 170 -68c90 0 167 32 216 80c59 57 91 145 91 224c0 75 -29 137 -70 178c-33 33 -88 68 -173 68z" />
    <glyph glyph-name="afii10033" unicode="&#x41f;" horiz-adv-x="662" 
d="M168 667h490l-82 -667h-74l73 597h-342l-73 -597h-74z" />
    <glyph glyph-name="afii10034" unicode="&#x420;" horiz-adv-x="457" 
d="M168 667h121c68 0 127 -18 161 -51c27 -26 46 -70 46 -126c0 -65 -25 -114 -54 -142c-28 -27 -82 -58 -189 -58h-57l-36 -290h-74zM233 597l-29 -237h63c36 0 85 4 120 36c20 18 36 48 36 92c0 45 -18 71 -37 85c-27 21 -68 24 -98 24h-55z" />
    <glyph glyph-name="afii10035" unicode="&#x421;" horiz-adv-x="650" 
d="M675 612l-11 -92c-18 20 -43 43 -78 61c-39 20 -74 27 -113 27c-87 0 -163 -33 -217 -87c-54 -55 -87 -133 -87 -214s33 -141 70 -180c48 -50 104 -69 168 -69c51 0 94 11 127 28c27 14 61 38 84 59l-11 -92c-26 -18 -61 -38 -85 -47c-30 -11 -78 -18 -120 -18
c-98 0 -173 33 -227 88c-61 62 -84 138 -84 223c0 147 68 235 112 278c80 78 172 101 270 101c38 0 88 -5 131 -23c21 -9 49 -26 71 -43z" />
    <glyph glyph-name="afii10036" unicode="&#x422;" horiz-adv-x="426" 
d="M485 597h-162l-73 -597h-74l73 597h-162l9 70h398z" />
    <glyph glyph-name="afii10037" unicode="&#x423;" horiz-adv-x="568" 
d="M90 667h85l160 -393l222 393h85l-383 -667h-80l108 186z" />
    <glyph glyph-name="afii10038" unicode="&#x424;" horiz-adv-x="826" 
d="M376 0l12 94h-6c-104 0 -185 30 -230 75c-27 28 -59 79 -59 162c0 82 29 148 82 199c67 65 151 84 265 84h11l10 80h74l-10 -80h5c56 0 160 -9 226 -73c47 -46 63 -101 63 -160c0 -82 -25 -149 -81 -202c-70 -65 -162 -85 -268 -85h-8l-12 -94h-74zM396 164l47 380h-20
c-41 0 -136 -6 -195 -64c-36 -36 -58 -88 -58 -149c0 -68 31 -106 55 -125c47 -38 122 -42 159 -42h12zM517 544l-47 -380h20c39 0 114 4 171 43c45 31 82 86 82 167c0 74 -37 112 -59 129c-42 33 -106 41 -154 41h-13z" />
    <glyph glyph-name="afii10039" unicode="&#x425;" horiz-adv-x="502" 
d="M14 0l239 345l-139 322h82l107 -251l173 251h84l-223 -322l151 -345h-82l-119 274l-189 -274h-84z" />
    <glyph glyph-name="afii10040" unicode="&#x426;" horiz-adv-x="662" 
d="M86 0l82 667h74l-73 -597h338l73 597h74l-73 -597h76l-26 -210h-70l17 140h-492z" />
    <glyph glyph-name="afii10041" unicode="&#x427;" horiz-adv-x="592" 
d="M432 0l36 292c-25 -5 -67 -13 -118 -13c-48 0 -116 7 -159 32c-44 25 -67 64 -67 117c0 7 0 25 6 72l20 167h74l-20 -162c-3 -26 -5 -43 -5 -59c0 -27 5 -54 37 -75c21 -14 54 -22 120 -22c43 0 78 3 120 11l38 307h74l-82 -667h-74z" />
    <glyph glyph-name="afii10042" unicode="&#x428;" horiz-adv-x="922" 
d="M86 0l82 667h74l-73 -597h264l73 597h74l-73 -597h264l73 597h74l-82 -667h-750z" />
    <glyph glyph-name="afii10043" unicode="&#x429;" horiz-adv-x="926" 
d="M86 0l82 667h74l-73 -597h264l73 597h74l-73 -597h264l73 597h74l-73 -597h76l-26 -210h-70l17 140h-756z" />
    <glyph glyph-name="afii10044" unicode="&#x42a;" horiz-adv-x="612" 
d="M174 0l73 597h-160l9 70h234l-34 -277h74c71 0 136 -11 180 -56c34 -35 45 -75 45 -119c0 -80 -33 -131 -61 -157c-59 -55 -144 -58 -194 -58h-166zM287 320l-30 -250h86c35 0 98 4 133 34c24 20 42 57 42 102c0 57 -29 83 -45 93c-10 7 -38 21 -110 21h-76z" />
    <glyph glyph-name="afii10045" unicode="&#x42b;" horiz-adv-x="710" 
d="M632 667h74l-82 -667h-74zM86 0l81 667h75l-34 -277h74c69 0 136 -11 180 -56c34 -34 45 -75 45 -119c0 -80 -33 -131 -61 -157c-59 -55 -144 -58 -194 -58h-166zM199 320l-30 -250h86c35 0 98 4 133 34c24 20 42 57 42 102c0 57 -29 83 -45 93c-10 7 -38 21 -110 21h-76
z" />
    <glyph glyph-name="afii10046" unicode="&#x42c;" horiz-adv-x="524" 
d="M86 0l81 667h75l-34 -277h74c71 0 136 -11 180 -56c34 -35 45 -75 45 -119c0 -80 -33 -131 -61 -157c-59 -55 -144 -58 -194 -58h-166zM199 320l-30 -250h86c35 0 98 4 133 34c24 20 42 57 42 102c0 57 -29 83 -45 93c-10 7 -38 21 -110 21h-76z" />
    <glyph glyph-name="afii10047" unicode="&#x42d;" horiz-adv-x="649" 
d="M114 520l11 92c22 13 61 33 90 44c32 12 73 22 124 22c95 0 168 -32 214 -75c52 -48 87 -120 87 -224c0 -77 -16 -208 -112 -300c-70 -67 -151 -91 -248 -91c-50 0 -96 7 -140 23c-29 10 -56 24 -83 44l11 90c24 -26 52 -45 84 -60c41 -19 82 -27 133 -27
c56 0 130 11 189 69c71 69 81 167 83 183h-389l9 70h386c0 74 -31 135 -67 170c-51 50 -116 58 -161 58c-48 0 -89 -8 -137 -31c-30 -15 -58 -33 -84 -57z" />
    <glyph glyph-name="afii10048" unicode="&#x42e;" horiz-adv-x="993" 
d="M208 389h100c18 81 58 140 94 179c60 64 147 110 265 110c97 0 178 -34 232 -88c40 -40 85 -111 85 -225c0 -125 -51 -219 -112 -279c-70 -68 -152 -98 -255 -98c-84 0 -167 22 -234 93c-56 59 -86 137 -85 238h-99l-39 -319h-74l82 667h74zM659 608
c-79 0 -149 -33 -195 -77c-52 -50 -90 -133 -90 -221c0 -71 29 -138 70 -181c40 -42 103 -71 180 -71c74 0 144 26 193 72c52 48 90 132 90 228c0 65 -22 128 -61 172c-40 45 -108 78 -187 78z" />
    <glyph glyph-name="afii10049" unicode="&#x42f;" horiz-adv-x="510" 
d="M30 0l232 297c-41 5 -82 24 -109 50c-34 33 -42 72 -42 114c0 74 28 119 54 146c49 50 118 60 205 60h136l-82 -667h-74l36 292h-38l-226 -292h-92zM423 597h-72c-45 0 -97 -5 -130 -39c-27 -28 -32 -63 -32 -88c0 -34 7 -67 45 -90c26 -16 63 -22 96 -22h64z" />
    <glyph glyph-name="afii10065" unicode="&#x430;" horiz-adv-x="528" 
d="M432 356l7 59h72l-51 -415h-72l7 58c-13 -18 -31 -37 -52 -49c-30 -17 -61 -21 -86 -21c-50 0 -96 10 -135 51c-31 33 -54 80 -54 148c0 85 33 147 72 184s87 54 149 54c28 0 58 -4 88 -20c25 -13 42 -29 55 -49zM295 361c-46 0 -79 -19 -100 -39
c-31 -29 -53 -79 -53 -130c0 -41 15 -83 43 -109c25 -24 55 -31 84 -31c45 0 79 15 103 41c30 31 47 84 47 135c0 56 -25 87 -39 100c-17 16 -44 33 -85 33z" />
    <glyph glyph-name="afii10066" unicode="&#x431;" horiz-adv-x="529" 
d="M479 700h80c-8 -20 -21 -44 -39 -61c-35 -34 -80 -44 -123 -55c-62 -15 -123 -33 -162 -70c-29 -27 -56 -73 -77 -165h2c13 18 31 35 51 48c32 20 66 28 105 28c65 0 116 -23 147 -54c24 -24 51 -65 51 -135c0 -88 -34 -146 -68 -180c-50 -50 -107 -68 -177 -68
c-56 0 -106 12 -147 58c-40 45 -50 100 -50 151c0 53 13 147 27 199c15 55 44 117 84 158c42 43 94 64 133 75s82 17 115 30c24 10 38 21 48 41zM304 361c-51 0 -87 -20 -112 -45c-28 -28 -48 -72 -48 -125c0 -46 16 -83 39 -105c30 -29 68 -34 93 -34c43 0 82 12 115 46
c30 31 49 75 49 129c0 48 -18 78 -37 97c-11 11 -42 37 -99 37z" />
    <glyph glyph-name="afii10067" unicode="&#x432;" horiz-adv-x="431" 
d="M119 415h145c30 0 62 -3 88 -23c25 -19 35 -45 35 -73c0 -21 -5 -42 -16 -58c-10 -14 -24 -26 -40 -33c11 -3 31 -10 48 -29c18 -19 25 -41 25 -67c0 -38 -14 -70 -35 -91c-24 -23 -66 -41 -121 -41h-107h-73zM170 246h76c16 0 38 2 55 16c9 7 18 20 18 41
c0 25 -15 36 -23 40c-2 1 -16 8 -54 8h-59zM148 64h91c19 0 51 2 69 14c16 11 26 31 26 51c0 25 -14 39 -25 46c-9 5 -26 11 -64 11h-82z" />
    <glyph glyph-name="afii10068" unicode="&#x433;" horiz-adv-x="318" 
d="M68 0l51 415h246l-8 -66h-174l-43 -349h-72z" />
    <glyph glyph-name="afii10069" unicode="&#x434;" horiz-adv-x="460" 
d="M149 415h292l-43 -349h62l-22 -176h-66l14 110h-316l-14 -110h-66l22 176c19 1 43 7 66 30c37 36 42 86 48 134zM326 66l35 283h-148l-16 -134c-3 -28 -6 -59 -22 -91c-15 -30 -35 -49 -47 -58h198z" />
    <glyph glyph-name="afii10070" unicode="&#x435;" horiz-adv-x="483" 
d="M395 139l61 -33c-19 -32 -49 -67 -77 -86c-41 -27 -85 -32 -120 -32c-49 0 -96 9 -137 52c-25 26 -55 72 -55 149c0 71 27 134 71 178c43 43 90 58 145 58c70 0 111 -25 135 -49c30 -31 58 -88 47 -183h-323c-1 -59 19 -92 37 -110c24 -24 52 -31 82 -31c24 0 53 4 80 23
c21 15 42 42 54 64zM154 253h242c-1 30 -14 62 -35 82c-23 22 -53 26 -76 26c-37 0 -66 -10 -91 -35c-18 -18 -33 -44 -40 -73z" />
    <glyph glyph-name="afii10072" unicode="&#x436;" horiz-adv-x="596" 
d="M313 415h72l-21 -170l177 170h84l-207 -196l170 -219h-86l-133 175l-15 -14l-20 -161h-72l20 161l-13 14l-175 -175h-90l227 224l-156 191h82l135 -170z" />
    <glyph glyph-name="afii10073" unicode="&#x437;" horiz-adv-x="404" 
d="M141 309l-45 41c16 20 39 40 59 52c29 17 58 23 93 23c31 0 67 -6 96 -35c17 -18 27 -39 27 -69c0 -17 -3 -40 -19 -61c-7 -10 -20 -22 -40 -30c23 -8 38 -23 47 -34c12 -16 19 -34 19 -58c0 -44 -18 -86 -53 -114c-40 -32 -92 -36 -128 -36c-38 0 -76 7 -108 32
c-34 27 -52 70 -53 74l64 26c6 -18 18 -36 32 -47c22 -17 49 -21 70 -21c17 0 48 1 72 18c14 10 30 30 30 60c0 20 -8 35 -24 45c-19 12 -48 13 -61 13h-42l8 66h35c10 0 50 1 69 19c7 7 14 18 14 36c0 13 -4 25 -14 35c-16 16 -39 17 -51 17c-18 0 -39 -3 -59 -16
c-14 -9 -29 -24 -38 -36z" />
    <glyph glyph-name="afii10074" unicode="&#x438;" horiz-adv-x="492" 
d="M119 415h72l-34 -276l322 308l-55 -447h-72l34 279l-322 -308z" />
    <glyph glyph-name="afii10075" unicode="&#x439;" horiz-adv-x="492" 
d="M119 415h72l-34 -276l322 308l-55 -447h-72l34 279l-322 -308zM180 594l60 23c5 -18 15 -34 28 -44c14 -11 34 -16 55 -16c19 0 39 4 55 15c15 11 27 29 32 45l60 -23c-5 -11 -20 -45 -54 -70c-28 -20 -58 -27 -93 -27c-33 0 -66 6 -95 28c-18 14 -38 36 -48 69z" />
    <glyph glyph-name="afii10076" unicode="&#x43a;" horiz-adv-x="422" 
d="M119 415h72l-21 -170l189 170h88l-207 -187l174 -228h-90l-140 182l-24 -21l-20 -161h-72z" />
    <glyph glyph-name="afii10077" unicode="&#x43b;" horiz-adv-x="450" 
d="M433 415l-51 -415h-72l43 349h-148l-23 -182c-6 -46 -13 -91 -49 -128c-30 -30 -76 -47 -125 -39l8 66c25 -6 48 3 62 15c24 22 30 66 33 88l30 246h292z" />
    <glyph glyph-name="afii10078" unicode="&#x43c;" horiz-adv-x="580" 
d="M20 0l155 447l130 -338l210 338l45 -447h-72l-23 257l-177 -286l-107 286l-85 -257h-76z" />
    <glyph glyph-name="afii10079" unicode="&#x43d;" horiz-adv-x="476" 
d="M68 0l51 415h72l-21 -170h196l21 170h72l-51 -415h-72l22 179h-196l-22 -179h-72z" />
    <glyph glyph-name="afii10080" unicode="&#x43e;" horiz-adv-x="528" 
d="M268 -12c-59 0 -108 15 -148 57c-29 31 -53 78 -53 145c0 60 20 122 75 173c46 42 99 62 166 62c68 0 117 -22 152 -57c42 -42 51 -93 51 -136c0 -90 -37 -148 -70 -180c-53 -52 -117 -64 -173 -64zM307 361c-28 0 -73 -7 -113 -46c-35 -34 -53 -80 -53 -130
c0 -47 20 -77 36 -94c15 -16 45 -39 96 -39c52 0 89 22 113 48c31 33 50 83 50 131c0 42 -16 73 -34 92c-21 22 -54 38 -95 38z" />
    <glyph glyph-name="afii10081" unicode="&#x43f;" horiz-adv-x="470" 
d="M119 415h334l-51 -415h-72l43 349h-190l-43 -349h-72z" />
    <glyph glyph-name="afii10082" unicode="&#x440;" horiz-adv-x="528" 
d="M147 58l-36 -288h-72l80 645h72l-7 -58c19 25 41 40 58 49c28 15 55 19 85 19c36 0 88 -7 130 -48c32 -31 54 -76 54 -143c0 -79 -29 -149 -73 -192c-46 -45 -97 -54 -149 -54c-27 0 -63 3 -95 23c-19 12 -36 30 -47 47zM287 52c34 0 66 9 94 35c38 35 56 91 56 142
c0 50 -20 81 -36 97c-18 19 -47 35 -92 35s-77 -16 -103 -44c-30 -32 -46 -78 -46 -126c0 -32 7 -68 34 -99c26 -29 58 -40 93 -40z" />
    <glyph glyph-name="afii10083" unicode="&#x441;" horiz-adv-x="440" 
d="M442 385l-10 -86c-14 16 -34 34 -52 44c-20 11 -48 18 -75 18c-46 0 -82 -16 -111 -43c-27 -26 -53 -67 -53 -126c0 -52 21 -85 40 -104c28 -28 62 -36 96 -36c29 0 52 5 77 18c27 14 45 32 58 47l-10 -86c-20 -15 -40 -26 -60 -32c-24 -8 -50 -11 -74 -11
c-51 0 -103 11 -146 55c-36 37 -55 88 -55 145c0 63 26 129 72 174c27 27 81 63 168 63c42 0 91 -10 135 -40z" />
    <glyph glyph-name="afii10084" unicode="&#x442;" horiz-adv-x="348" 
d="M383 349h-130l-43 -349h-72l43 349h-130l8 66h332z" />
    <glyph glyph-name="afii10085" unicode="&#x443;" horiz-adv-x="460" 
d="M39 -230l165 269l-145 376h80l110 -297l172 297h82l-384 -645h-80z" />
    <glyph glyph-name="afii10086" unicode="&#x444;" horiz-adv-x="653" 
d="M261 -230l28 223c-78 0 -134 25 -162 52c-33 31 -59 80 -59 142c0 59 21 115 60 158c62 68 146 77 214 77l30 245h72l-30 -245c7 0 104 0 168 -61c27 -26 55 -69 55 -137s-25 -124 -59 -160c-52 -55 -129 -71 -213 -71h-4l-28 -223h-72zM297 57l36 301
c-39 0 -101 -6 -144 -48c-31 -31 -48 -76 -48 -119c0 -39 15 -71 37 -92c28 -27 75 -42 119 -42zM406 358l-37 -301h4c53 0 108 10 146 49c35 36 43 80 43 117c0 28 -4 65 -36 95c-30 28 -80 40 -120 40z" />
    <glyph glyph-name="afii10087" unicode="&#x445;" horiz-adv-x="452" 
d="M8 0l204 222l-127 193h86l90 -141l126 141h88l-176 -194l145 -221h-86l-110 169l-152 -169h-88z" />
    <glyph glyph-name="afii10088" unicode="&#x446;" horiz-adv-x="474" 
d="M68 0l51 415h72l-43 -349h186l43 349h72l-43 -349h68l-22 -176h-66l14 110h-332z" />
    <glyph glyph-name="afii10089" unicode="&#x447;" horiz-adv-x="430" 
d="M290 0l20 166c-29 -9 -59 -12 -83 -12c-34 0 -82 8 -109 31c-25 22 -29 50 -29 73c0 15 2 31 6 61l12 96h72l-11 -92c-4 -30 -5 -41 -5 -50c0 -16 4 -31 21 -41c19 -12 51 -12 63 -12c38 0 61 7 71 11l23 184h72l-51 -415h-72z" />
    <glyph glyph-name="afii10090" unicode="&#x448;" horiz-adv-x="672" 
d="M68 0l51 415h72l-43 -349h160l43 349h72l-43 -349h160l43 349h72l-51 -415h-536z" />
    <glyph glyph-name="afii10091" unicode="&#x449;" horiz-adv-x="680" 
d="M68 0l51 415h72l-43 -349h160l43 349h72l-43 -349h160l43 349h72l-43 -349h68l-22 -176h-66l14 110h-538z" />
    <glyph glyph-name="afii10092" unicode="&#x44a;" horiz-adv-x="431" 
d="M98 0l43 349h-90l8 66h162l-20 -159h75c28 0 73 -2 108 -32c29 -26 35 -57 35 -85c0 -46 -16 -76 -36 -96c-39 -40 -96 -43 -126 -43h-86h-73zM178 64h75c25 0 52 5 68 17c10 8 24 23 24 51c0 26 -12 40 -22 47c-17 12 -47 13 -61 13h-68z" />
    <glyph glyph-name="afii10093" unicode="&#x44b;" horiz-adv-x="562" 
d="M422 0l51 415h72l-51 -415h-72zM68 0l51 415h72l-20 -159h75c28 0 73 -2 108 -32c29 -26 35 -57 35 -85c0 -46 -16 -76 -36 -96c-39 -40 -96 -43 -126 -43h-86h-73zM148 64h75c25 0 52 5 68 17c10 8 24 23 24 51c0 26 -12 40 -22 47c-17 12 -47 13 -61 13h-68z" />
    <glyph glyph-name="afii10094" unicode="&#x44c;" horiz-adv-x="401" 
d="M68 0l51 415h72l-20 -159h75c28 0 73 -2 108 -32c29 -26 35 -57 35 -85c0 -46 -16 -76 -36 -96c-39 -40 -96 -43 -126 -43h-87h-72zM148 64h75c25 0 52 5 68 17c14 10 24 28 24 51c0 26 -12 40 -22 47c-17 12 -47 13 -61 13h-68z" />
    <glyph glyph-name="afii10095" unicode="&#x44d;" horiz-adv-x="426" 
d="M82 330l9 70c22 10 62 25 118 25c70 0 116 -23 144 -49c46 -43 56 -101 56 -147c0 -88 -33 -143 -65 -176c-50 -51 -112 -65 -172 -65c-63 0 -104 15 -129 28l9 70c40 -28 79 -34 115 -34c37 0 81 5 118 41c20 19 38 49 44 87h-219l8 64h217c-2 41 -21 67 -39 83
c-31 27 -69 34 -105 34c-27 0 -66 -5 -109 -31z" />
    <glyph glyph-name="afii10096" unicode="&#x44e;" horiz-adv-x="692" 
d="M170 245h74c13 53 41 90 66 115c35 34 89 65 166 65c80 0 124 -34 144 -53c28 -27 55 -73 55 -141c0 -64 -22 -134 -71 -182c-54 -53 -115 -61 -166 -61c-58 0 -111 12 -153 57c-28 29 -51 76 -51 134h-72l-22 -179h-72l51 415h72zM470 361c-40 0 -77 -11 -109 -43
c-35 -35 -52 -86 -52 -132s16 -78 35 -97c24 -25 62 -37 95 -37c43 0 83 17 110 45c30 30 51 80 51 133c0 42 -16 74 -35 94c-16 17 -45 37 -95 37z" />
    <glyph glyph-name="afii10097" unicode="&#x44f;" horiz-adv-x="408" 
d="M20 0l150 171c-5 0 -45 5 -73 32c-23 23 -27 50 -27 71c0 52 21 84 39 101c39 38 91 40 137 40h145l-51 -415h-72l21 167h-40l-139 -167h-90zM296 227l15 124h-74c-18 0 -49 -2 -69 -16c-21 -15 -24 -35 -24 -48c0 -15 2 -33 22 -46c18 -12 47 -14 66 -14h64z" />
    <glyph glyph-name="afii10071" unicode="&#x451;" horiz-adv-x="483" 
d="M395 139l61 -33c-19 -32 -49 -67 -77 -86c-41 -27 -85 -32 -120 -32c-49 0 -96 9 -137 52c-25 26 -55 72 -55 149c0 71 27 134 71 178c43 43 90 58 145 58c70 0 111 -25 135 -49c30 -31 58 -88 47 -183h-323c-1 -59 19 -92 37 -110c24 -24 52 -31 82 -31c24 0 53 4 80 23
c21 15 42 42 54 64zM154 253h242c-1 30 -14 62 -35 82c-23 22 -53 26 -76 26c-37 0 -66 -10 -91 -35c-18 -18 -33 -44 -40 -73zM351 543c0 15 7 30 17 40c8 8 21 17 40 17c24 0 44 -18 44 -44c0 -13 -7 -29 -18 -40s-25 -16 -38 -16c-23 0 -45 17 -45 43zM177 543
c0 15 7 30 17 40c8 8 21 17 40 17c24 0 44 -18 44 -44c0 -13 -7 -29 -18 -40s-25 -16 -38 -16c-23 0 -45 17 -45 43z" />
    <glyph glyph-name="afii10099" unicode="&#x452;" horiz-adv-x="469" 
d="M68 0l63 514h-98l7 60h98l20 155h72l-20 -155h200l-7 -60h-200l-23 -187c2 3 20 25 42 39c26 16 54 19 76 19c30 0 69 -6 100 -36c28 -28 33 -62 33 -93c0 -22 -3 -43 -6 -69l-33 -275c-6 -49 -12 -83 -42 -110c-28 -26 -59 -32 -91 -32c-20 0 -38 2 -58 9l9 70
c14 -5 31 -9 46 -9c24 0 38 9 44 16c13 13 17 37 20 60l30 251c6 47 6 65 6 71c0 17 -2 43 -21 62c-12 12 -32 21 -58 21c-32 0 -58 -12 -74 -29c-28 -29 -36 -78 -41 -115l-22 -177h-72z" />
    <glyph glyph-name="afii10100" unicode="&#x453;" horiz-adv-x="318" 
d="M68 0l51 415h246l-8 -66h-174l-43 -349h-72zM334 666l70 -34l-151 -135l-42 24z" />
    <glyph glyph-name="afii10101" unicode="&#x454;" horiz-adv-x="440" 
d="M442 385l-10 -86c-14 16 -34 34 -52 44c-20 11 -48 18 -74 18c-37 0 -77 -12 -106 -37c-22 -19 -41 -47 -50 -80h217l-8 -64h-218c3 -51 29 -82 40 -92c29 -28 62 -36 96 -36c29 0 52 5 77 18c27 14 45 32 58 47l-10 -86c-20 -15 -40 -26 -60 -32c-24 -8 -50 -11 -74 -11
c-51 0 -103 11 -146 55c-36 37 -55 88 -55 145c0 63 26 129 72 174c27 27 81 63 168 63c42 0 91 -10 135 -40z" />
    <glyph glyph-name="afii10102" unicode="&#x455;" horiz-adv-x="350" 
d="M339 350l-63 -31c-4 13 -11 22 -17 28c-11 11 -22 14 -36 14c-15 0 -28 -3 -40 -13c-11 -10 -16 -23 -16 -37s6 -23 12 -29c10 -10 26 -17 41 -24l38 -19c16 -8 40 -24 53 -37c20 -22 27 -47 27 -74c0 -38 -13 -72 -35 -96c-37 -40 -89 -44 -119 -44s-59 4 -87 27
c-23 19 -41 48 -49 79l63 26c4 -15 13 -36 25 -49c14 -14 31 -19 50 -19c13 0 37 1 56 18c14 13 21 33 21 53c0 18 -8 32 -22 43c-7 6 -29 18 -43 25l-23 11c-17 8 -42 23 -55 38c-17 19 -23 41 -23 65c0 38 16 66 35 85c29 29 62 35 94 35c26 0 50 -5 75 -25
c16 -13 30 -31 38 -50z" />
    <glyph glyph-name="afii10103" unicode="&#x456;" horiz-adv-x="208" 
d="M119 415h72l-51 -415h-72zM123 566c0 15 6 29 14 38c8 10 23 19 43 19c14 0 24 -4 32 -12c9 -9 13 -20 13 -33c0 -18 -7 -31 -16 -40c-13 -14 -29 -17 -40 -17c-13 0 -24 4 -34 14c-8 8 -12 19 -12 31z" />
    <glyph glyph-name="afii10104" unicode="&#x457;" horiz-adv-x="208" 
d="M121 415h72l-51 -415h-72zM184 566c0 13 4 29 13 40c9 12 20 17 33 17c12 0 21 -4 29 -13c5 -6 11 -17 11 -32s-5 -31 -17 -43c-8 -8 -17 -12 -28 -12c-13 0 -23 6 -29 12c-8 8 -12 19 -12 31zM77 566c0 13 4 29 13 40c9 12 20 17 33 17c12 0 21 -4 29 -13
c5 -6 11 -17 11 -32s-5 -31 -17 -43c-8 -8 -17 -12 -28 -12c-13 0 -23 6 -29 12c-8 8 -12 19 -12 31z" />
    <glyph glyph-name="afii10105" unicode="&#x458;" horiz-adv-x="207" 
d="M119 415h72l-80 -645h-72zM122 566c0 15 6 29 14 38c8 10 23 19 43 19c14 0 24 -4 32 -12c9 -9 13 -20 13 -33c0 -18 -7 -31 -16 -40c-13 -14 -29 -17 -40 -17c-13 0 -24 4 -34 14c-8 8 -12 19 -12 31z" />
    <glyph glyph-name="afii10106" unicode="&#x459;" horiz-adv-x="643" 
d="M310 0l43 349h-148l-23 -182c-6 -46 -13 -91 -49 -128c-30 -30 -76 -47 -125 -39l8 66c25 -6 48 3 62 15c24 22 30 66 33 88l30 246h292l-20 -159h75c28 0 73 -2 108 -32c29 -26 35 -57 35 -85c0 -46 -16 -76 -36 -96c-39 -40 -96 -43 -126 -43h-159zM390 64h75
c25 0 52 5 68 17c14 10 24 28 24 51c0 26 -12 40 -22 47c-17 12 -47 13 -61 13h-68z" />
    <glyph glyph-name="afii10107" unicode="&#x45a;" horiz-adv-x="669" 
d="M336 0l24 192h-196l-24 -192h-72l51 415h72l-19 -159h195l20 159h72l-20 -159h75c28 0 73 -2 108 -32c29 -26 35 -57 35 -85c0 -46 -16 -76 -36 -96c-39 -40 -96 -43 -126 -43h-159zM416 64h75c25 0 52 5 68 17c14 10 24 28 24 51c0 26 -12 40 -22 47
c-17 12 -47 13 -61 13h-68z" />
    <glyph glyph-name="afii10108" unicode="&#x45b;" horiz-adv-x="469" 
d="M68 0l63 514h-98l7 60h98l20 155h72l-20 -155h200l-7 -60h-200l-23 -187c2 3 20 25 42 39c26 16 54 19 76 19c30 0 69 -6 100 -36c28 -28 33 -62 33 -93c0 -19 -2 -40 -5 -63l-24 -193h-72l20 167c6 47 6 65 6 71c0 17 -2 43 -21 62c-12 12 -32 21 -58 21
c-32 0 -58 -12 -74 -29c-28 -29 -36 -78 -41 -115l-22 -177h-72z" />
    <glyph glyph-name="afii10109" unicode="&#x45c;" horiz-adv-x="422" 
d="M119 415h72l-21 -170l189 170h88l-207 -187l174 -228h-90l-140 182l-24 -21l-20 -161h-72zM355 666l70 -34l-151 -135l-42 24z" />
    <glyph glyph-name="afii10110" unicode="&#x45e;" horiz-adv-x="460" 
d="M39 -230l165 269l-145 376h80l110 -297l172 297h82l-384 -645h-80zM148 594l60 23c5 -18 15 -34 28 -44c14 -11 34 -16 55 -16c19 0 39 4 55 15c15 11 27 29 32 45l60 -23c-5 -11 -20 -45 -54 -70c-28 -20 -58 -27 -93 -27c-33 0 -66 6 -95 28c-18 14 -38 36 -48 69z" />
    <glyph glyph-name="afii10193" unicode="&#x45f;" horiz-adv-x="466" 
d="M68 0l51 415h72l-43 -349h186l43 349h72l-51 -415h-132l-14 -120h-66l14 120h-132z" />
    <glyph glyph-name="afii10146" unicode="&#x462;" horiz-adv-x="612" 
d="M174 0l63 517h-160l9 70h160l13 107h74l-13 -107h180l-9 -70h-180l-15 -127h74c71 0 136 -11 180 -56c37 -38 45 -82 45 -118c0 -70 -25 -124 -61 -158c-59 -55 -144 -58 -194 -58h-166zM287 320l-30 -250h86c35 0 98 4 133 34c24 20 42 57 42 102c0 57 -29 83 -45 93
c-10 7 -38 21 -110 21h-76z" />
    <glyph glyph-name="afii10194" unicode="&#x463;" horiz-adv-x="431" 
d="M98 0l43 349h-90l8 66h90l31 252h72l-31 -252h120l-8 -66h-120l-12 -93h75c28 0 73 -2 108 -32c29 -26 35 -57 35 -85c0 -46 -16 -76 -36 -96c-39 -40 -96 -43 -126 -43h-159zM178 64h75c25 0 52 5 68 17c14 10 24 28 24 51c0 26 -12 40 -22 47c-17 12 -47 13 -61 13h-68
z" />
    <glyph glyph-name="afii10147" unicode="&#x472;" horiz-adv-x="800" 
d="M399 -12c-73 0 -156 19 -222 87c-41 42 -86 114 -86 221c0 137 60 226 114 277c73 70 163 105 274 105c73 0 155 -16 224 -84c43 -42 88 -112 88 -218c0 -103 -37 -210 -112 -283c-58 -56 -153 -105 -280 -105zM176 380h537c-1 17 -9 99 -69 160c-33 33 -88 68 -173 68
c-93 0 -164 -35 -211 -79c-38 -36 -70 -85 -84 -149zM710 310h-542c-1 -81 32 -145 69 -184c35 -36 89 -68 170 -68c90 0 167 32 216 80c44 43 76 105 87 172z" />
    <glyph glyph-name="afii10195" unicode="&#x473;" horiz-adv-x="528" 
d="M268 -12c-59 0 -108 15 -148 57c-29 31 -53 78 -53 145c0 60 20 122 75 173c46 42 99 62 166 62c68 0 117 -22 152 -57c42 -42 51 -93 51 -136c0 -90 -37 -148 -70 -180c-53 -52 -117 -64 -173 -64zM150 244h285c-2 37 -18 63 -33 79c-26 27 -58 38 -97 38
c-40 0 -73 -12 -103 -37c-31 -26 -45 -55 -52 -80zM429 180h-288c2 -37 17 -69 36 -89c19 -21 52 -39 98 -39c40 0 75 14 99 34c25 21 46 55 55 94z" />
    <glyph glyph-name="afii10148" unicode="&#x474;" horiz-adv-x="556" 
d="M90 667h81l125 -509l251 509h83l-357 -707z" />
    <glyph glyph-name="afii10196" unicode="&#x475;" horiz-adv-x="424" 
d="M59 415h78l90 -280l158 280h82l-258 -442z" />
    <glyph glyph-name="afii10050" unicode="&#x490;" horiz-adv-x="404" 
d="M86 0l82 667h234l17 140h70l-26 -210h-230l-73 -597h-74z" />
    <glyph glyph-name="afii10098" unicode="&#x491;" horiz-adv-x="328" 
d="M68 0l51 415h180l13 110h66l-21 -176h-174l-43 -349h-72z" />
    <glyph glyph-name="uni0492" unicode="&#x492;" horiz-adv-x="404" 
d="M86 0l41 334h-86l8 66h86l33 267h304l-9 -70h-230l-24 -197h136l-8 -66h-136l-41 -334h-74z" />
    <glyph glyph-name="uni0493" unicode="&#x493;" horiz-adv-x="318" 
d="M68 0l23 188h-68l7 60h68l21 167h246l-8 -66h-174l-13 -101h100l-7 -60h-100l-23 -188h-72z" />
    <glyph glyph-name="uni0494" unicode="&#x494;" horiz-adv-x="560" 
d="M501 597h-268l-26 -212c47 17 92 23 132 23c73 0 118 -23 146 -49c29 -27 56 -78 56 -156c0 -59 -21 -122 -60 -160c-43 -42 -100 -50 -148 -50c-29 0 -56 3 -83 8l9 69c31 -6 57 -7 69 -7c30 0 68 5 97 32c33 30 38 71 38 108c0 51 -15 81 -31 99c-29 32 -72 36 -104 36
c-45 0 -86 -7 -129 -23l-39 -315h-74l82 667h342z" />
    <glyph glyph-name="uni0495" unicode="&#x495;" horiz-adv-x="430" 
d="M68 0l51 415h246l-8 -66h-174l-14 -113h12c54 0 118 -10 163 -57c35 -37 45 -84 45 -126c0 -56 -17 -148 -108 -208c-61 -41 -130 -51 -147 -53l8 70c32 5 73 18 100 38c41 30 73 87 73 149c0 43 -16 76 -37 94c-28 25 -65 27 -97 27h-20l-21 -170h-72z" />
    <glyph glyph-name="uni0496" unicode="&#x496;" horiz-adv-x="810" 
d="M450 667h74l-35 -286l289 286h92l-320 -311l196 -286h57l-26 -210h-70l17 140h-22l-207 305l-18 -18l-35 -287h-74l35 287l-14 18l-281 -305h-94l334 356l-242 311h90l219 -286z" />
    <glyph glyph-name="uni0497" unicode="&#x497;" horiz-adv-x="596" 
d="M313 415h72l-21 -170l177 170h84l-207 -196l119 -153h58l-22 -176h-66l14 110h-19l-133 175l-15 -14l-20 -161h-72l20 161l-13 14l-175 -175h-90l227 224l-156 191h82l135 -170z" />
    <glyph glyph-name="uni0498" unicode="&#x498;" horiz-adv-x="555" 
d="M202 536l-54 45c21 26 50 52 80 69c37 20 77 28 118 28c40 0 96 -7 136 -46c26 -25 43 -61 43 -111c0 -46 -15 -84 -35 -109c-19 -23 -49 -40 -76 -49c37 -7 62 -26 75 -40c33 -34 40 -75 40 -110c0 -60 -22 -119 -62 -160c-29 -30 -80 -61 -150 -64l-19 -149h-70l19 150
c-44 2 -89 18 -121 44c-34 27 -62 73 -76 114l71 32c9 -32 27 -64 52 -86c37 -32 79 -36 115 -36c37 0 82 6 120 42c27 26 44 63 44 108c0 23 -4 62 -43 89c-21 14 -54 25 -112 25h-68l8 70h55c37 0 85 5 118 33c22 19 38 49 38 87c0 36 -16 57 -31 70c-22 18 -53 26 -82 26
c-37 0 -63 -11 -80 -22c-21 -13 -40 -33 -53 -50z" />
    <glyph glyph-name="uni0499" unicode="&#x499;" horiz-adv-x="404" 
d="M141 309l-45 41c16 20 39 40 59 52c29 17 60 23 93 23c31 0 67 -6 96 -35c20 -21 27 -44 27 -70c0 -21 -5 -41 -19 -60c-7 -10 -20 -22 -40 -30c15 -5 28 -13 39 -25c20 -21 27 -41 27 -69c0 -45 -18 -79 -41 -102c-22 -22 -60 -43 -110 -45l-14 -109h-66l14 111
c-39 4 -66 22 -83 39c-26 25 -40 59 -42 64l64 26c6 -16 18 -36 32 -47c15 -12 38 -21 70 -21c42 0 66 12 80 25c10 10 22 27 22 53c0 20 -8 35 -24 45c-19 12 -48 13 -61 13h-42l8 66h35c10 0 50 1 69 19c7 7 14 18 14 36c0 13 -4 25 -14 35c-16 16 -38 17 -51 17
c-22 0 -40 -4 -59 -16c-14 -9 -28 -23 -38 -36z" />
    <glyph glyph-name="uni049A" unicode="&#x49a;" horiz-adv-x="568" 
d="M242 667l-35 -286l319 286h100l-352 -311l224 -286h63l-26 -210h-70l17 140h-30l-235 306l-22 -19l-35 -287h-74l82 667h74z" />
    <glyph glyph-name="uni049B" unicode="&#x49b;" horiz-adv-x="422" 
d="M119 415h72l-21 -170l189 170h88l-207 -187l124 -162h58l-22 -176h-66l14 110h-24l-140 182l-24 -21l-20 -161h-72z" />
    <glyph glyph-name="uni049C" unicode="&#x49c;" horiz-adv-x="649" 
d="M168 667h74l-36 -291h80l17 140h66l-17 -140l269 291h87l-298 -322l227 -345h-95l-198 310l-18 -150h-66l18 150h-80l-38 -310h-74z" />
    <glyph glyph-name="uni049D" unicode="&#x49d;" horiz-adv-x="450" 
d="M119 415h72l-21 -170h50l12 100h60l-12 -100l130 170h78l-153 -199l109 -216h-78l-93 185l-14 -110h-60l14 110h-50l-23 -185h-72z" />
    <glyph glyph-name="uni04A0" unicode="&#x4a0;" horiz-adv-x="656" 
d="M714 667l-352 -311l278 -356h-100l-235 306l-22 -19l-35 -287h-74l73 597h-160l9 70h234l-35 -286l319 286h100z" />
    <glyph glyph-name="uni04A1" unicode="&#x4a1;" horiz-adv-x="452" 
d="M98 0l43 349h-90l8 66h162l-21 -170l189 170h88l-207 -187l174 -228h-90l-140 182l-24 -21l-20 -161h-72z" />
    <glyph glyph-name="uni04A2" unicode="&#x4a2;" horiz-adv-x="666" 
d="M86 0l82 667h74l-33 -271h342l33 271h74l-73 -597h76l-26 -210h-70l17 140h-80l40 326h-342l-40 -326h-74z" />
    <glyph glyph-name="uni04A3" unicode="&#x4a3;" horiz-adv-x="484" 
d="M68 0l51 415h72l-21 -170h196l21 170h72l-43 -349h68l-22 -176h-66l14 110h-74l22 179h-196l-22 -179h-72z" />
    <glyph glyph-name="uni04A4" unicode="&#x4a4;" horiz-adv-x="820" 
d="M86 0l82 667h74l-33 -271h342l33 271h304l-9 -70h-230l-73 -597h-74l40 326h-342l-40 -326h-74z" />
    <glyph glyph-name="uni04A5" unicode="&#x4a5;" horiz-adv-x="586" 
d="M68 0l51 415h72l-21 -170h196l21 170h246l-8 -66h-174l-43 -349h-72l22 179h-196l-22 -179h-72z" />
    <glyph glyph-name="uni04AA" unicode="&#x4aa;" horiz-adv-x="650" 
d="M675 612l-11 -92c-18 20 -43 43 -78 61c-39 20 -74 27 -113 27c-87 0 -163 -33 -217 -87c-54 -55 -87 -133 -87 -214s33 -141 70 -180c48 -50 104 -69 168 -69c51 0 94 11 127 28c27 14 61 38 84 59l-11 -92c-64 -46 -123 -60 -161 -64l-19 -149h-70l19 150
c-55 1 -133 16 -201 86c-61 63 -84 138 -84 222c0 148 69 237 112 279c77 76 166 101 269 101c45 0 82 -4 125 -21c31 -12 55 -26 78 -45z" />
    <glyph glyph-name="uni04AB" unicode="&#x4ab;" horiz-adv-x="440" 
d="M442 385l-10 -86c-14 16 -34 34 -52 44c-20 11 -48 18 -75 18c-46 0 -82 -16 -111 -43c-27 -26 -53 -67 -53 -126c0 -52 21 -85 40 -104c28 -28 62 -36 96 -36c29 0 52 5 77 18c27 14 45 32 58 47l-10 -86c-36 -28 -75 -38 -100 -42l-14 -109h-66l14 111
c-53 4 -90 28 -114 52c-36 37 -55 89 -55 143c0 65 27 132 72 176c29 28 81 63 165 63c35 0 88 -7 138 -40z" />
    <glyph glyph-name="uni04AE" unicode="&#x4ae;" horiz-adv-x="530" 
d="M227 0l35 287l-172 380h84l133 -298l209 298h88l-268 -380l-35 -287h-74z" />
    <glyph glyph-name="uni04AF" unicode="&#x4af;" horiz-adv-x="424" 
d="M59 415h78l90 -280l158 280h82l-213 -364l-34 -281h-72l34 281z" />
    <glyph glyph-name="uni04B0" unicode="&#x4b0;" horiz-adv-x="530" 
d="M227 0l27 221h-190l8 66h190l-172 380h84l133 -298l209 298h88l-268 -380h190l-8 -66h-190l-27 -221h-74z" />
    <glyph glyph-name="uni04B1" unicode="&#x4b1;" horiz-adv-x="424" 
d="M59 415h78l90 -280l158 280h82l-213 -364l-6 -51h120l-8 -66h-120l-21 -164h-72l21 164h-120l8 66h120l6 51z" />
    <glyph glyph-name="uni04B2" unicode="&#x4b2;" horiz-adv-x="518" 
d="M14 0l239 345l-139 322h82l107 -251l173 251h84l-223 -322l122 -275h55l-26 -210h-70l17 140h-29l-119 274l-189 -274h-84z" />
    <glyph glyph-name="uni04B3" unicode="&#x4b3;" horiz-adv-x="452" 
d="M8 0l204 222l-127 193h86l90 -141l126 141h88l-176 -194l101 -155h51l-22 -176h-66l14 110h-19l-110 169l-152 -169h-88z" />
    <glyph glyph-name="uni04B6" unicode="&#x4b6;" horiz-adv-x="596" 
d="M512 0h-80l36 292c-25 -5 -67 -13 -118 -13c-48 0 -116 7 -159 32c-44 25 -67 64 -67 117c0 7 0 25 6 72l20 167h74l-20 -162c-3 -26 -5 -43 -5 -59c0 -27 5 -54 37 -75c21 -14 54 -22 120 -22c43 0 78 3 120 11l38 307h74l-73 -597h76l-26 -210h-70z" />
    <glyph glyph-name="uni04B7" unicode="&#x4b7;" horiz-adv-x="438" 
d="M341 415h72l-43 -349h68l-22 -176h-66l14 110h-74l20 166c-29 -9 -59 -12 -83 -12c-34 0 -82 8 -109 31c-25 22 -29 50 -29 73c0 15 2 31 6 61l12 96h72l-11 -92c-4 -30 -5 -41 -5 -50c0 -16 4 -31 21 -41c19 -12 51 -12 63 -12c38 0 61 7 71 11z" />
    <glyph glyph-name="uni04B8" unicode="&#x4b8;" horiz-adv-x="623" 
d="M463 0l35 285c-36 -5 -75 -8 -117 -7l-17 -138h-66l17 139c-45 0 -100 13 -132 34c-42 27 -59 65 -59 114c0 26 4 51 7 76l20 164h74l-20 -161c-5 -39 -6 -52 -6 -62c0 -22 4 -58 38 -79c19 -12 57 -19 87 -18l18 149h66l-18 -153c37 -1 76 1 116 8l39 316h74l-82 -667
h-74z" />
    <glyph glyph-name="uni04B9" unicode="&#x4b9;" horiz-adv-x="460" 
d="M320 0l20 161c-23 -4 -45 -6 -65 -6l-12 -100h-60l12 99c-31 -2 -70 7 -92 24c-16 13 -34 36 -34 75c0 8 1 21 5 57l13 105h72l-13 -103c-2 -13 -3 -23 -3 -35c0 -13 2 -32 16 -44c12 -10 31 -13 44 -12l13 104h60l-13 -106c20 0 42 2 65 8l23 188h72l-51 -415h-72z" />
    <glyph glyph-name="uni04BA" unicode="&#x4ba;" horiz-adv-x="593" 
d="M242 667l-33 -266c36 5 75 7 118 7c104 0 149 -21 172 -37c35 -24 55 -60 55 -110c0 -18 -5 -58 -6 -69l-24 -192h-74l23 182c2 15 5 45 5 59c0 36 -11 63 -47 80c-13 6 -40 17 -106 17c-40 0 -89 -3 -124 -7l-41 -331h-74l82 667h74z" />
    <glyph glyph-name="uni04BB" unicode="&#x4bb;" horiz-adv-x="469" 
d="M68 0l90 729h72l-45 -362c2 3 20 25 42 39c26 16 54 19 76 19c30 0 69 -6 100 -36c28 -28 33 -62 33 -93c0 -21 -3 -44 -6 -69l-28 -227h-72l25 207c2 17 6 52 6 71c0 17 -2 43 -21 62c-12 12 -32 21 -58 21c-32 0 -58 -12 -74 -29c-28 -29 -36 -78 -41 -115l-27 -217
h-72z" />
    <glyph glyph-name="uni04C0" unicode="&#x4c0;" horiz-adv-x="246" 
d="M168 667h74l-82 -667h-74z" />
    <glyph glyph-name="uni04C1" unicode="&#x4c1;" horiz-adv-x="810" 
d="M450 667h74l-35 -286l289 286h92l-320 -311l244 -356h-92l-207 305l-18 -18l-35 -287h-74l35 287l-14 18l-281 -305h-94l334 356l-242 311h90l219 -286zM352 818l71 23c4 -21 15 -33 24 -40c11 -9 29 -16 58 -16c14 0 40 2 60 16c19 13 26 31 28 40l67 -23
c-8 -24 -25 -53 -62 -74c-30 -17 -63 -23 -95 -23c-29 0 -73 4 -108 32c-16 13 -34 33 -43 65z" />
    <glyph glyph-name="uni04C2" unicode="&#x4c2;" horiz-adv-x="596" 
d="M313 415h72l-21 -170l177 170h84l-207 -196l170 -219h-86l-133 175l-15 -14l-20 -161h-72l20 161l-13 14l-175 -175h-90l227 224l-156 191h82l135 -170zM226 594l60 23c5 -18 15 -34 28 -44c14 -11 34 -16 55 -16c19 0 39 4 55 15c15 11 27 29 32 45l60 -23
c-5 -11 -20 -45 -54 -70c-28 -20 -58 -27 -93 -27c-33 0 -66 6 -95 28c-18 14 -38 36 -48 69z" />
    <glyph glyph-name="uni04C3" unicode="&#x4c3;" horiz-adv-x="580" 
d="M242 667l-37 -296l315 296h100l-290 -272c57 0 120 -29 159 -67c65 -63 73 -142 73 -200c0 -82 -19 -169 -80 -229c-37 -37 -86 -59 -148 -59c-35 0 -62 9 -80 16l20 70c18 -10 36 -15 62 -15c40 0 70 15 93 38c38 38 57 110 57 171c0 71 -22 126 -54 157
c-32 32 -86 51 -144 51c-29 0 -62 -5 -89 -11l-39 -317h-74l82 667h74z" />
    <glyph glyph-name="uni04C4" unicode="&#x4c4;" horiz-adv-x="428" 
d="M119 415h72l-22 -174l190 174h88l-203 -186c40 -8 80 -29 106 -59c32 -37 39 -79 39 -114c0 -65 -22 -154 -108 -211c-61 -40 -131 -51 -145 -53l8 70c36 5 73 20 98 38c50 37 73 98 73 147c0 42 -16 76 -39 95c-27 23 -70 32 -103 32h-12l-21 -174h-72z" />
    <glyph glyph-name="uni04C7" unicode="&#x4c7;" horiz-adv-x="662" 
d="M86 0l82 667h74l-33 -271h342l33 271h74l-92 -731c-7 -54 -15 -106 -50 -137c-17 -15 -45 -29 -89 -29c-25 0 -47 4 -67 11l8 70c17 -8 33 -11 49 -11c22 0 37 7 48 17c21 20 26 55 29 81l48 388h-342l-40 -326h-74z" />
    <glyph glyph-name="uni04C8" unicode="&#x4c8;" horiz-adv-x="476" 
d="M68 0l51 415h72l-21 -170h196l21 170h72l-63 -503c-6 -50 -12 -83 -42 -110c-28 -26 -59 -32 -91 -32c-20 0 -38 2 -58 9l9 70c14 -5 31 -9 46 -9c24 0 38 9 44 16c13 14 17 37 20 60l34 263h-196l-22 -179h-72z" />
    <glyph glyph-name="uni04D0" unicode="&#x4d0;" horiz-adv-x="622" 
d="M534 0l-55 188h-284l-103 -188h-84l393 699l213 -699h-80zM233 258h226l-80 267zM252 818l71 23c4 -21 15 -33 24 -40c11 -9 29 -16 58 -16c14 0 40 2 60 16c19 13 26 31 28 40l67 -23c-8 -24 -25 -53 -62 -74c-30 -17 -63 -23 -95 -23c-29 0 -73 4 -108 32
c-16 13 -34 33 -43 65z" />
    <glyph glyph-name="uni04D1" unicode="&#x4d1;" horiz-adv-x="528" 
d="M432 356l7 59h72l-51 -415h-72l7 58c-13 -18 -31 -37 -52 -49c-30 -17 -61 -21 -86 -21c-50 0 -96 10 -135 51c-31 33 -54 80 -54 148c0 85 33 147 72 184s87 54 149 54c28 0 58 -4 88 -20c25 -13 42 -29 55 -49zM295 361c-46 0 -79 -19 -100 -39
c-31 -29 -53 -79 -53 -130c0 -41 15 -83 43 -109c25 -24 55 -31 84 -31c45 0 79 15 103 41c30 31 47 84 47 135c0 56 -25 87 -39 100c-17 16 -44 33 -85 33zM168 594l60 23c5 -18 15 -34 28 -44c14 -11 34 -16 55 -16c19 0 39 4 55 15c15 11 27 29 32 45l60 -23
c-5 -11 -20 -45 -54 -70c-28 -20 -58 -27 -93 -27c-33 0 -66 6 -95 28c-18 14 -38 36 -48 69z" />
    <glyph glyph-name="uni04D2" unicode="&#x4d2;" horiz-adv-x="622" 
d="M534 0l-55 188h-284l-103 -188h-84l393 699l213 -699h-80zM233 258h226l-80 267zM450 778c0 10 2 24 15 38s29 19 42 19c11 0 23 -4 32 -12c6 -6 13 -16 13 -31s-6 -31 -16 -42c-8 -8 -21 -17 -40 -17c-18 0 -29 8 -34 13c-7 7 -12 19 -12 32zM260 778c0 10 2 24 15 38
s29 19 42 19c11 0 23 -4 32 -12c6 -6 13 -16 13 -31s-6 -31 -16 -42c-8 -8 -21 -17 -40 -17c-18 0 -29 8 -34 13c-7 7 -12 19 -12 32z" />
    <glyph glyph-name="uni04D3" unicode="&#x4d3;" horiz-adv-x="528" 
d="M432 356l7 59h72l-51 -415h-72l7 58c-13 -18 -31 -37 -52 -49c-30 -17 -61 -21 -86 -21c-50 0 -96 10 -135 51c-31 33 -54 80 -54 148c0 85 33 147 72 184s87 54 149 54c28 0 58 -4 88 -20c25 -13 42 -29 55 -49zM295 361c-46 0 -79 -19 -100 -39
c-31 -29 -53 -79 -53 -130c0 -41 15 -83 43 -109c25 -24 55 -31 84 -31c45 0 79 15 103 41c30 31 47 84 47 135c0 56 -25 87 -39 100c-17 16 -44 33 -85 33zM344 543c0 15 7 30 17 40c8 8 21 17 40 17c24 0 44 -18 44 -44c0 -13 -7 -29 -18 -40s-25 -16 -38 -16
c-23 0 -45 17 -45 43zM170 543c0 15 7 30 17 40c8 8 21 17 40 17c24 0 44 -18 44 -44c0 -13 -7 -29 -18 -40s-25 -16 -38 -16c-23 0 -45 17 -45 43z" />
    <glyph glyph-name="uni04D4" unicode="&#x4d4;" horiz-adv-x="900" 
d="M538 0l-56 187h-284l-102 -187h-82l379 667h293l20 -70h-269l59 -198h264l20 -70h-262l77 -259h271l20 -70h-348zM239 257h223l-78 261z" />
    <glyph glyph-name="uni04D5" unicode="&#x4d5;" horiz-adv-x="776" 
d="M415 348c19 25 43 43 66 55c26 13 59 22 97 22c66 0 108 -24 132 -49c30 -31 58 -88 47 -182h-327v-8c0 -51 19 -84 37 -103c24 -24 51 -31 82 -31c28 0 57 4 84 23c21 15 42 42 54 64l61 -33c-19 -32 -49 -67 -77 -86c-23 -16 -62 -32 -120 -32c-36 0 -76 8 -103 24
c-22 13 -44 37 -58 59c-15 -24 -40 -49 -65 -62c-28 -15 -72 -21 -104 -21c-35 0 -84 6 -116 29c-21 14 -48 44 -48 95c0 49 24 90 58 114c14 10 53 34 127 34c52 0 89 -13 121 -35c4 42 3 86 -26 112c-14 13 -39 24 -84 24c-36 0 -75 -7 -123 -26l8 68c43 15 90 22 128 22
c34 0 71 -6 99 -22c29 -16 43 -38 50 -55zM240 196c-11 0 -54 -1 -83 -23c-12 -9 -27 -27 -27 -53c0 -25 13 -41 27 -51c18 -12 47 -17 75 -17c42 0 66 12 76 17c32 18 38 43 38 62c0 23 -11 38 -30 49c-18 11 -49 16 -76 16zM443 254h247c-1 35 -16 63 -35 81
c-24 22 -52 26 -78 26c-34 0 -65 -6 -94 -35c-18 -18 -33 -44 -40 -72z" />
    <glyph glyph-name="uni04D6" unicode="&#x4d6;" horiz-adv-x="482" 
d="M514 667l-9 -70h-272l-24 -198h264l-9 -70h-264l-31 -259h272l-9 -70h-346l82 667h346zM206 818l71 23c4 -21 15 -33 24 -40c11 -9 29 -16 58 -16c14 0 40 2 60 16c19 13 26 31 28 40l67 -23c-8 -24 -25 -53 -62 -74c-30 -17 -63 -23 -95 -23c-29 0 -73 4 -108 32
c-16 13 -34 33 -43 65z" />
    <glyph glyph-name="uni04D7" unicode="&#x4d7;" horiz-adv-x="483" 
d="M395 139l61 -33c-19 -32 -49 -67 -77 -86c-41 -27 -85 -32 -120 -32c-49 0 -96 9 -137 52c-25 26 -55 72 -55 149c0 71 27 134 71 178c43 43 90 58 145 58c70 0 111 -25 135 -49c30 -31 58 -88 47 -183h-323c-1 -59 19 -92 37 -110c24 -24 52 -31 82 -31c24 0 53 4 80 23
c21 15 42 42 54 64zM154 253h242c-1 30 -14 62 -35 82c-23 22 -53 26 -76 26c-37 0 -66 -10 -91 -35c-18 -18 -33 -44 -40 -73zM158 594l60 23c5 -18 15 -34 28 -44c14 -11 34 -16 55 -16c19 0 39 4 55 15c15 11 27 29 32 45l60 -23c-5 -11 -20 -45 -54 -70
c-28 -20 -58 -27 -93 -27c-33 0 -66 6 -95 28c-18 14 -38 36 -48 69z" />
    <glyph glyph-name="uni04D8" unicode="&#x4d8;" horiz-adv-x="759" 
d="M192 483l-62 35c34 46 80 89 123 114c51 29 113 46 180 46c93 0 176 -32 231 -85c73 -71 86 -160 86 -224c0 -126 -47 -223 -105 -283c-81 -84 -176 -98 -259 -98c-64 0 -143 9 -210 76c-49 49 -87 128 -87 225c0 17 1 31 3 46h580c13 83 -15 159 -65 207
c-36 34 -94 66 -177 66c-53 0 -101 -11 -146 -39c-49 -31 -85 -77 -92 -86zM657 265h-497c3 -63 32 -120 67 -153c51 -47 121 -54 163 -54c73 0 135 15 191 69c34 33 63 79 76 138z" />
    <glyph glyph-name="afii10846" unicode="&#x4d9;" horiz-adv-x="483" 
d="M138 274l-56 33c19 34 47 65 73 83c38 26 79 35 123 35c45 0 93 -9 133 -46c46 -43 56 -99 56 -144c0 -87 -31 -167 -87 -209c-46 -35 -97 -38 -136 -38c-41 0 -90 6 -130 48c-46 48 -55 122 -46 184h324c5 45 -12 88 -36 111c-19 18 -45 30 -84 30c-33 0 -61 -9 -87 -30
c-19 -15 -36 -39 -47 -57zM379 160h-244c1 -30 13 -61 32 -80c14 -14 40 -28 82 -28c33 0 62 10 83 26s41 46 47 82z" />
    <glyph glyph-name="uni04DA" unicode="&#x4da;" horiz-adv-x="759" 
d="M192 483l-62 35c34 46 80 89 123 114c51 29 113 46 180 46c93 0 176 -32 231 -85c73 -71 86 -160 86 -224c0 -126 -47 -223 -105 -283c-81 -84 -176 -98 -259 -98c-64 0 -143 9 -210 76c-49 49 -87 128 -87 225c0 17 1 31 3 46h580c13 83 -15 159 -65 207
c-36 34 -94 66 -177 66c-53 0 -101 -11 -146 -39c-49 -31 -85 -77 -92 -86zM657 265h-497c3 -63 32 -120 67 -153c51 -47 121 -54 163 -54c73 0 135 15 191 69c34 33 63 79 76 138zM486 778c0 10 2 24 15 38s29 19 42 19c11 0 23 -4 32 -12c6 -6 13 -16 13 -31
s-6 -31 -16 -42c-8 -8 -21 -17 -40 -17c-18 0 -29 8 -34 13c-7 7 -12 19 -12 32zM296 778c0 10 2 24 15 38s29 19 42 19c11 0 23 -4 32 -12c6 -6 13 -16 13 -31s-6 -31 -16 -42c-8 -8 -21 -17 -40 -17c-18 0 -29 8 -34 13c-7 7 -12 19 -12 32z" />
    <glyph glyph-name="uni04DB" unicode="&#x4db;" horiz-adv-x="483" 
d="M138 274l-56 33c19 34 47 65 73 83c38 26 79 35 123 35c45 0 93 -9 133 -46c46 -43 56 -99 56 -144c0 -87 -31 -167 -87 -209c-46 -35 -97 -38 -136 -38c-41 0 -90 6 -130 48c-46 48 -55 122 -46 184h324c5 45 -12 88 -36 111c-19 18 -45 30 -84 30c-33 0 -61 -9 -87 -30
c-19 -15 -36 -39 -47 -57zM379 160h-244c1 -30 13 -61 32 -80c14 -14 40 -28 82 -28c33 0 62 10 83 26s41 46 47 82zM328 543c0 15 7 30 17 40c8 8 21 17 40 17c24 0 44 -18 44 -44c0 -13 -7 -29 -18 -40s-25 -16 -38 -16c-23 0 -45 17 -45 43zM154 543c0 15 7 30 17 40
c8 8 21 17 40 17c24 0 44 -18 44 -44c0 -13 -7 -29 -18 -40s-25 -16 -38 -16c-23 0 -45 17 -45 43z" />
    <glyph glyph-name="uni04DC" unicode="&#x4dc;" horiz-adv-x="810" 
d="M450 667h74l-35 -286l289 286h92l-320 -311l244 -356h-92l-207 305l-18 -18l-35 -287h-74l35 287l-14 18l-281 -305h-94l334 356l-242 311h90l219 -286zM545 778c0 10 2 24 15 38s29 19 42 19c11 0 23 -4 32 -12c6 -6 13 -16 13 -31s-6 -31 -16 -42
c-8 -8 -21 -17 -40 -17c-18 0 -29 8 -34 13c-7 7 -12 19 -12 32zM355 778c0 10 2 24 15 38s29 19 42 19c11 0 23 -4 32 -12c6 -6 13 -16 13 -31s-6 -31 -16 -42c-8 -8 -21 -17 -40 -17c-18 0 -29 8 -34 13c-7 7 -12 19 -12 32z" />
    <glyph glyph-name="uni04DD" unicode="&#x4dd;" horiz-adv-x="596" 
d="M313 415h72l-21 -170l177 170h84l-207 -196l170 -219h-86l-133 175l-15 -14l-20 -161h-72l20 161l-13 14l-175 -175h-90l227 224l-156 191h82l135 -170zM402 543c0 15 7 30 17 40c8 8 21 17 40 17c24 0 44 -18 44 -44c0 -13 -7 -29 -18 -40s-25 -16 -38 -16
c-23 0 -45 17 -45 43zM228 543c0 15 7 30 17 40c8 8 21 17 40 17c24 0 44 -18 44 -44c0 -13 -7 -29 -18 -40s-25 -16 -38 -16c-23 0 -45 17 -45 43z" />
    <glyph glyph-name="uni04DE" unicode="&#x4de;" horiz-adv-x="555" 
d="M202 536l-54 45c21 26 50 52 80 69c37 20 77 28 118 28c36 0 95 -5 139 -50c27 -28 40 -63 40 -103c0 -41 -11 -84 -35 -113c-19 -23 -49 -40 -76 -49c37 -7 62 -26 75 -40c34 -34 40 -74 40 -112c0 -56 -14 -110 -62 -158c-58 -57 -127 -65 -183 -65
c-45 0 -108 7 -158 46c-51 41 -74 106 -76 114l71 32c9 -32 27 -64 52 -86c37 -32 79 -36 115 -36c37 0 82 6 120 42c27 26 44 63 44 108c0 23 -4 62 -43 89c-21 14 -54 25 -112 25h-68l8 70h55c37 0 85 5 118 33c22 19 38 49 38 87c0 36 -16 57 -31 70
c-22 18 -53 26 -82 26c-37 0 -63 -11 -80 -22c-21 -13 -40 -33 -53 -50zM402 778c0 10 2 24 15 38s29 19 42 19c11 0 23 -4 32 -12c6 -6 13 -16 13 -31s-6 -31 -16 -42c-8 -8 -21 -17 -40 -17c-18 0 -29 8 -34 13c-7 7 -12 19 -12 32zM212 778c0 10 2 24 15 38s29 19 42 19
c11 0 23 -4 32 -12c6 -6 13 -16 13 -31s-6 -31 -16 -42c-8 -8 -21 -17 -40 -17c-18 0 -29 8 -34 13c-7 7 -12 19 -12 32z" />
    <glyph glyph-name="uni04DF" unicode="&#x4df;" horiz-adv-x="404" 
d="M141 309l-45 41c16 20 39 40 59 52c29 17 58 23 93 23c31 0 67 -6 96 -35c17 -18 27 -39 27 -69c0 -17 -3 -40 -19 -61c-7 -10 -20 -22 -40 -30c23 -8 38 -23 47 -34c12 -16 19 -34 19 -58c0 -44 -18 -86 -53 -114c-40 -32 -92 -36 -128 -36c-38 0 -76 7 -108 32
c-34 27 -52 70 -53 74l64 26c6 -18 18 -36 32 -47c22 -17 49 -21 70 -21c17 0 48 1 72 18c14 10 30 30 30 60c0 20 -8 35 -24 45c-19 12 -48 13 -61 13h-42l8 66h35c10 0 50 1 69 19c7 7 14 18 14 36c0 13 -4 25 -14 35c-16 16 -39 17 -51 17c-18 0 -39 -3 -59 -16
c-14 -9 -29 -24 -38 -36zM281 543c0 15 7 30 17 40c8 8 21 17 40 17c24 0 44 -18 44 -44c0 -13 -7 -29 -18 -40s-25 -16 -38 -16c-23 0 -45 17 -45 43zM107 543c0 15 7 30 17 40c8 8 21 17 40 17c24 0 44 -18 44 -44c0 -13 -7 -29 -18 -40s-25 -16 -38 -16
c-23 0 -45 17 -45 43z" />
    <glyph glyph-name="uni04E2" unicode="&#x4e2;" horiz-adv-x="710" 
d="M550 0l62 509l-530 -539l86 697h74l-63 -511l530 539l-85 -695h-74zM295 733l8 64h320l-8 -64h-320z" />
    <glyph glyph-name="uni04E3" unicode="&#x4e3;" horiz-adv-x="492" 
d="M119 415h72l-34 -276l322 308l-55 -447h-72l34 279l-322 -308zM152 513l7 60h302l-7 -60h-302z" />
    <glyph glyph-name="uni04E4" unicode="&#x4e4;" horiz-adv-x="710" 
d="M550 0l62 509l-530 -539l86 697h74l-63 -511l530 539l-85 -695h-74zM505 778c0 10 2 24 15 38s29 19 42 19c11 0 23 -4 32 -12c6 -6 13 -16 13 -31s-6 -31 -16 -42c-8 -8 -21 -17 -40 -17c-18 0 -29 8 -34 13c-7 7 -12 19 -12 32zM315 778c0 10 2 24 15 38s29 19 42 19
c11 0 23 -4 32 -12c6 -6 13 -16 13 -31s-6 -31 -16 -42c-8 -8 -21 -17 -40 -17c-18 0 -29 8 -34 13c-7 7 -12 19 -12 32z" />
    <glyph glyph-name="uni04E5" unicode="&#x4e5;" horiz-adv-x="492" 
d="M119 415h72l-34 -276l322 308l-55 -447h-72l34 279l-322 -308zM350 543c0 15 7 30 17 40c8 8 21 17 40 17c24 0 44 -18 44 -44c0 -13 -7 -29 -18 -40s-25 -16 -38 -16c-23 0 -45 17 -45 43zM176 543c0 15 7 30 17 40c8 8 21 17 40 17c24 0 44 -18 44 -44
c0 -13 -7 -29 -18 -40s-25 -16 -38 -16c-23 0 -45 17 -45 43z" />
    <glyph glyph-name="uni04E6" unicode="&#x4e6;" horiz-adv-x="800" 
d="M399 -12c-73 0 -156 19 -222 87c-41 42 -86 114 -86 221c0 137 60 226 114 277c73 70 163 105 274 105c73 0 155 -16 224 -84c43 -42 88 -112 88 -218c0 -103 -37 -210 -112 -283c-58 -56 -153 -105 -280 -105zM471 608c-85 0 -159 -31 -211 -79
c-47 -44 -92 -117 -92 -219c0 -82 30 -144 69 -184c35 -36 89 -68 170 -68c90 0 167 32 216 80c59 57 91 145 91 224c0 75 -29 137 -70 178c-33 33 -88 68 -173 68zM523 778c0 10 2 24 15 38s29 19 42 19c11 0 23 -4 32 -12c6 -6 13 -16 13 -31s-6 -31 -16 -42
c-8 -8 -21 -17 -40 -17c-18 0 -29 8 -34 13c-7 7 -12 19 -12 32zM333 778c0 10 2 24 15 38s29 19 42 19c11 0 23 -4 32 -12c6 -6 13 -16 13 -31s-6 -31 -16 -42c-8 -8 -21 -17 -40 -17c-18 0 -29 8 -34 13c-7 7 -12 19 -12 32z" />
    <glyph glyph-name="uni04E7" unicode="&#x4e7;" horiz-adv-x="528" 
d="M268 -12c-59 0 -108 15 -148 57c-29 31 -53 78 -53 145c0 60 20 122 75 173c46 42 99 62 166 62c68 0 117 -22 152 -57c42 -42 51 -93 51 -136c0 -90 -37 -148 -70 -180c-53 -52 -117 -64 -173 -64zM307 361c-28 0 -73 -7 -113 -46c-35 -34 -53 -80 -53 -130
c0 -47 20 -77 36 -94c15 -16 45 -39 96 -39c52 0 89 22 113 48c31 33 50 83 50 131c0 42 -16 73 -34 92c-21 22 -54 38 -95 38zM366 543c0 15 7 30 17 40c8 8 21 17 40 17c24 0 44 -18 44 -44c0 -13 -7 -29 -18 -40s-25 -16 -38 -16c-23 0 -45 17 -45 43zM192 543
c0 15 7 30 17 40c8 8 21 17 40 17c24 0 44 -18 44 -44c0 -13 -7 -29 -18 -40s-25 -16 -38 -16c-23 0 -45 17 -45 43z" />
    <glyph glyph-name="uni04E8" unicode="&#x4e8;" horiz-adv-x="800" 
d="M399 -12c-73 0 -156 19 -222 87c-41 42 -86 114 -86 221c0 137 60 226 114 277c73 70 163 105 274 105c73 0 155 -16 224 -84c43 -42 88 -112 88 -218c0 -103 -37 -210 -112 -283c-58 -56 -153 -105 -280 -105zM176 380h537c-1 17 -9 99 -69 160c-33 33 -88 68 -173 68
c-93 0 -164 -35 -211 -79c-38 -36 -70 -85 -84 -149zM710 310h-542c-1 -81 32 -145 69 -184c35 -36 89 -68 170 -68c90 0 167 32 216 80c44 43 76 105 87 172z" />
    <glyph glyph-name="uni04E9" unicode="&#x4e9;" horiz-adv-x="528" 
d="M268 -12c-59 0 -108 15 -148 57c-29 31 -53 78 -53 145c0 60 20 122 75 173c46 42 99 62 166 62c68 0 117 -22 152 -57c42 -42 51 -93 51 -136c0 -90 -37 -148 -70 -180c-53 -52 -117 -64 -173 -64zM150 244h285c-2 37 -18 63 -33 79c-26 27 -58 38 -97 38
c-40 0 -73 -12 -103 -37c-31 -26 -45 -55 -52 -80zM429 180h-288c2 -37 17 -69 36 -89c19 -21 52 -39 98 -39c40 0 75 14 99 34c25 21 46 55 55 94z" />
    <glyph glyph-name="uni04EA" unicode="&#x4ea;" horiz-adv-x="800" 
d="M399 -12c-73 0 -156 19 -222 87c-41 42 -86 114 -86 221c0 137 60 226 114 277c73 70 163 105 274 105c73 0 155 -16 224 -84c43 -42 88 -112 88 -218c0 -103 -37 -210 -112 -283c-58 -56 -153 -105 -280 -105zM176 380h537c-1 17 -9 99 -69 160c-33 33 -88 68 -173 68
c-93 0 -164 -35 -211 -79c-38 -36 -70 -85 -84 -149zM710 310h-542c-1 -81 32 -145 69 -184c35 -36 89 -68 170 -68c90 0 167 32 216 80c44 43 76 105 87 172zM523 778c0 10 2 24 15 38s29 19 42 19c11 0 23 -4 32 -12c6 -6 13 -16 13 -31s-6 -31 -16 -42
c-8 -8 -21 -17 -40 -17c-18 0 -29 8 -34 13c-7 7 -12 19 -12 32zM333 778c0 10 2 24 15 38s29 19 42 19c11 0 23 -4 32 -12c6 -6 13 -16 13 -31s-6 -31 -16 -42c-8 -8 -21 -17 -40 -17c-18 0 -29 8 -34 13c-7 7 -12 19 -12 32z" />
    <glyph glyph-name="uni04EB" unicode="&#x4eb;" horiz-adv-x="528" 
d="M268 -12c-59 0 -108 15 -148 57c-29 31 -53 78 -53 145c0 60 20 122 75 173c46 42 99 62 166 62c68 0 117 -22 152 -57c42 -42 51 -93 51 -136c0 -90 -37 -148 -70 -180c-53 -52 -117 -64 -173 -64zM150 244h285c-2 37 -18 63 -33 79c-26 27 -58 38 -97 38
c-40 0 -73 -12 -103 -37c-31 -26 -45 -55 -52 -80zM429 180h-288c2 -37 17 -69 36 -89c19 -21 52 -39 98 -39c40 0 75 14 99 34c25 21 46 55 55 94zM354 543c0 15 7 30 17 40c8 8 21 17 40 17c24 0 44 -18 44 -44c0 -13 -7 -29 -18 -40s-25 -16 -38 -16c-23 0 -45 17 -45 43
zM180 543c0 15 7 30 17 40c8 8 21 17 40 17c24 0 44 -18 44 -44c0 -13 -7 -29 -18 -40s-25 -16 -38 -16c-23 0 -45 17 -45 43z" />
    <glyph glyph-name="uni04EE" unicode="&#x4ee;" horiz-adv-x="568" 
d="M90 667h85l160 -393l222 393h85l-383 -667h-80l108 186zM215 733l8 64h320l-8 -64h-320z" />
    <glyph glyph-name="uni04EF" unicode="&#x4ef;" horiz-adv-x="460" 
d="M39 -230l165 269l-145 376h80l110 -297l172 297h82l-384 -645h-80zM132 513l7 60h302l-7 -60h-302z" />
    <glyph glyph-name="uni04F0" unicode="&#x4f0;" horiz-adv-x="568" 
d="M90 667h85l160 -393l222 393h85l-383 -667h-80l108 186zM420 778c0 10 2 24 15 38s29 19 42 19c11 0 23 -4 32 -12c6 -6 13 -16 13 -31s-6 -31 -16 -42c-8 -8 -21 -17 -40 -17c-18 0 -29 8 -34 13c-7 7 -12 19 -12 32zM230 778c0 10 2 24 15 38s29 19 42 19
c11 0 23 -4 32 -12c6 -6 13 -16 13 -31s-6 -31 -16 -42c-8 -8 -21 -17 -40 -17c-18 0 -29 8 -34 13c-7 7 -12 19 -12 32z" />
    <glyph glyph-name="uni04F1" unicode="&#x4f1;" horiz-adv-x="460" 
d="M39 -230l165 269l-145 376h80l110 -297l172 297h82l-384 -645h-80zM334 543c0 15 7 30 17 40c8 8 21 17 40 17c24 0 44 -18 44 -44c0 -13 -7 -29 -18 -40s-25 -16 -38 -16c-23 0 -45 17 -45 43zM160 543c0 15 7 30 17 40c8 8 21 17 40 17c24 0 44 -18 44 -44
c0 -13 -7 -29 -18 -40s-25 -16 -38 -16c-23 0 -45 17 -45 43z" />
    <glyph glyph-name="uni04F2" unicode="&#x4f2;" horiz-adv-x="568" 
d="M90 667h85l160 -393l222 393h85l-383 -667h-80l108 186zM386 882l65 -40l-162 -122l-39 26zM536 882l65 -40l-162 -122l-39 26z" />
    <glyph glyph-name="uni04F3" unicode="&#x4f3;" horiz-adv-x="460" 
d="M39 -230l165 269l-145 376h80l110 -297l172 297h82l-384 -645h-80zM297 666l68 -32l-154 -136l-38 23zM431 666l66 -32l-152 -136l-38 23z" />
    <glyph glyph-name="uni04F4" unicode="&#x4f4;" horiz-adv-x="592" 
d="M432 0l36 292c-25 -5 -67 -13 -118 -13c-48 0 -116 7 -159 32c-44 25 -67 64 -67 117c0 7 0 25 6 72l20 167h74l-20 -162c-3 -26 -5 -43 -5 -59c0 -27 5 -54 37 -75c21 -14 54 -22 120 -22c43 0 78 3 120 11l38 307h74l-82 -667h-74zM430 778c0 10 2 24 15 38
s29 19 42 19c11 0 23 -4 32 -12c6 -6 13 -16 13 -31s-6 -31 -16 -42c-8 -8 -21 -17 -40 -17c-18 0 -29 8 -34 13c-7 7 -12 19 -12 32zM240 778c0 10 2 24 15 38s29 19 42 19c11 0 23 -4 32 -12c6 -6 13 -16 13 -31s-6 -31 -16 -42c-8 -8 -21 -17 -40 -17c-18 0 -29 8 -34 13
c-7 7 -12 19 -12 32z" />
    <glyph glyph-name="uni04F5" unicode="&#x4f5;" horiz-adv-x="430" 
d="M290 0l20 166c-29 -9 -59 -12 -83 -12c-34 0 -82 8 -109 31c-25 22 -29 50 -29 73c0 15 2 31 6 61l12 96h72l-11 -92c-4 -30 -5 -41 -5 -50c0 -16 4 -31 21 -41c19 -12 51 -12 63 -12c38 0 61 7 71 11l23 184h72l-51 -415h-72zM314 543c0 15 7 30 17 40c8 8 21 17 40 17
c24 0 44 -18 44 -44c0 -13 -7 -29 -18 -40s-25 -16 -38 -16c-23 0 -45 17 -45 43zM140 543c0 15 7 30 17 40c8 8 21 17 40 17c24 0 44 -18 44 -44c0 -13 -7 -29 -18 -40s-25 -16 -38 -16c-23 0 -45 17 -45 43z" />
    <glyph glyph-name="uni04F8" unicode="&#x4f8;" horiz-adv-x="710" 
d="M632 667h74l-82 -667h-74zM86 0l81 667h75l-34 -277h74c69 0 136 -11 180 -56c34 -34 45 -75 45 -119c0 -80 -33 -131 -61 -157c-59 -55 -144 -58 -194 -58h-166zM199 320l-30 -250h86c35 0 98 4 133 34c24 20 42 57 42 102c0 57 -29 83 -45 93c-10 7 -38 21 -110 21h-76
zM495 778c0 10 2 24 15 38s29 19 42 19c11 0 23 -4 32 -12c6 -6 13 -16 13 -31s-6 -31 -16 -42c-8 -8 -21 -17 -40 -17c-18 0 -29 8 -34 13c-7 7 -12 19 -12 32zM305 778c0 10 2 24 15 38s29 19 42 19c11 0 23 -4 32 -12c6 -6 13 -16 13 -31s-6 -31 -16 -42
c-8 -8 -21 -17 -40 -17c-18 0 -29 8 -34 13c-7 7 -12 19 -12 32z" />
    <glyph glyph-name="uni04F9" unicode="&#x4f9;" horiz-adv-x="562" 
d="M422 0l51 415h72l-51 -415h-72zM68 0l51 415h72l-20 -159h75c28 0 73 -2 108 -32c29 -26 35 -57 35 -85c0 -46 -16 -76 -36 -96c-39 -40 -96 -43 -126 -43h-86h-73zM148 64h75c25 0 52 5 68 17c10 8 24 23 24 51c0 26 -12 40 -22 47c-17 12 -47 13 -61 13h-68zM374 543
c0 15 7 30 17 40c8 8 21 17 40 17c24 0 44 -18 44 -44c0 -13 -7 -29 -18 -40s-25 -16 -38 -16c-23 0 -45 17 -45 43zM200 543c0 15 7 30 17 40c8 8 21 17 40 17c24 0 44 -18 44 -44c0 -13 -7 -29 -18 -40s-25 -16 -38 -16c-23 0 -45 17 -45 43z" />
    <glyph glyph-name="uni1E9E" unicode="&#x1e9e;" horiz-adv-x="589" 
d="M86 0l67 480c6 43 27 102 81 147c52 44 112 51 141 51c42 0 83 -10 118 -34c41 -29 67 -71 69 -124c0 -6 0 -15 -1 -22l-160 -122c36 -7 72 -22 100 -45c31 -26 53 -62 53 -111c0 -81 -50 -145 -119 -186c-50 -30 -116 -43 -166 -46l10 70c39 2 84 12 123 34
c40 23 77 64 77 120c-1 41 -22 67 -50 86c-32 21 -81 29 -112 31l8 60l160 128c-4 31 -19 51 -37 66c-24 20 -55 25 -79 25c-28 0 -65 -8 -97 -40c-29 -29 -42 -70 -47 -102l-65 -466h-74z" />
    <glyph glyph-name="uni2010" unicode="&#x2010;" horiz-adv-x="320" 
d="M72 176l9 74h220l-9 -74h-220z" />
    <glyph glyph-name="uni2011" unicode="&#x2011;" horiz-adv-x="320" 
d="M72 176l9 74h220l-9 -74h-220z" />
    <glyph glyph-name="figuredash" unicode="&#x2012;" horiz-adv-x="580" 
d="M92 307l8 64h440l-8 -64h-440z" />
    <glyph glyph-name="endash" unicode="&#x2013;" horiz-adv-x="580" 
d="M92 181l8 64h440l-8 -64h-440z" />
    <glyph glyph-name="emdash" unicode="&#x2014;" horiz-adv-x="800" 
d="M92 181l8 64h660l-8 -64h-660z" />
    <glyph glyph-name="afii00208" unicode="&#x2015;" horiz-adv-x="800" 
d="M92 181l8 64h660l-8 -64h-660z" />
    <glyph glyph-name="quoteleft" unicode="&#x2018;" horiz-adv-x="264" 
d="M290 667l-112 -231l-62 24l129 226z" />
    <glyph glyph-name="quoteright" unicode="&#x2019;" horiz-adv-x="264" 
d="M116 460l109 231l64 -24l-129 -226z" />
    <glyph glyph-name="quotesinglbase" unicode="&#x201a;" horiz-adv-x="308" 
d="M42 -133l109 231l64 -24l-129 -226z" />
    <glyph glyph-name="quotedblleft" unicode="&#x201c;" horiz-adv-x="410" 
d="M290 667l-112 -231l-62 24l129 226zM436 667l-110 -231l-64 24l129 226z" />
    <glyph glyph-name="quotedblright" unicode="&#x201d;" horiz-adv-x="410" 
d="M116 460l109 231l64 -24l-129 -226zM262 460l111 231l62 -24l-129 -226z" />
    <glyph glyph-name="quotedblbase" unicode="&#x201e;" horiz-adv-x="454" 
d="M42 -133l109 231l64 -24l-129 -226zM188 -133l111 231l62 -24l-129 -226z" />
    <glyph glyph-name="dagger" unicode="&#x2020;" horiz-adv-x="569" 
d="M318 503l28 226h72l-28 -226h148l-9 -68h-148l-74 -605h-72l74 605h-148l9 68h148z" />
    <glyph glyph-name="daggerdbl" unicode="&#x2021;" horiz-adv-x="565" 
d="M314 503l28 226h72l-28 -226h148l-9 -68h-148l-34 -277h148l-8 -68h-148l-33 -266h-72l33 266h-148l8 68h148l34 277h-148l9 68h148z" />
    <glyph glyph-name="bullet" unicode="&#x2022;" horiz-adv-x="1000" 
d="M401 321c0 38 14 78 45 111c38 39 82 48 113 48c35 0 65 -13 85 -31c10 -9 39 -38 39 -93c0 -42 -15 -81 -44 -110s-71 -46 -115 -46c-32 0 -60 9 -86 34s-37 54 -37 87z" />
    <glyph glyph-name="ellipsis" unicode="&#x2026;" horiz-adv-x="747" 
d="M328 35c0 21 11 34 16 39c10 11 25 16 39 16s25 -5 33 -13s13 -20 13 -34c0 -10 -3 -26 -19 -40c-11 -9 -23 -13 -36 -13c-17 0 -28 7 -34 13s-12 17 -12 32zM80 35c0 21 11 34 16 39c10 11 25 16 39 16s25 -5 33 -13s13 -20 13 -34c0 -10 -3 -26 -19 -40
c-11 -9 -23 -13 -36 -13c-17 0 -28 7 -34 13s-12 17 -12 32zM576 35c0 21 11 34 16 39c10 11 25 16 39 16s25 -5 33 -13s13 -20 13 -34c0 -10 -3 -26 -19 -40c-11 -9 -23 -13 -36 -13c-17 0 -28 7 -34 13s-12 17 -12 32z" />
    <glyph glyph-name="perthousand" unicode="&#x2030;" horiz-adv-x="1062" 
d="M144 10l471 670l37 -22l-472 -671zM559 283c44 0 79 -16 103 -40c27 -27 36 -59 36 -93c0 -53 -20 -92 -45 -117c-34 -33 -72 -40 -110 -40c-36 0 -67 6 -98 36c-29 28 -40 62 -40 97c0 40 15 82 44 112c28 28 66 45 110 45zM549 48c24 0 44 8 60 24c17 17 28 44 28 74
c0 31 -13 51 -25 62c-11 11 -30 20 -57 20c-26 0 -48 -9 -65 -28s-25 -44 -25 -69c0 -27 10 -48 24 -61c11 -10 29 -22 60 -22zM252 673c44 0 79 -16 103 -40c27 -27 36 -59 36 -93c0 -53 -20 -92 -45 -117c-34 -33 -72 -40 -110 -40c-36 0 -67 6 -98 36
c-24 24 -40 56 -40 97c0 40 15 82 44 112c28 28 66 45 110 45zM242 438c24 0 44 8 60 24c17 17 28 44 28 74c0 31 -13 51 -25 62c-11 11 -30 20 -57 20c-26 0 -48 -9 -65 -28s-25 -44 -25 -69c0 -27 10 -48 24 -61c11 -10 29 -22 60 -22zM907 283c44 0 79 -16 103 -40
c27 -27 36 -59 36 -93c0 -53 -20 -92 -45 -117c-34 -33 -72 -40 -110 -40c-36 0 -67 6 -98 36c-29 28 -40 62 -40 97c0 40 15 82 44 112c28 28 66 45 110 45zM897 48c24 0 44 8 60 24c17 17 28 44 28 74c0 31 -13 51 -25 62c-11 11 -30 20 -57 20c-26 0 -48 -9 -65 -28
s-25 -44 -25 -69c0 -27 10 -48 24 -61c11 -10 29 -22 60 -22z" />
    <glyph glyph-name="guilsinglleft" unicode="&#x2039;" horiz-adv-x="282" 
d="M138 208l102 -146l-50 -32l-128 182l173 188l42 -41z" />
    <glyph glyph-name="guilsinglright" unicode="&#x203a;" horiz-adv-x="282" 
d="M197 222l-102 146l50 32l128 -182l-173 -188l-42 41z" />
    <glyph glyph-name="fraction" unicode="&#x2044;" horiz-adv-x="206" 
d="M-150 10l470 670l36 -22l-471 -671z" />
    <glyph glyph-name="uni2080" unicode="&#x2080;" horiz-adv-x="350" 
d="M178 -7c-30 0 -58 8 -83 34c-26 26 -47 70 -47 132c0 61 20 149 72 203c28 29 61 44 102 44c32 0 59 -11 80 -31c43 -41 45 -103 45 -135c0 -109 -34 -171 -73 -208c-29 -28 -59 -39 -96 -39zM296 240c0 35 -7 77 -30 100c-11 11 -29 20 -48 20c-18 0 -41 -5 -63 -28
c-38 -40 -56 -114 -56 -168c0 -44 12 -84 35 -106c15 -14 31 -19 46 -19s37 5 58 25c36 35 58 109 58 176z" />
    <glyph glyph-name="uni2081" unicode="&#x2081;" horiz-adv-x="350" 
d="M166 0l43 354h-78l30 46h106l-49 -400h-52z" />
    <glyph glyph-name="uni2082" unicode="&#x2082;" horiz-adv-x="350" 
d="M297 0h-265l167 169c36 37 50 52 57 62c13 17 26 38 26 66c0 21 -9 36 -18 45c-7 6 -22 18 -54 18c-18 0 -41 -4 -58 -22c-13 -14 -22 -39 -23 -60h-50c3 38 20 72 43 94c29 27 63 34 93 34c39 0 67 -12 87 -30s32 -42 32 -75c0 -40 -16 -67 -36 -92
c-22 -28 -48 -52 -70 -74l-88 -89h163z" />
    <glyph glyph-name="uni2083" unicode="&#x2083;" horiz-adv-x="350" 
d="M51 109h50c0 -17 7 -38 19 -51c15 -16 36 -19 52 -19c20 0 40 4 57 21c11 12 23 31 23 64c0 12 -1 32 -17 47s-38 16 -54 16h-5l5 46h7c16 0 45 2 63 21c10 10 17 27 17 48c0 17 -5 31 -14 41s-25 17 -46 17s-38 -7 -48 -17c-12 -12 -20 -33 -22 -47h-50
c5 29 20 63 39 81c27 26 64 29 83 29c46 0 71 -17 83 -28c22 -20 28 -46 28 -72c0 -22 -5 -43 -18 -61c-11 -15 -26 -27 -45 -35c11 -5 24 -14 34 -30c11 -18 13 -37 13 -51c0 -37 -12 -74 -37 -99c-32 -33 -71 -37 -100 -37c-30 0 -55 5 -78 25c-24 21 -38 55 -39 91z" />
    <glyph glyph-name="uni2084" unicode="&#x2084;" horiz-adv-x="350" 
d="M321 422l-38 -311h49l-6 -46h-49l-8 -65h-50l8 65h-205zM122 111h111l19 160z" />
    <glyph glyph-name="uni2085" unicode="&#x2085;" horiz-adv-x="350" 
d="M346 400l-6 -46h-134l-31 -81c40 5 83 -6 112 -34c25 -24 32 -53 32 -86c0 -60 -23 -98 -44 -120c-35 -35 -75 -40 -109 -40c-35 0 -60 5 -89 24c-9 6 -29 21 -47 48l43 30c9 -16 22 -30 35 -39c12 -8 31 -17 58 -17c36 0 58 14 71 28c18 20 28 52 28 80
c0 33 -14 52 -27 63c-15 12 -36 19 -62 19c-23 0 -49 -6 -79 -28l82 199h167z" />
    <glyph glyph-name="uni2086" unicode="&#x2086;" horiz-adv-x="350" 
d="M253 413l38 -31l-102 -122c38 4 80 -6 109 -33c30 -28 36 -63 36 -89c0 -47 -18 -82 -40 -104c-32 -33 -72 -41 -108 -41c-29 0 -73 4 -106 38c-18 19 -32 46 -32 82c0 20 4 47 21 78c15 27 31 44 51 67zM184 39c23 0 47 3 69 24c24 23 28 52 28 73c0 18 -4 42 -23 60
c-14 13 -36 22 -63 22c-24 0 -46 -7 -65 -26c-24 -24 -30 -51 -30 -72c0 -27 11 -45 21 -56c19 -20 42 -25 63 -25z" />
    <glyph glyph-name="uni2087" unicode="&#x2087;" horiz-adv-x="350" 
d="M34 18l262 336h-210l6 46h300l-317 -410z" />
    <glyph glyph-name="uni2088" unicode="&#x2088;" horiz-adv-x="350" 
d="M134 208c-11 7 -21 16 -28 30c-8 15 -11 31 -11 45c0 41 15 70 33 88c21 21 49 35 88 35c41 0 67 -15 81 -29c22 -21 28 -46 28 -70c0 -23 -4 -45 -16 -64c-14 -22 -32 -32 -43 -37c14 -7 23 -15 33 -30c12 -18 17 -35 17 -57c0 -43 -17 -73 -36 -92
c-30 -29 -66 -34 -97 -34s-61 4 -87 27c-19 17 -36 43 -36 83c0 27 8 49 21 66c10 14 27 30 53 39zM206 229c25 0 41 9 50 19c13 13 20 33 20 53c0 22 -9 36 -18 44c-15 13 -33 15 -45 15c-20 0 -35 -5 -50 -20c-12 -13 -19 -28 -19 -49c0 -20 7 -35 15 -44s23 -18 47 -18z
M192 185c-20 0 -41 -4 -59 -22c-12 -12 -21 -32 -21 -56c0 -23 9 -38 19 -48c9 -9 25 -20 53 -20c25 0 46 9 59 22c12 12 21 32 21 58c0 23 -9 38 -18 47c-16 16 -38 19 -54 19z" />
    <glyph glyph-name="uni2089" unicode="&#x2089;" horiz-adv-x="350" 
d="M143 -14l-38 31l104 120c-39 -7 -83 6 -112 34c-23 22 -35 51 -35 86c0 42 16 80 42 107c31 32 67 42 107 42c49 0 83 -16 103 -36c21 -21 34 -53 34 -82c0 -25 -6 -52 -16 -72c-8 -15 -20 -34 -47 -65zM213 360c-28 0 -51 -8 -69 -25c-24 -23 -29 -51 -29 -74
c0 -22 5 -41 23 -58c16 -16 36 -22 60 -22c29 0 52 9 69 27c20 20 29 47 29 73c0 32 -14 51 -25 60c-11 10 -30 19 -58 19z" />
    <glyph glyph-name="Euro" unicode="&#x20ac;" horiz-adv-x="568" 
d="M584 622l-41 -67c-41 39 -94 53 -141 53c-106 0 -194 -69 -228 -168h320l-34 -66h-304c-6 -27 -10 -53 -11 -78h280l-34 -66h-243c6 -84 60 -172 185 -172c83 0 151 43 192 77l-12 -92c-37 -23 -102 -55 -195 -55c-165 0 -249 116 -250 242h-68l34 66h33c2 26 6 52 11 78
h-60l34 66h41c39 121 145 238 321 238c39 0 102 -5 170 -56z" />
    <glyph glyph-name="uni20B4" unicode="&#x20b4;" horiz-adv-x="568" 
d="M169 574c18 25 44 52 83 73c34 18 76 31 119 31c55 0 92 -20 117 -46c22 -24 35 -56 35 -90c0 -37 -17 -74 -48 -102h82l-7 -56h-124l-104 -88h217l-7 -56h-272c-27 -22 -59 -63 -59 -104c0 -22 9 -44 29 -60c20 -15 43 -18 62 -18c32 0 62 8 87 22c42 24 60 59 68 80
l66 -28c-27 -69 -83 -105 -105 -117c-43 -23 -87 -27 -117 -27c-37 0 -79 6 -116 34c-43 33 -52 75 -52 102c0 42 20 85 51 116h-79l7 56h130l104 88h-223l7 56h267c30 20 61 55 61 96c0 21 -6 37 -22 51c-19 17 -42 21 -64 21c-26 0 -53 -6 -80 -21
c-21 -12 -41 -29 -58 -52z" />
    <glyph glyph-name="uni20B6" unicode="&#x20b6;" horiz-adv-x="568" 
d="M345 667c68 0 127 -18 161 -51c14 -14 46 -51 46 -126c0 -68 -26 -111 -54 -138c-43 -41 -109 -58 -189 -58h-57l-11 -88h164l-7 -56h-164l-18 -150h-74l18 150h-76l7 56h76l11 88h-75l7 66h76l38 307h121zM289 597l-29 -237h63c36 0 85 4 120 36c20 18 36 48 36 92
c0 45 -18 71 -37 85c-27 21 -68 24 -98 24h-55z" />
    <glyph glyph-name="uni20B6" unicode="&#x20cf;" horiz-adv-x="568" 
d="M345 667c68 0 127 -18 161 -51c14 -14 46 -51 46 -126c0 -68 -26 -111 -54 -138c-43 -41 -109 -58 -189 -58h-57l-11 -88h164l-7 -56h-164l-18 -150h-74l18 150h-76l7 56h76l11 88h-75l7 66h76l38 307h121zM289 597l-29 -237h63c36 0 85 4 120 36c20 18 36 48 36 92
c0 45 -18 71 -37 85c-27 21 -68 24 -98 24h-55z" />
    <glyph glyph-name="uni20B6" unicode="&#x20ce;" horiz-adv-x="568" 
d="M345 667c68 0 127 -18 161 -51c14 -14 46 -51 46 -126c0 -68 -26 -111 -54 -138c-43 -41 -109 -58 -189 -58h-57l-11 -88h164l-7 -56h-164l-18 -150h-74l18 150h-76l7 56h76l11 88h-75l7 66h76l38 307h121zM289 597l-29 -237h63c36 0 85 4 120 36c20 18 36 48 36 92
c0 45 -18 71 -37 85c-27 21 -68 24 -98 24h-55z" />
    <glyph glyph-name="uni20B6" unicode="&#x20cd;" horiz-adv-x="568" 
d="M345 667c68 0 127 -18 161 -51c14 -14 46 -51 46 -126c0 -68 -26 -111 -54 -138c-43 -41 -109 -58 -189 -58h-57l-11 -88h164l-7 -56h-164l-18 -150h-74l18 150h-76l7 56h76l11 88h-75l7 66h76l38 307h121zM289 597l-29 -237h63c36 0 85 4 120 36c20 18 36 48 36 92
c0 45 -18 71 -37 85c-27 21 -68 24 -98 24h-55z" />
    <glyph glyph-name="uni20B6" unicode="&#x20cc;" horiz-adv-x="568" 
d="M345 667c68 0 127 -18 161 -51c14 -14 46 -51 46 -126c0 -68 -26 -111 -54 -138c-43 -41 -109 -58 -189 -58h-57l-11 -88h164l-7 -56h-164l-18 -150h-74l18 150h-76l7 56h76l11 88h-75l7 66h76l38 307h121zM289 597l-29 -237h63c36 0 85 4 120 36c20 18 36 48 36 92
c0 45 -18 71 -37 85c-27 21 -68 24 -98 24h-55z" />
    </font>
</defs>
</svg>
